<?xml version="1.0" encoding="UTF-8"?>
<svg width="16px" height="16px" viewBox="0 0 16 16" version="1.1" xmlns="http://www.w3.org/2000/svg" xmlns:xlink="http://www.w3.org/1999/xlink">
    <!-- Generator: Sketch 49.3 (51167) - http://www.bohemiancoding.com/sketch -->
    <title>添加</title>
    <desc>Created with Sketch.</desc>
    <defs></defs>
    <g id="Page-1" stroke="none" stroke-width="1" fill="none" fill-rule="evenodd">
        <g id="课程管理-单次课-新建单次课" transform="translate(-939.000000, -515.000000)">
            <g id="添加_export" transform="translate(939.000000, 515.000000)">
                <g id="添加">
                    <g>
                        <rect id="Rectangle-19" fill-opacity="0" fill="#D8D8D8" x="0" y="0" width="16" height="16"></rect>
                        <path d="M7,6 L7,1 C7,0.44771525 7.44771525,-2.17514707e-16 8,-1.8369702e-16 C8.55228475,-1.49879332e-16 9,0.44771525 9,1 L9,6 L14,6 C14.5522847,6 15,6.44771525 15,7 C15,7.55228475 14.5522847,8 14,8 L9,8 L9,13 C9,13.5522847 8.55228475,14 8,14 C7.44771525,14 7,13.5522847 7,13 L7,8 L2,8 C1.44771525,8 1,7.55228475 1,7 C1,6.44771525 1.44771525,6 2,6 L7,6 Z" fill="#EF334E"></path>
                    </g>
                </g>
            </g>
        </g>
    </g>
</svg>