<?xml version="1.0" encoding="UTF-8"?>
<svg width="24px" height="24px" viewBox="0 0 24 24" version="1.1" xmlns="http://www.w3.org/2000/svg" xmlns:xlink="http://www.w3.org/1999/xlink">
    <!-- Generator: Sketch 52.5 (67469) - http://www.bohemiancoding.com/sketch -->
    <title>添加学生-默认</title>
    <desc>Created with Sketch.</desc>
    <g id="Page-1" stroke="none" stroke-width="1" fill="none" fill-rule="evenodd">
        <g id="iocn-样式" transform="translate(-298.000000, -770.000000)" fill-rule="nonzero">
            <g id="添加学生" transform="translate(298.000000, 770.000000)">
                <g id="添加学生-默认_export">
                    <g id="添加学生-默认">
                        <rect id="矩形" fill="#D8D8D8" opacity="0" x="0" y="0" width="24" height="24"></rect>
                        <path d="M7.44287961,12.8323509 C5.96118142,11.7398397 5,9.9821678 5,8 C5,4.6862915 7.6862915,2 11,2 C14.3137085,2 17,4.6862915 17,8 C17,9.9821678 16.0388186,11.7398397 14.5571204,12.8323509 C14.6648163,12.8859006 14.7711343,12.9418061 14.8760072,13 L14.3177951,13 C13.3674888,13.6318473 12.2267377,14 11,14 C7.6862915,14 5,16.6862915 5,20 C5,20.3407122 5.0283988,20.6747915 5.08295844,21 L3.06189375,21 C3.02104333,20.6724058 3,20.3386603 3,20 C3,16.8595365 4.80956135,14.1417186 7.44287961,12.8323509 Z M16,16 L16,14 C16,13.4477153 16.4477153,13 17,13 C17.5522847,13 18,13.4477153 18,14 L18,16 L20,16 C20.5522847,16 21,16.4477153 21,17 C21,17.5522847 20.5522847,18 20,18 L18,18 L18,20 C18,20.5522847 17.5522847,21 17,21 C16.4477153,21 16,20.5522847 16,20 L16,18 L14,18 C13.4477153,18 13,17.5522847 13,17 C13,16.4477153 13.4477153,16 14,16 L16,16 Z M11,12 C13.209139,12 15,10.209139 15,8 C15,5.790861 13.209139,4 11,4 C8.790861,4 7,5.790861 7,8 C7,10.209139 8.790861,12 11,12 Z" id="合并形状" fill="#FF0047"></path>
                    </g>
                </g>
            </g>
        </g>
    </g>
</svg>