<?xml version="1.0" encoding="UTF-8"?>
<svg width="24px" height="24px" viewBox="0 0 24 24" version="1.1" xmlns="http://www.w3.org/2000/svg" xmlns:xlink="http://www.w3.org/1999/xlink">
    <!-- Generator: Sketch 49.3 (51167) - http://www.bohemiancoding.com/sketch -->
    <title>警报-开-二级</title>
    <desc>Created with Sketch.</desc>
    <defs></defs>
    <g id="Page-1" stroke="none" stroke-width="1" fill="none" fill-rule="evenodd">
        <g id="教务管理-课堂监控-详情" transform="translate(-1603.000000, -738.000000)">
            <g id="警报-开-二级_export" transform="translate(1603.000000, 738.000000)">
                <g id="警报-开-二级">
                    <g>
                        <rect id="Rectangle-4" fill-opacity="0" fill="#D8D8D8" x="0" y="0" width="24" height="24"></rect>
                        <path d="M16.0113525,20 L16.0113525,12.5 C16.0113525,10.0147186 13.9966339,8 11.5113525,8 C9.02607116,8 7.01135254,10.0147186 7.01135254,12.5 L7.01135254,20 L16.0113525,20 Z M17.8774614,20 L19.0113525,20 C19.5636373,20 20.0113525,20.4477153 20.0113525,21 C20.0113525,21.5522847 19.5636373,22 19.0113525,22 L4.01135254,22 C3.45906779,22 3.01135254,21.5522847 3.01135254,21 C3.01135254,20.4477153 3.45906779,20 4.01135254,20 L5.01135254,20 L5.01135254,12.4330544 C5.01135254,8.88017658 7.89152912,6 11.444407,6 C14.9972848,6 17.8774614,8.88017658 17.8774614,12.4330544 L17.8774614,20 Z M11.519458,2 C12.0717428,2 12.519458,2.44771525 12.519458,3 L12.519458,4 C12.519458,4.55228475 12.0717428,5 11.519458,5 C10.9671733,5 10.519458,4.55228475 10.519458,4 L10.519458,3 C10.519458,2.44771525 10.9671733,2 11.519458,2 Z M18.0720127,4.43933983 C18.462537,4.82986412 18.462537,5.4630291 18.0720127,5.85355339 L17.3649059,6.56066017 C16.9743816,6.95118446 16.3412167,6.95118446 15.9506924,6.56066017 C15.5601681,6.17013588 15.5601681,5.5369709 15.9506924,5.14644661 L16.6577991,4.43933983 C17.0483234,4.04881554 17.6814884,4.04881554 18.0720127,4.43933983 Z M4.95069237,4.43933983 C5.34121666,4.04881554 5.97438164,4.04881554 6.36490593,4.43933983 L7.07201271,5.14644661 C7.462537,5.5369709 7.462537,6.17013588 7.07201271,6.56066017 C6.68148842,6.95118446 6.04832344,6.95118446 5.65779915,6.56066017 L4.95069237,5.85355339 C4.56016808,5.4630291 4.56016808,4.82986412 4.95069237,4.43933983 Z M21.4602413,9.11177143 C21.6031831,9.64523754 21.2866006,10.1935745 20.7531345,10.3365163 L19.7872087,10.5953353 C19.2537426,10.7382772 18.7054056,10.4216947 18.5624638,9.88822857 C18.419522,9.35476246 18.7361045,8.80642551 19.2695706,8.6634837 L20.2354964,8.40466465 C20.7689625,8.26172284 21.3172995,8.57830533 21.4602413,9.11177143 Z M1.5624638,9.11177143 C1.70540561,8.57830533 2.25374257,8.26172284 2.78720867,8.40466465 L3.7531345,8.6634837 C4.2866006,8.80642551 4.60318309,9.35476246 4.46024128,9.88822857 C4.31729947,10.4216947 3.76896251,10.7382772 3.23549641,10.5953353 L2.26957058,10.3365163 C1.73610448,10.1935745 1.41952199,9.64523754 1.5624638,9.11177143 Z M12.0092773,9.52701823 C12.0092773,9.83980306 11.8497586,9.99748814 11.530721,10.0000735 C11.5242707,10.0000245 11.5178145,10 11.5113525,10 C10.1306407,10 9.01135254,11.1192881 9.01135254,12.5 L9.01135254,14.5130208 C9.01318359,14.8398302 8.84509956,15.0032349 8.50710042,15.0032349 C8.16910129,15.0032349 8.003852,14.8398302 8.01135254,14.5130208 L8.01135254,12.5 C8.01135254,10.5670034 9.57835591,9 11.5113525,9 C11.5178128,9 11.524269,9.0000175 11.530721,9.00005246 C11.8497586,9.03857814 12.0092773,9.2142334 12.0092773,9.52701823 Z" fill="#FF6A00" fill-rule="nonzero"></path>
                    </g>
                </g>
            </g>
        </g>
    </g>
</svg>