<?xml version="1.0" encoding="UTF-8"?>
<svg width="24px" height="24px" viewBox="0 0 24 24" version="1.1" xmlns="http://www.w3.org/2000/svg" xmlns:xlink="http://www.w3.org/1999/xlink">
    <!-- Generator: Sketch 49.3 (51167) - http://www.bohemiancoding.com/sketch -->
    <title>警报-开-一级</title>
    <desc>Created with Sketch.</desc>
    <defs></defs>
    <g id="Page-1" stroke="none" stroke-width="1" fill="none" fill-rule="evenodd">
        <g id="教务管理-课堂监控-详情" transform="translate(-1603.000000, -679.000000)">
            <g id="警报-开-一级_export" transform="translate(1603.000000, 679.000000)">
                <g id="警报-开-一级">
                    <g>
                        <rect id="Rectangle-4" fill-opacity="0" fill="#D8D8D8" x="0" y="0" width="24" height="24"></rect>
                        <path d="M15.9952393,20 L15.9952393,12.5 C15.9952393,10.0147186 13.9805206,8 11.4952393,8 C9.00995788,8 6.99523926,10.0147186 6.99523926,12.5 L6.99523926,20 L15.9952393,20 Z M17.8613481,20 L18.9952393,20 C19.547524,20 19.9952393,20.4477153 19.9952393,21 C19.9952393,21.5522847 19.547524,22 18.9952393,22 L3.99523926,22 C3.44295451,22 2.99523926,21.5522847 2.99523926,21 C2.99523926,20.4477153 3.44295451,20 3.99523926,20 L4.99523926,20 L4.99523926,12.4330544 C4.99523926,8.88017658 7.87541584,6 11.4282937,6 C14.9811716,6 17.8613481,8.88017658 17.8613481,12.4330544 L17.8613481,20 Z M11.5033447,2 C12.0556295,2 12.5033447,2.44771525 12.5033447,3 L12.5033447,4 C12.5033447,4.55228475 12.0556295,5 11.5033447,5 C10.95106,5 10.5033447,4.55228475 10.5033447,4 L10.5033447,3 C10.5033447,2.44771525 10.95106,2 11.5033447,2 Z M18.0558994,4.43933983 C18.4464237,4.82986412 18.4464237,5.4630291 18.0558994,5.85355339 L17.3487926,6.56066017 C16.9582684,6.95118446 16.3251034,6.95118446 15.9345791,6.56066017 C15.5440548,6.17013588 15.5440548,5.5369709 15.9345791,5.14644661 L16.6416859,4.43933983 C17.0322102,4.04881554 17.6653751,4.04881554 18.0558994,4.43933983 Z M4.93457909,4.43933983 C5.32510338,4.04881554 5.95826836,4.04881554 6.34879265,4.43933983 L7.05589943,5.14644661 C7.44642372,5.5369709 7.44642372,6.17013588 7.05589943,6.56066017 C6.66537514,6.95118446 6.03221016,6.95118446 5.64168587,6.56066017 L4.93457909,5.85355339 C4.54405479,5.4630291 4.54405479,4.82986412 4.93457909,4.43933983 Z M21.444128,9.11177143 C21.5870698,9.64523754 21.2704873,10.1935745 20.7370212,10.3365163 L19.7710954,10.5953353 C19.2376293,10.7382772 18.6892923,10.4216947 18.5463505,9.88822857 C18.4034087,9.35476246 18.7199912,8.80642551 19.2534573,8.6634837 L20.2193831,8.40466465 C20.7528492,8.26172284 21.3011862,8.57830533 21.444128,9.11177143 Z M1.54635052,9.11177143 C1.68929233,8.57830533 2.23762929,8.26172284 2.77109539,8.40466465 L3.73702122,8.6634837 C4.27048732,8.80642551 4.58706981,9.35476246 4.444128,9.88822857 C4.30118619,10.4216947 3.75284923,10.7382772 3.21938313,10.5953353 L2.2534573,10.3365163 C1.7199912,10.1935745 1.40340871,9.64523754 1.54635052,9.11177143 Z M11.9931641,9.52701823 C11.9931641,9.83980306 11.8336453,9.99748814 11.5146077,10.0000735 C11.5081574,10.0000245 11.5017012,10 11.4952393,10 C10.1145274,10 8.99523926,11.1192881 8.99523926,12.5 L8.99523926,14.5130208 C8.99707031,14.8398302 8.82898627,15.0032349 8.49098714,15.0032349 C8.15298801,15.0032349 7.98773872,14.8398302 7.99523926,14.5130208 L7.99523926,12.5 C7.99523926,10.5670034 9.56224263,9 11.4952393,9 C11.5016995,9 11.5081557,9.0000175 11.5146077,9.00005246 C11.8336453,9.03857814 11.9931641,9.2142334 11.9931641,9.52701823 Z" fill="#EF334E" fill-rule="nonzero"></path>
                    </g>
                </g>
            </g>
        </g>
    </g>
</svg>