<?xml version="1.0" encoding="UTF-8"?>
<svg width="24px" height="24px" viewBox="0 0 24 24" version="1.1" xmlns="http://www.w3.org/2000/svg" xmlns:xlink="http://www.w3.org/1999/xlink">
    <!-- Generator: Sketch 49.3 (51167) - http://www.bohemiancoding.com/sketch -->
    <title>警报-关</title>
    <desc>Created with Sketch.</desc>
    <defs></defs>
    <g id="Page-1" stroke="none" stroke-width="1" fill="none" fill-rule="evenodd">
        <g id="教务管理-课堂监控-详情" transform="translate(-1603.000000, -857.000000)">
            <g id="警报-关_export" transform="translate(1603.000000, 857.000000)">
                <g id="警报-关">
                    <g>
                        <rect id="Rectangle-4" fill-opacity="0" fill="#D8D8D8" x="0" y="0" width="24" height="24"></rect>
                        <path d="M17,20 L17,12.5 C17,10.0147186 14.9852814,8 12.5,8 C10.0147186,8 8,10.0147186 8,12.5 L8,20 L17,20 Z M18.8661089,20 L20,20 C20.5522847,20 21,20.4477153 21,21 C21,21.5522847 20.5522847,22 20,22 L5,22 C4.44771525,22 4,21.5522847 4,21 C4,20.4477153 4.44771525,20 5,20 L6,20 L6,12.4330544 C6,8.88017658 8.88017658,6 12.4330544,6 C15.9859323,6 18.8661089,8.88017658 18.8661089,12.4330544 L18.8661089,20 Z M12.5081055,2 C13.0603902,2 13.5081055,2.44771525 13.5081055,3 L13.5081055,4 C13.5081055,4.55228475 13.0603902,5 12.5081055,5 C11.9558207,5 11.5081055,4.55228475 11.5081055,4 L11.5081055,3 C11.5081055,2.44771525 11.9558207,2 12.5081055,2 Z M19.0606602,4.43933983 C19.4511845,4.82986412 19.4511845,5.4630291 19.0606602,5.85355339 L18.3535534,6.56066017 C17.9630291,6.95118446 17.3298641,6.95118446 16.9393398,6.56066017 C16.5488155,6.17013588 16.5488155,5.5369709 16.9393398,5.14644661 L17.6464466,4.43933983 C18.0369709,4.04881554 18.6701359,4.04881554 19.0606602,4.43933983 Z M5.93933983,4.43933983 C6.32986412,4.04881554 6.9630291,4.04881554 7.35355339,4.43933983 L8.06066017,5.14644661 C8.45118446,5.5369709 8.45118446,6.17013588 8.06066017,6.56066017 C7.67013588,6.95118446 7.0369709,6.95118446 6.64644661,6.56066017 L5.93933983,5.85355339 C5.54881554,5.4630291 5.54881554,4.82986412 5.93933983,4.43933983 Z M22.4488887,9.11177143 C22.5918306,9.64523754 22.2752481,10.1935745 21.741782,10.3365163 L20.7758561,10.5953353 C20.24239,10.7382772 19.6940531,10.4216947 19.5511113,9.88822857 C19.4081694,9.35476246 19.7247519,8.80642551 20.258218,8.6634837 L21.2241439,8.40466465 C21.75761,8.26172284 22.3059469,8.57830533 22.4488887,9.11177143 Z M2.55111126,9.11177143 C2.69405307,8.57830533 3.24239003,8.26172284 3.77585613,8.40466465 L4.74178196,8.6634837 C5.27524806,8.80642551 5.59183055,9.35476246 5.44888874,9.88822857 C5.30594693,10.4216947 4.75760997,10.7382772 4.22414387,10.5953353 L3.25821804,10.3365163 C2.72475194,10.1935745 2.40816945,9.64523754 2.55111126,9.11177143 Z M12.9979248,9.52701823 C12.9979248,9.83980306 12.838406,9.99748814 12.5193685,10.0000735 C12.5129181,10.0000245 12.5064619,10 12.5,10 C11.1192881,10 10,11.1192881 10,12.5 L10,14.5130208 C10.0018311,14.8398302 9.83374702,15.0032349 9.49574788,15.0032349 C9.15774875,15.0032349 8.99249946,14.8398302 9,14.5130208 L9,12.5 C9,10.5670034 10.5670034,9 12.5,9 C12.5064603,9 12.5129164,9.0000175 12.5193685,9.00005246 C12.838406,9.03857814 12.9979248,9.2142334 12.9979248,9.52701823 Z" fill="#CCCCCC" fill-rule="nonzero"></path>
                    </g>
                </g>
            </g>
        </g>
    </g>
</svg>