<?xml version="1.0" encoding="UTF-8"?>
<svg width="24px" height="24px" viewBox="0 0 24 24" version="1.1" xmlns="http://www.w3.org/2000/svg" xmlns:xlink="http://www.w3.org/1999/xlink">
    <!-- Generator: Sketch 49.3 (51167) - http://www.bohemiancoding.com/sketch -->
    <title>警报-开-三</title>
    <desc>Created with Sketch.</desc>
    <defs></defs>
    <g id="Page-1" stroke="none" stroke-width="1" fill="none" fill-rule="evenodd">
        <g id="教务管理-课堂监控-详情" transform="translate(-1603.000000, -797.000000)">
            <g id="警报-开-三_export" transform="translate(1603.000000, 797.000000)">
                <g id="警报-开-三">
                    <g id="警报-开-三级">
                        <g>
                            <rect id="Rectangle-4" fill-opacity="0" fill="#D8D8D8" x="0" y="0" width="24" height="24"></rect>
                            <path d="M16.0168457,20 L16.0168457,12.5 C16.0168457,10.0147186 14.0021271,8 11.5168457,8 C9.03156433,8 7.0168457,10.0147186 7.0168457,12.5 L7.0168457,20 L16.0168457,20 Z M17.8829546,20 L19.0168457,20 C19.5691305,20 20.0168457,20.4477153 20.0168457,21 C20.0168457,21.5522847 19.5691305,22 19.0168457,22 L4.0168457,22 C3.46456095,22 3.0168457,21.5522847 3.0168457,21 C3.0168457,20.4477153 3.46456095,20 4.0168457,20 L5.0168457,20 L5.0168457,12.4330544 C5.0168457,8.88017658 7.89702228,6 11.4499001,6 C15.002778,6 17.8829546,8.88017658 17.8829546,12.4330544 L17.8829546,20 Z M11.5249512,2 C12.0772359,2 12.5249512,2.44771525 12.5249512,3 L12.5249512,4 C12.5249512,4.55228475 12.0772359,5 11.5249512,5 C10.9726664,5 10.5249512,4.55228475 10.5249512,4 L10.5249512,3 C10.5249512,2.44771525 10.9726664,2 11.5249512,2 Z M18.0775059,4.43933983 C18.4680302,4.82986412 18.4680302,5.4630291 18.0775059,5.85355339 L17.3703991,6.56066017 C16.9798748,6.95118446 16.3467098,6.95118446 15.9561855,6.56066017 C15.5656612,6.17013588 15.5656612,5.5369709 15.9561855,5.14644661 L16.6632923,4.43933983 C17.0538166,4.04881554 17.6869816,4.04881554 18.0775059,4.43933983 Z M4.95618553,4.43933983 C5.34670982,4.04881554 5.9798748,4.04881554 6.37039909,4.43933983 L7.07750587,5.14644661 C7.46803017,5.5369709 7.46803017,6.17013588 7.07750587,6.56066017 C6.68698158,6.95118446 6.0538166,6.95118446 5.66329231,6.56066017 L4.95618553,5.85355339 C4.56566124,5.4630291 4.56566124,4.82986412 4.95618553,4.43933983 Z M21.4657344,9.11177143 C21.6086763,9.64523754 21.2920938,10.1935745 20.7586277,10.3365163 L19.7927018,10.5953353 C19.2592357,10.7382772 18.7108988,10.4216947 18.567957,9.88822857 C18.4250152,9.35476246 18.7415976,8.80642551 19.2750637,8.6634837 L20.2409896,8.40466465 C20.7744557,8.26172284 21.3227926,8.57830533 21.4657344,9.11177143 Z M1.56795696,9.11177143 C1.71089878,8.57830533 2.25923573,8.26172284 2.79270184,8.40466465 L3.75862766,8.6634837 C4.29209376,8.80642551 4.60867625,9.35476246 4.46573444,9.88822857 C4.32279263,10.4216947 3.77445567,10.7382772 3.24098957,10.5953353 L2.27506374,10.3365163 C1.74159764,10.1935745 1.42501515,9.64523754 1.56795696,9.11177143 Z M12.0147705,9.52701823 C12.0147705,9.83980306 11.8552517,9.99748814 11.5362142,10.0000735 C11.5297638,10.0000245 11.5233076,10 11.5168457,10 C10.1361338,10 9.0168457,11.1192881 9.0168457,12.5 L9.0168457,14.5130208 C9.01867676,14.8398302 8.85059272,15.0032349 8.51259359,15.0032349 C8.17459446,15.0032349 8.00934516,14.8398302 8.0168457,14.5130208 L8.0168457,12.5 C8.0168457,10.5670034 9.58384908,9 11.5168457,9 C11.523306,9 11.5297621,9.0000175 11.5362142,9.00005246 C11.8552517,9.03857814 12.0147705,9.2142334 12.0147705,9.52701823 Z" fill="#FFA400" fill-rule="nonzero"></path>
                        </g>
                    </g>
                </g>
            </g>
        </g>
    </g>
</svg>