<?xml version="1.0" encoding="UTF-8"?>
<svg width="60px" height="60px" viewBox="0 0 60 60" version="1.1" xmlns="http://www.w3.org/2000/svg" xmlns:xlink="http://www.w3.org/1999/xlink">
    <!-- Generator: Sketch 49.3 (51167) - http://www.bohemiancoding.com/sketch -->
    <title>打call</title>
    <desc>Created with Sketch.</desc>
    <defs></defs>
    <g id="Page-1" stroke="none" stroke-width="1" fill="none" fill-rule="evenodd">
        <g id="营销活动" transform="translate(-280.000000, -140.000000)">
            <g id="好友打call" transform="translate(260.000000, 120.000000)">
                <g id="打call_export" transform="translate(20.000000, 20.000000)">
                    <g id="打call">
                        <rect id="Rectangle-11" fill="#EF334E" x="0" y="0" width="60" height="60" rx="2"></rect>
                        <g id="推广" transform="translate(12.000000, 10.000000)" fill="#FFFFFF" fill-rule="nonzero">
                            <path d="M17,1.00000003 C17,1.55228476 17.4477153,2 18,2 C18.5522847,2 19,1.55228476 19,1.00000003 C19,0.642734436 18.8094011,0.312607405 18.5,0.133974602 C18.1905989,-0.0446582007 17.8094011,-0.0446582007 17.5,0.133974602 C17.1905989,0.312607405 17,0.642734436 17,1.00000003 Z" id="Shape"></path>
                            <path d="M17,5 C17,5.55228475 17.4477153,6 18,6 C18.5522847,6 19,5.55228475 19,5 C19,4.44771525 18.5522847,4 18,4 C17.4477153,4 17,4.44771525 17,5 Z" id="Shape"></path>
                            <path d="M36,12 C36,12.5522847 36.4477153,13 37,13 C37.5522847,13 38,12.5522847 38,12 C38,11.4477153 37.5522847,11 37,11 C36.4477153,11 36,11.4477153 36,12 Z" id="Shape"></path>
                            <path d="M1.67876465e-15,13 C-7.52880873e-09,13.3572656 0.190598914,13.6873926 0.499999994,13.8660254 C0.809401074,14.0446582 1.19059893,14.0446582 1.50000001,13.8660254 C1.80940109,13.6873926 2.00000001,13.3572656 2,13 C2.00000001,12.6427344 1.80940109,12.3126074 1.50000001,12.1339746 C1.19059893,11.9553418 0.809401074,11.9553418 0.499999994,12.1339746 C0.190598914,12.3126074 -7.52880901e-09,12.6427344 0,13 Z" id="Shape"></path>
                            <path d="M33,13.5 C33,13.7761424 33.2238576,14 33.5,14 C33.7761424,14 34,13.7761424 34,13.5 C34,13.2238576 33.7761424,13 33.5,13 C33.2238576,13 33,13.2238576 33,13.5 Z" id="Shape"></path>
                            <path d="M3,13.5 C3,13.7761424 3.22385763,14 3.5,14 C3.77614237,14 4,13.7761424 4,13.5 C4,13.2238576 3.77614237,13 3.5,13 C3.22385763,13 3,13.2238576 3,13.5 Z" id="Shape"></path>
                            <path d="M6.784088,8.77437732 C6.784088,8.77437732 11.089537,10.7777428 12.8552059,14.2073727 C14.6208749,17.6370026 15.0470709,14.0672196 13.5684318,12.5997337 C12.0897928,11.1322478 9.37605526,8.43636091 8.32361218,7.87574834 C7.27986697,7.30689146 5.76643643,7.88399264 6.784088,8.77437732 Z M7.54080327,14.7102752 C7.54080327,14.7102752 10.4111026,16.2107382 10.7851113,16.8950153 C11.15912,17.5710481 11.3504733,18.8241821 9.88053211,18.0739506 C8.41059094,17.3237191 7.46252238,16.3179142 7.0102328,15.8892104 C6.55794321,15.4605067 5.69685342,14.1414183 7.54080327,14.7102752 Z M17.5868509,8.05712299 C17.5868509,8.05712299 16.5257099,11.8082807 16.2995651,12.3853818 C16.0734203,12.962483 17.1693528,13.671493 17.8825787,12.3853818 C18.5958046,11.0992706 18.7610642,8.70017859 18.6653876,8.37865079 C18.561013,8.05712299 17.9695574,7.66964077 17.5868509,8.05712299 Z M25.6584804,17.9337975 C25.6584804,17.9337975 29.5116398,15.4275295 29.9987209,15.3945523 C30.485802,15.3615751 31.964441,14.9328713 31.7730877,15.8562332 C31.5817345,16.7878394 27.0936301,18.8241821 26.7892044,18.9313581 C26.4847787,19.038534 24.5973395,19.1869315 25.6584804,17.9337975 Z M31.8861601,6.86994342 L31.5904323,6.00429165 C31.3121003,5.1798614 30.6336659,4.5368058 29.7725761,4.25649951 L28.8071118,3.95146032 L29.8682528,3.588711 C30.6684574,3.31664902 31.2947045,2.71481493 31.5730366,1.9563391 L31.9209517,1 L32.3384497,2.07175933 C32.6167818,2.77252505 33.2082374,3.32489332 33.9562548,3.5722224 L35,3.91848311 L33.9997442,4.31420963 C33.2430289,4.61100452 32.6428754,5.1798614 32.321054,5.88887142 L31.8861601,6.86994342 Z M4.07035047,8.48582673 L3.78332054,7.62841926 C3.50498849,6.803989 2.82655411,6.1609334 1.96546431,5.88062712 L1,5.56734362 L2.06114096,5.20459431 C2.86134561,4.93253232 3.48759273,4.33069823 3.76592479,3.5722224 L4.11383986,2.6158833 L4.53133794,3.68764264 C4.80966999,4.38840835 5.40112561,4.94077662 6.149143,5.1881057 L7.19288821,5.53436641 L6.19263239,5.93009293 C5.43591711,6.22688782 4.83576362,6.7957447 4.51394218,7.50475472 L4.07035047,8.48582673 Z" id="Shape"></path>
                            <path d="M17.9289417,20.0172119 L28.0096781,10.8401698 C28.0096781,10.8401698 28.8511705,9.8260814 27.6662117,8.66113686 C26.4726663,7.49619231 25.3306408,8.22533026 25.3306408,8.22533026 L12.1157743,20.0172119 L0.669759316,20.0172119 C0.669759316,20.0172119 0,20.3587451 0,21.1381684 C0,21.9175917 0.598022461,22.0873322 0.598022461,22.0873322 L4.01855589,22.0873322 L4.01855589,35.5135276 C4.01855589,39.0502657 7.59060558,38.9999804 7.59060558,38.9999804 L29.7957029,38.9999804 C33.1788461,38.9999804 33.0758062,35.7984781 33.0758062,35.7984781 L33.0758062,22.0873322 L36.2013497,22.0873322 C36.2013497,22.0873322 36.998291,21.9404297 36.9999089,21.0375977 C37.0262451,20.123291 36.4074295,20.0172119 36.4074295,20.0172119 L17.9289417,20.0172119 Z M23.3471228,11.7620684 L25.2791208,9.87636678 C25.5367206,9.6249399 25.9660535,9.6249399 26.2236532,9.87636678 C26.4812529,10.1277937 26.4812529,10.5468385 26.2236532,10.7982653 L24.2916552,12.6839669 C24.0340554,12.9353938 23.6047226,12.9353938 23.3471228,12.6839669 C23.0809364,12.4325401 23.0809364,12.0134953 23.3471228,11.7620684 Z M28.9684705,37 L8.02637165,37 C6.47218657,37 6.02355957,36.1354215 6.02355957,34.5871582 L6.02355957,22.0873322 L30.9833984,22.0873322 L30.9833984,34.5871582 C30.9833984,36.1269145 30.5312422,37 28.9684705,37 Z" id="Shape"></path>
                        </g>
                    </g>
                </g>
            </g>
        </g>
    </g>
</svg>