<?xml version="1.0" encoding="UTF-8"?>
<svg width="24px" height="24px" viewBox="0 0 24 24" version="1.1" xmlns="http://www.w3.org/2000/svg" xmlns:xlink="http://www.w3.org/1999/xlink">
    <!-- Generator: Sketch 49.3 (51167) - http://www.bohemiancoding.com/sketch -->
    <title>摄像头-异常</title>
    <desc>Created with Sketch.</desc>
    <defs></defs>
    <g id="Page-1" stroke="none" stroke-width="1" fill="none" fill-rule="evenodd">
        <g id="教务管理-课堂监控-学员监控记录" transform="translate(-711.000000, -1240.000000)" fill="#EF334E" fill-rule="nonzero">
            <g id="设备记录" transform="translate(260.000000, 910.000000)">
                <g id="设备记录一-copy" transform="translate(20.000000, 252.000000)">
                    <g id="设备" transform="translate(18.000000, 59.000000)">
                        <g id="摄像头-异常_export" transform="translate(413.000000, 19.000000)">
                            <g id="摄像头-异常" transform="translate(3.000000, 1.000000)">
                                <path d="M14.2013537,20 L15,20 C15.5522847,20 16,20.4477153 16,21 C16,21.5522847 15.5522847,22 15,22 L3,22 C2.44771525,22 2,21.5522847 2,21 C2,20.4477153 2.44771525,20 3,20 L3.79864627,20 L5.3894089,17.2447183 C2.21873267,15.8517644 0,12.6807771 0,8.98898409 C0,4.00979192 4.03597122,0 9,0 C13.9640288,0 18,4.03182375 18,9.01101591 C18,12.7021547 15.7820536,15.8605648 12.6122767,17.2476378 L14.2013537,20 Z M11.8919526,20 L10.6503004,17.8493952 C10.1151946,17.9483153 9.56357847,18 9,18 C8.43656568,18 7.88508756,17.9480579 7.35011023,17.848684 L6.10804735,20 L11.8919526,20 Z M9,2 C5.15606936,2 2,5.14327917 2,9.01033973 C2,12.8774003 5.15606936,16 9,16 C12.8439306,16 16,12.8567208 16,8.98966027 C16,5.1225997 12.8439306,2 9,2 Z M9,14.0002441 C6.78604651,14.0002441 5,12.1992963 5,10.0002441 C5,7.80119201 6.80465116,6.00024414 9,6.00024414 C11.1953488,6.00024414 13,7.80119201 13,10.0002441 C13,12.1992963 11.2139535,14.0002441 9,14.0002441 Z M9,8.00020926 C7.88888889,8.00020926 7,8.90477135 7,10.0072064 C7,11.1096414 7.88888889,12.0000698 9,12.0000698 C10.1111111,12.0000698 11,11.0955077 11,9.99307262 C11,8.89063757 10.1111111,8.00020926 9,8.00020926 Z M8,4 C8,3.73529412 8.08823529,3.5 8.29411765,3.29411765 C8.47058824,3.08823529 8.73529412,3 9,3 C9.26470588,3 9.52941176,3.11764706 9.70588235,3.29411765 C9.91176471,3.5 10,3.73529412 10,4 C10,4.26470588 9.88235294,4.52941176 9.70588235,4.70588235 C9.52941176,4.91176471 9.26470588,5 9,5 C8.73529412,5 8.47058824,4.88235294 8.29411765,4.70588235 C8.08823529,4.5 8,4.26470588 8,4 Z" id="Combined-Shape"></path>
                            </g>
                        </g>
                    </g>
                </g>
            </g>
        </g>
    </g>
</svg>