<?xml version="1.0" encoding="UTF-8"?>
<svg width="24px" height="24px" viewBox="0 0 24 24" version="1.1" xmlns="http://www.w3.org/2000/svg" xmlns:xlink="http://www.w3.org/1999/xlink">
    <!-- Generator: Sketch 49.3 (51167) - http://www.bohemiancoding.com/sketch -->
    <title>课节-禁用</title>
    <desc>Created with Sketch.</desc>
    <defs></defs>
    <g id="Page-1" stroke="none" stroke-width="1" fill="none" fill-rule="evenodd">
        <g id="iocn-样式" transform="translate(-538.000000, -626.000000)">
            <g id="课节" transform="translate(298.000000, 626.000000)">
                <g id="课节-禁用_export" transform="translate(240.000000, 0.000000)">
                    <g id="课节-禁用">
                        <rect id="Rectangle-33" fill-opacity="0" fill="#D8D8D8" x="0" y="0" width="24" height="24"></rect>
                        <path d="M15,13 L15,12 C15,11.4477153 15.4477153,11 16,11 C16.5522847,11 17,11.4477153 17,12 L17,13 L18,13 C18.5522847,13 19,13.4477153 19,14 C19,14.5522847 18.5522847,15 18,15 L17,15 L17,16 C17,16.5522847 16.5522847,17 16,17 C15.4477153,17 15,16.5522847 15,16 L15,15 L14,15 C13.4477153,15 13,14.5522847 13,14 C13,13.4477153 13.4477153,13 14,13 L15,13 Z M20.822,3 C21.468,3 22,3.532 22,4.178 L22,20.822 C22,21.468 21.468,22 20.822,22 L4.178,22 C3.532,22 3,21.468 3,20.822 L3,4.178 C3,3.532 3.532,3 4.178,3 L20.822,3 Z M19.4191344,20 C19.7266515,20 19.9658314,19.760274 20,19.4520548 L20,5.54794521 C20,5.23972603 19.76082,5 19.453303,5 L13.0313721,5 L13.0313721,9.02697754 C13.0313721,9.33519672 12.7921921,9.57492274 12.484675,9.57492274 L10.0407564,8.72860127 L7.54254665,9.57492274 C7.23502956,9.57492274 6.99584961,9.33519672 6.99584961,9.02697754 L6.99584961,5 L5.54669704,5 C5.23917995,5 5,5.23972603 5,5.54794521 L5,19.4520548 C5,19.760274 5.23917995,20 5.54669704,20 L19.4191344,20 Z M9,5.02270508 L9,4.86116681 L9,7.10833824 L9.76416052,6.68893044 L10.0396027,6.53914195 L10.315045,6.68893044 L11,7.10833824 L11,5.02270508 L9,5.02270508 Z M8,11 L10,11 C10.5522847,11 11,11.4477153 11,12 C11,12.5522847 10.5522847,13 10,13 L8,13 C7.44771525,13 7,12.5522847 7,12 C7,11.4477153 7.44771525,11 8,11 Z M8,15 L10,15 C10.5522847,15 11,15.4477153 11,16 C11,16.5522847 10.5522847,17 10,17 L8,17 C7.44771525,17 7,16.5522847 7,16 C7,15.4477153 7.44771525,15 8,15 Z" id="Combined-Shape" fill="#CCCCCC" fill-rule="nonzero"></path>
                    </g>
                </g>
            </g>
        </g>
    </g>
</svg>