<?xml version="1.0" encoding="UTF-8"?>
<svg width="60px" height="60px" viewBox="0 0 60 60" version="1.1" xmlns="http://www.w3.org/2000/svg" xmlns:xlink="http://www.w3.org/1999/xlink">
    <!-- Generator: Sketch 49.3 (51167) - http://www.bohemiancoding.com/sketch -->
    <title>拼团</title>
    <desc>Created with Sketch.</desc>
    <defs></defs>
    <g id="Page-1" stroke="none" stroke-width="1" fill="none" fill-rule="evenodd">
        <g id="营销活动" transform="translate(-700.000000, -140.000000)">
            <g id="好友打call-copy" transform="translate(680.000000, 120.000000)">
                <g id="拼团_export" transform="translate(20.000000, 20.000000)">
                    <g id="拼团">
                        <rect id="Rectangle-11" fill="#EF334E" x="0" y="0" width="60" height="60" rx="2"></rect>
                        <path d="M41.8636643,23.6820632 L37.318219,23.6820632 L37.318219,19.1364195 C37.318219,18.5091388 36.8091365,18 36.1818492,18 C35.5545619,18 35.0454794,18.5091047 35.0454794,19.1364195 L35.0454794,23.6820632 L19.1363698,23.6820632 C18.5091166,23.6820632 18,24.1911679 18,24.8184827 C18,25.4457974 18.5090825,25.9549021 19.1363698,25.9549021 L33.4386099,25.9549021 L19.7045036,39.6884824 C19.2601694,40.1339277 19.2601694,40.8510342 19.7045036,41.2953879 C20.1488378,41.7408332 20.8670047,41.7408332 21.3113389,41.2953879 L35.0454452,27.5618417 L35.0454452,41.8635805 C35.0454452,42.491987 35.5545277,43 36.1818151,43 C36.8091024,43 37.3181849,42.4920211 37.3181849,41.8635805 L37.3181849,25.9549703 L41.8636302,25.9549703 C42.4908834,25.9549703 43,25.4458656 43,24.8185509 C43.0000341,24.1912703 42.4909175,23.6820973 41.8636643,23.6820973 L41.8636643,23.6820632 Z M42.4666735,13 L17.5333265,13 C15.0297781,13 13,15.0298122 13,17.5333265 L13,42.4655167 C13,44.9702219 15.0298122,47 17.5333265,47 L42.4666735,47 C44.9702219,47 47,44.9701878 47,42.4655167 L47,17.5333265 C47,15.0297781 44.9701878,13 42.4666735,13 Z M44.9999654,42.4333496 C44.9999654,43.708366 43.7035163,45 42.4284668,45 L17.6552734,45 C16.3802585,45 15,43.708366 15,42.4333496 L15,17.638916 C15,16.3638996 16.3802239,15 17.6552734,15 L42.4285014,15 C43.7035163,15 45,16.363865 45,17.638916 L44.9999654,42.4333496 Z" id="Shape" fill="#FFFFFF" fill-rule="nonzero"></path>
                    </g>
                </g>
            </g>
        </g>
    </g>
</svg>