<?xml version="1.0" encoding="UTF-8"?>
<svg width="24px" height="24px" viewBox="0 0 24 24" version="1.1" xmlns="http://www.w3.org/2000/svg" xmlns:xlink="http://www.w3.org/1999/xlink">
    <!-- Generator: Sketch 49.3 (51167) - http://www.bohemiancoding.com/sketch -->
    <title>统计-点击</title>
    <desc>Created with Sketch.</desc>
    <defs></defs>
    <g id="Page-1" stroke="none" stroke-width="1" fill="none" fill-rule="evenodd">
        <g id="iocn-样式" transform="translate(-458.000000, -549.000000)">
            <g id="统计" transform="translate(298.000000, 549.000000)">
                <g id="统计-点击_export" transform="translate(160.000000, 0.000000)">
                    <g id="统计-点击">
                        <rect id="Rectangle-34" fill-opacity="0" fill="#D8D8D8" x="0" y="0" width="24" height="24"></rect>
                        <path d="M20.6251088,8.9948568 L17.9809272,12.2601491 C17.9934782,12.3382478 18,12.4183623 18,12.5 C18,13.3284271 17.3284271,14 16.5,14 C15.7558669,14 15.1382917,13.4581417 15.0203171,12.747468 L11.9809538,10.9212343 C11.8470316,10.9665387 11.7046293,10.9934453 11.5567548,10.9989461 L8.98542923,14.2900928 C8.99503398,14.3586838 9,14.4287619 9,14.5 C9,15.3284271 8.32842712,16 7.5,16 C6.67157288,16 6,15.3284271 6,14.5 C6,13.6866922 6.6472833,13.0245655 7.45480189,13.0006679 L10.0163246,9.72206845 C10.0055712,9.64960612 10,9.57545366 10,9.5 C10,8.67157288 10.6715729,8 11.5,8 C12.2184889,8 12.8189926,8.50515504 12.9657214,9.17967555 L16.0897618,11.0567884 C16.1975328,11.0262136 16.3102429,11.0073847 16.4264209,11.0017731 L19.0278656,7.7892564 C19.0095809,7.69566006 19,7.5989489 19,7.5 C19,6.67157288 19.6715729,6 20.5,6 C21.3284271,6 22,6.67157288 22,7.5 C22,8.28629593 21.3949983,8.93128615 20.6251088,8.9948568 Z M5,19 L21,19 C21.5522847,19 22,19.4477153 22,20 C22,20.5522847 21.5522847,21 21,21 L4,21 C3.44771525,21 3,20.5522847 3,20 L3,4 C3,3.44771525 3.44771525,3 4,3 C4.55228475,3 5,3.44771525 5,4 L5,19 Z" id="Combined-Shape" fill="#EF334E"></path>
                    </g>
                </g>
            </g>
        </g>
    </g>
</svg>