<?xml version="1.0" encoding="UTF-8"?>
<svg width="20px" height="20px" viewBox="0 0 20 20" version="1.1" xmlns="http://www.w3.org/2000/svg" xmlns:xlink="http://www.w3.org/1999/xlink">
    <!-- Generator: Sketch 49.3 (51167) - http://www.bohemiancoding.com/sketch -->
    <title>分销</title>
    <desc>Created with Sketch.</desc>
    <defs></defs>
    <g id="Page-1" stroke="none" stroke-width="1" fill="none" fill-rule="evenodd">
        <g id="课程管理-单次课" transform="translate(-266.000000, -229.000000)">
            <g id="分销_export" transform="translate(266.000000, 229.000000)">
                <g id="分销">
                    <g>
                        <rect id="Rectangle-34" fill-opacity="0" fill="#D8D8D8" x="0" y="0" width="20" height="20"></rect>
                        <path d="M16.6361741,13 L17,13 C17.5522847,13 18,13.4477153 18,14 L18,16 C18,16.5522847 17.5522847,17 17,17 L15,17 C14.4477153,17 14,16.5522847 14,16 L14,14 C14,13.4477153 14.4477153,13 15,13 L15.4794028,13 C14.4094236,11.3287496 12.5956186,10.1794885 10.5050049,10.0192338 L10.5050049,13 L11,13 C11.5522847,13 12,13.4477153 12,14 L12,16 C12,16.5522847 11.5522847,17 11,17 L9,17 C8.44771525,17 8,16.5522847 8,16 L8,14 C8,13.4477153 8.44771525,13 9,13 L9.50500488,13 L9.50500488,10.0186581 C7.41120075,10.176716 5.59430882,11.3267332 4.52303862,13 L5,13 C5.55228475,13 6,13.4477153 6,14 L6,16 C6,16.5522847 5.55228475,17 5,17 L3,17 C2.44771525,17 2,16.5522847 2,16 L2,14 C2,13.4477153 2.44771525,13 3,13 L3.3662673,13 C4.55091108,10.7589138 6.83775059,9.19037151 9.50500488,9.01615415 L9.50500488,7 L9,7 C8.44771525,7 8,6.55228475 8,6 L8,4 C8,3.44771525 8.44771525,3 9,3 L11,3 C11.5522847,3 12,3.44771525 12,4 L12,6 C12,6.55228475 11.5522847,7 11,7 L10.5050049,7 L10.5050049,9.01665231 C13.1690164,9.19333968 15.452651,10.7610338 16.6361741,13 Z" id="分销客程" fill="#EF334E"></path>
                    </g>
                </g>
            </g>
        </g>
    </g>
</svg>