<?xml version="1.0" encoding="UTF-8"?>
<svg width="24px" height="24px" viewBox="0 0 24 24" version="1.1" xmlns="http://www.w3.org/2000/svg" xmlns:xlink="http://www.w3.org/1999/xlink">
    <!-- Generator: Sketch 49.3 (51167) - http://www.bohemiancoding.com/sketch -->
    <title>下载-禁用</title>
    <desc>Created with Sketch.</desc>
    <defs></defs>
    <g id="Page-1" stroke="none" stroke-width="1" fill="none" fill-rule="evenodd">
        <g id="iocn-样式" transform="translate(-538.000000, -659.000000)">
            <g id="下载" transform="translate(298.000000, 659.000000)">
                <g id="下载-禁用_export" transform="translate(240.000000, 0.000000)">
                    <g id="下载-禁用">
                        <rect id="Rectangle-33" fill="#D8D8D8" opacity="0" x="0" y="0" width="24" height="24"></rect>
                        <path d="M13,12.8284271 L16.5355339,9.29289322 C16.9260582,8.90236893 17.5592232,8.90236893 17.9497475,9.29289322 C18.3402718,9.68341751 18.3402718,10.3165825 17.9497475,10.7071068 L12.7071068,15.9497475 C12.5118446,16.1450096 12.2559223,16.2426407 12,16.2426407 C11.7440777,16.2426407 11.4881554,16.1450096 11.2928932,15.9497475 L6.05025253,10.7071068 C5.65972824,10.3165825 5.65972824,9.68341751 6.05025253,9.29289322 C6.44077682,8.90236893 7.0739418,8.90236893 7.46446609,9.29289322 L11,12.8284271 L11,4 C11,3.44771525 11.4477153,3 12,3 C12.5522847,3 13,3.44771525 13,4 L13,12.8284271 Z M21,20 C21,20.5522847 20.5522847,21 20,21 L4,21 C3.44771525,21 3,20.5522847 3,20 L3,14 C3,13.4477153 3.44771525,13 4,13 C4.55228475,13 5,13.4477153 5,14 L5,19 L19,19 L19,14 C19,13.4477153 19.4477153,13 20,13 C20.5522847,13 21,13.4477153 21,14 L21,20 Z" id="Combined-Shape" fill="#CCCCCC"></path>
                    </g>
                </g>
            </g>
        </g>
    </g>
</svg>