<?xml version="1.0" encoding="UTF-8"?>
<svg width="24px" height="24px" viewBox="0 0 24 24" version="1.1" xmlns="http://www.w3.org/2000/svg" xmlns:xlink="http://www.w3.org/1999/xlink">
    <!-- Generator: Sketch 49.3 (51167) - http://www.bohemiancoding.com/sketch -->
    <title>编辑-滑过</title>
    <desc>Created with Sketch.</desc>
    <defs></defs>
    <g id="Page-1" stroke="none" stroke-width="1" fill="none" fill-rule="evenodd">
        <g id="iocn-样式" transform="translate(-379.000000, -589.000000)">
            <g id="编辑" transform="translate(299.000000, 589.000000)">
                <g id="编辑-滑过_export" transform="translate(80.000000, 0.000000)">
                    <g id="编辑">
                        <rect id="Rectangle-35" fill-opacity="0" fill="#D8D8D8" x="0" y="0" width="24" height="24"></rect>
                        <path d="M16.1421356,4.82842712 L17.263456,3.70710678 C17.6539803,3.31658249 18.2871452,3.31658249 18.6776695,3.70710678 L20.0918831,5.12132034 C20.4824074,5.51184464 20.4824074,6.14500961 20.0918831,6.53553391 L12.2690308,14.3583862 L9.4448883,11.5342438 L8.82842712,12.1421356 L11.6568542,14.9705627 L7.45892564,16.4294884 L8.82842712,12.1421356 L15.5787872,5.39177551 L18.4067993,8.2197876 L18.9705627,7.65685425 L16.1421356,4.82842712 Z M12.0000002,6 L6,6 C5.44771525,6 5,6.44771525 5,7 L5,18 C5,18.5522847 5.44771525,19 6,19 L17,19 C17.5522847,19 18,18.5522847 18,18 L18,11.9999998 C18,11.4477153 18.4477153,11 19,11 C19.5522847,11 20,11.4477153 20,12 L20,19 C20,20.1045695 19.1045695,21 18,21 L5,21 C3.8954305,21 3,20.1045695 3,19 L3,6 C3,4.8954305 3.8954305,4 5,4 L12,4 C12.5522847,4 13,4.44771525 13,5 C13,5.55228475 12.5522847,6 12,6 Z" fill="#FD4D63"></path>
                    </g>
                </g>
            </g>
        </g>
    </g>
</svg>