<?xml version="1.0" encoding="UTF-8"?>
<svg width="24px" height="24px" viewBox="0 0 24 24" version="1.1" xmlns="http://www.w3.org/2000/svg" xmlns:xlink="http://www.w3.org/1999/xlink">
    <!-- Generator: Sketch 49.3 (51167) - http://www.bohemiancoding.com/sketch -->
    <title>耳机</title>
    <desc>Created with Sketch.</desc>
    <defs></defs>
    <g id="Page-1" stroke="none" stroke-width="1" fill="none" fill-rule="evenodd">
        <g id="教务管理-课堂监控-学员监控记录" transform="translate(-1107.000000, -988.000000)" fill="#999999" fill-rule="nonzero">
            <g id="设备记录" transform="translate(260.000000, 910.000000)">
                <g id="设备记录一" transform="translate(20.000000, 32.000000)">
                    <g id="设备" transform="translate(18.000000, 28.000000)">
                        <g id="耳机_export" transform="translate(809.000000, 18.000000)">
                            <g id="耳机" transform="translate(2.000000, 2.000000)">
                                <path d="M18.9937744,16.0479736 C18.4483199,16.0479736 18.0014648,15.6444444 18.0014648,15.1111111 L18.0014648,9.42222222 C18.0014648,5.15555555 14.5454546,2.01635742 10,2.01635742 C5.45454545,2.01635742 2.04638672,5.15555555 2.04638672,9.42222222 L2.04638672,15.1111111 C2.04638672,15.6444444 1.54032758,16.0544434 0.994873047,16.0544434 C0.449418516,16.0544434 0,15.6444444 0,15.1111111 L0,9.42222222 C0,4.26666667 4.54545455,0 10,0 C15.4545454,0 20,4.26666667 20,9.42222222 L20,15.1111111 C20,15.6444444 19.539229,16.0479736 18.9937744,16.0479736 Z" id="Shape"></path>
                                <path d="M3,13.75 C3,12.7 3.75000001,12 4.875,12 L6.99267578,12 L6.99267578,19 L4.875,19 C3.75000001,19 3,18.3 3,17.25 L3,13.75 Z M13.0209961,12 L15.125,12 C16.25,12 17,12.7 17,13.75 L17,17.25 C17,18.3 16.25,19 15.125,19 L13.0209961,19 L13.0209961,12 Z" id="Shape"></path>
                            </g>
                        </g>
                    </g>
                </g>
            </g>
        </g>
    </g>
</svg>