<?xml version="1.0" encoding="UTF-8"?>
<svg width="20px" height="20px" viewBox="0 0 20 20" version="1.1" xmlns="http://www.w3.org/2000/svg" xmlns:xlink="http://www.w3.org/1999/xlink">
    <!-- Generator: Sketch 49.3 (51167) - http://www.bohemiancoding.com/sketch -->
    <title>加密</title>
    <desc>Created with Sketch.</desc>
    <defs></defs>
    <g id="Page-1" stroke="none" stroke-width="1" fill="none" fill-rule="evenodd">
        <g id="课程管理-单次课" transform="translate(-266.000000, -290.000000)">
            <g id="加密_export" transform="translate(266.000000, 290.000000)">
                <g id="加密">
                    <g>
                        <rect id="Rectangle-35" fill-opacity="0" fill="#D8D8D8" x="0" y="0" width="20" height="20"></rect>
                        <path d="M13.494751,9 L14.5,9 C15.3284271,9 16,9.67157288 16,10.5 L16,15.5 C16,16.3284271 15.3284271,17 14.5,17 L4.5,17 C3.67157288,17 3,16.3284271 3,15.5 L3,10.5 C3,9.67157288 3.67157288,9 4.5,9 L5.49475098,9 L5.49475098,7 C5.49475098,4.790861 7.28561198,3 9.49475098,3 C11.70389,3 13.494751,4.790861 13.494751,7 L13.494751,9 Z M12.494751,9 L12.494751,7 C12.494751,5.34314575 11.1516052,4 9.49475098,4 C7.83789673,4 6.49475098,5.34314575 6.49475098,7 L6.49475098,9 L12.494751,9 Z M4.5,10 C4.22385763,10 4,10.2238576 4,10.5 L4,15.5 C4,15.7761424 4.22385763,16 4.5,16 L14.5,16 C14.7761424,16 15,15.7761424 15,15.5 L15,10.5 C15,10.2238576 14.7761424,10 14.5,10 L4.5,10 Z M9.52282715,11 C9.79896952,11 10.0228271,11.2238576 10.0228271,11.5 L10.0228271,14.5 C10.0228271,14.7761424 9.79896952,15 9.52282715,15 C9.24668477,15 9.02282715,14.7761424 9.02282715,14.5 L9.02282715,11.5 C9.02282715,11.2238576 9.24668477,11 9.52282715,11 Z" id="Combined-Shape" fill="#EF334E"></path>
                    </g>
                </g>
            </g>
        </g>
    </g>
</svg>