<?xml version="1.0" encoding="UTF-8"?>
<svg width="24px" height="24px" viewBox="0 0 24 24" version="1.1" xmlns="http://www.w3.org/2000/svg" xmlns:xlink="http://www.w3.org/1999/xlink">
    <!-- Generator: Sketch 49.3 (51167) - http://www.bohemiancoding.com/sketch -->
    <title>麦克风-异常</title>
    <desc>Created with Sketch.</desc>
    <defs></defs>
    <g id="Page-1" stroke="none" stroke-width="1" fill="none" fill-rule="evenodd">
        <g id="教务管理-课堂监控-学员监控记录" transform="translate(-1502.000000, -1240.000000)" fill="#EF334E" fill-rule="nonzero">
            <g id="设备记录" transform="translate(260.000000, 910.000000)">
                <g id="设备记录一-copy" transform="translate(20.000000, 252.000000)">
                    <g id="设备" transform="translate(18.000000, 59.000000)">
                        <g id="麦克风-异常_export" transform="translate(1204.000000, 19.000000)">
                            <g id="麦克风-异常" transform="translate(4.000000, 1.000000)">
                                <path d="M9.01107788,20 L12,20 C12.5522847,20 13,20.4477153 13,21 C13,21.5522847 12.5522847,22 12,22 L4,22 C3.44771525,22 3,21.5522847 3,21 C3,20.4477153 3.44771525,20 4,20 L7.00326538,20 L7.00326538,18.0016379 C4.99152724,17.7830559 3.41309255,16.933811 2.04785553,15.4431532 C0.682618509,13.9524954 0,12.2074224 0,10.1900178 L0,8.44494483 C0,8.20486292 0.0939051957,7.99703082 0.267268623,7.82503185 C0.44063205,7.65303288 0.784380728,7.52874756 1.02636719,7.52874756 C1.26835365,7.52874756 1.56827908,7.65303288 1.74164251,7.82503185 C1.91500594,7.99703082 2.00891113,8.20486292 2.00891113,8.44494483 L2.00891113,10.1900178 C2.00891113,11.8777577 2.53193936,13.1212713 3.7454834,14.3145142 C4.95902744,15.507757 6.29525961,16.0188599 8.01805868,16.0188599 C9.74085775,16.0188599 11.1324216,15.4546465 12.3604126,14.2470703 C13.5739566,13.0538274 14.0197144,11.8777577 14.0197144,10.1900178 L14.0197144,8.44494483 C14.0197144,8.20486292 14.1136196,7.99703082 14.286983,7.82503185 C14.4603464,7.65303288 14.7655209,7.55352783 15.0075073,7.55352783 C15.2494938,7.55352783 15.5954853,7.65303288 15.7688488,7.82503185 C15.9205418,7.98269759 16,8.18694637 16,8.43061157 L16,10.1756845 C16,12.1823392 15.3173815,13.9381621 13.9521445,15.4288199 C12.5869075,16.9194777 11.022816,17.7687227 9.01107788,17.9873047 L9.01107788,20 Z M12,4.16571819 L12,9.83428181 C12,10.9815616 11.6042174,11.9649442 10.8256286,12.7741862 C10.0470397,13.5834282 9.1030008,14 7.99999999,14 C6.9002433,14 5.96593673,13.5970863 5.17437145,12.7741862 C4.39578264,11.9547006 4,10.9815616 4,9.83428181 L4,4.16571819 C4,3.01843843 4.39578264,2.03505578 5.17437145,1.22581378 C5.95296026,0.406328237 6.8969992,0 7.99999999,0 C9.09975668,0 10.0340632,0.402913734 10.8256286,1.22581378 C11.6171939,2.04871384 12,3.01502388 12,4.16571819 Z" id="Combined-Shape"></path>
                            </g>
                        </g>
                    </g>
                </g>
            </g>
        </g>
    </g>
</svg>