<?xml version="1.0" encoding="UTF-8"?>
<svg width="240px" height="240px" viewBox="0 0 240 240" version="1.1" xmlns="http://www.w3.org/2000/svg" xmlns:xlink="http://www.w3.org/1999/xlink">
    <!-- Generator: Sketch 49.3 (51167) - http://www.bohemiancoding.com/sketch -->
    <title>暂无课程-缺省</title>
    <desc>Created with Sketch.</desc>
    <defs>
        <path d="M104.376646,5.62843575 C103.326835,6.01639665 102.275823,6.43558659 101.183924,6.68662011 C77.1417089,12.2417877 53.7644937,5.26449721 45.4682278,2.29173184 C42.8118354,1.34044693 39.9991139,0.959692737 37.1863924,1.1722905 C28.4981013,1.82569832 10.9122785,5.32935754 1.85841772,22.4512849 C1.85841772,22.4512849 -8.21518987,40.901648 19.5644937,55.5985196 C44.7683544,68.9321229 42.2755063,97.2905028 82.7118354,83.0788827 C82.7118354,83.0788827 109.566772,76.1292179 117.199241,76.4331006 C117.199241,76.4331006 130.575,72.8309497 147.163924,78.1182682 C162.001962,82.847067 177.947532,78.9986872 185.866203,66.5791341 C191.076772,58.4055307 187.469177,43.6197765 174.680253,37.1589665 C170.876646,35.2359777 160.97019,37.4472346 158.402785,20.1703631 C158.050443,17.8017598 157.570633,15.4427654 156.490759,13.3047765 C153.726139,7.83248603 144.800949,0.684636872 129.134367,0.684636872 C122.213797,0.684636872 113.978861,2.07913408 104.376646,5.62843575 Z" id="path-1"></path>
        <linearGradient x1="58.6642307%" y1="0%" x2="50%" y2="100%" id="linearGradient-3">
            <stop stop-color="#F8F8F8" offset="0%"></stop>
            <stop stop-color="#eeeeee" offset="100%"></stop>
        </linearGradient>
    </defs>
    <g id="Page-1" stroke="none" stroke-width="1" fill="none" fill-rule="evenodd">
        <g id="课程管理-单次课-缺省" transform="translate(-960.000000, -390.000000)">
            <g id="未加入课程-缺省" transform="translate(960.000000, 390.000000)">
                <g transform="translate(26.000000, 13.000000)">
                    <g id="Group-10" transform="translate(0.000000, 126.744302)">
                        <g id="Group-6">
                            <mask id="mask-2" fill="white">
                                <use xlink:href="#path-1"></use>
                            </mask>
                            <g id="Clip-5"></g>
                            <polygon id="Fill-4" fill="url(#linearGradient-3)" mask="url(#mask-2)" points="182.157114 -5.95730168 191.077494 44.5713017 191.077494 75.0808827 64.9704051 97.290743 -0.702253165 97.290743 -8.21567089 54.7363575 -8.21567089 8.90051955 76.1455316 -5.95730168"></polygon>
                        </g>
                    </g>
                    <g id="Group-167" transform="translate(37.481013, 0.626983)">
                        <path d="M18.8888861,149.775006 L15.8404684,151.974251 C15.8404684,151.974251 13.2261646,153.893637 15.8404684,155.16562 L66.7989494,186.723777 L90.6800253,174.662156 L101.316418,168.983274 C101.316418,168.983274 102.73781,167.919084 100.308696,166.320397 L73.4417342,148.229168 L49.0507848,145.918218 L18.8888861,149.775006 Z" id="Fill-11" fill="#E7E7E7"></path>
                        <path d="M61.854019,190.191883 C61.854019,190.191883 61.815538,190.87652 62.0632595,191.095123 L65.4652215,193.370039 C65.4652215,193.370039 66.2961709,193.96219 67.4530063,193.370039 L92.3610443,178.111045 C92.3610443,178.111045 92.919019,177.779536 92.6737025,176.680514 L84.520538,181.724006 L68.7589557,191.491492 L65.1116772,192.105263 L61.854019,190.191883 Z" id="Fill-13" fill="#ABACAC"></path>
                        <path d="M61.9650127,189.121927 C61.9650127,189.121927 61.789443,189.706872 61.8507722,190.225754 L65.7108987,192.879022 C65.7108987,192.879022 66.5129873,193.370279 67.6710253,192.676034 L92.3878608,177.562374 C92.3878608,177.562374 92.9458354,177.186425 92.5021013,175.903631 L80.8736203,181.926034 L67.2080506,189.150754 L61.9650127,189.121927 Z" id="Fill-15" fill="#C8C8C9"></path>
                        <path d="M76.0982468,130.733693 L76.2185,179.848581 L62.4435,188.456989 C62.4435,188.456989 61.4634367,188.948246 62.3076139,189.613665 L65.7648924,191.809307 C65.7648924,191.809307 66.6908418,192.474726 67.725019,191.809307 L91.8562215,176.792939 C91.8562215,176.792939 93.1140696,176.087883 92.1700823,175.548581 L87.978057,173.05386 C87.978057,173.05386 87.4609684,172.735564 86.7803354,173.372156 L77.7421076,178.80481 L78.2868544,116.41157 L76.9532468,116.122101 L75.7555253,130.13914 L76.0982468,130.733693 Z" id="Fill-17" fill="#EAEAEA"></path>
                        <polygon id="Fill-19" fill="#EAEAEA" points="80.0557785 107.33917 78.2171076 105.950679 77.851538 107.33917 77.851538 108.059841 78.3409684 108.059841"></polygon>
                        <path d="M25.7488481,0.935189944 C25.7488481,0.935189944 27.6368228,-0.157826816 29.8867595,1.46007821 L81.4994177,33.1335419 C81.4994177,33.1335419 84.8388481,34.752648 85.1286582,38.2971453 L85.1286582,39.4526201 L71.4811266,177.398542 C71.4811266,177.398542 71.5641013,179.561754 69.2901139,179.84762 L67.7063797,178.400274 L81.4272658,39.9150503 L26.257519,2.53868156 L25.7488481,0.935189944 Z" id="Fill-21" fill="#ABACAC"></path>
                        <path d="M17.4435633,68.9573464 L15.6950823,70.2401397 C15.6950823,70.2401397 15.3319177,70.4335196 15.3679937,71.3571788 L15.5916646,93.8601117 L19.4698291,85.6528771 L17.4435633,68.9573464 Z" id="Fill-23" fill="#EAEAEA"></path>
                        <path d="M80.3014557,107.770732 C80.3014557,107.770732 80.4373418,106.903525 78.9943038,107.540117 C78.9943038,107.540117 77.7965823,107.986933 77.8518987,108.637939 L77.499557,116.571318 L77.4153797,183.313804 L80.1379114,181.694698 L80.3014557,107.770732 Z" id="Fill-25" fill="#ABACAC"></path>
                        <path d="M17.2988987,70.4216285 L16.6747848,71.0498128 C16.6747848,71.0498128 16.3549114,71.2996453 16.3849747,72.5139749 L16.5208608,78.3009581 L19.0702278,74.3612933 L17.2988987,70.4216285 Z" id="Fill-27" fill="#ABACAC"></path>
                        <path d="M0.731620253,152.737922 C0.731620253,152.737922 0.667886076,153.296441 0.887949367,153.491022 L4.47991139,155.974933 C4.47991139,155.974933 5.40105063,156.610324 6.62041772,155.974933 L17.5093418,149.302726 L17.2916835,148.76943 L16.4210506,149.115352 L6.36668354,155.319123 L0.731620253,152.737922 Z" id="Fill-29" fill="#ABACAC"></path>
                        <path d="M0.801487342,151.658958 C0.801487342,151.658958 0.657183544,152.289545 0.725727848,152.830047 L4.58825949,155.435271 C4.58825949,155.435271 5.34585443,156.075466 6.62053797,155.435271 L17.509462,148.76907 L16.2756646,148.229768 L9.12060127,151.697394 L4.80591772,153.161556 L0.801487342,151.658958 Z" id="Fill-31" fill="#C8C8C9"></path>
                        <path d="M10.9171835,144.911321 L1.14060127,151.043025 C1.14060127,151.043025 0.378196203,151.582327 1.14060127,152.160064 C1.90300633,152.737802 4.87927215,154.433779 4.87927215,154.433779 C4.87927215,154.433779 5.45889241,154.896209 6.54838608,154.433779 L16.710981,148.345316 L10.9171835,144.911321 Z" id="Fill-33" fill="#EAEAEA"></path>
                        <path d="M26.619962,0.959332402 C26.619962,0.959332402 24.0068608,0.496902235 23.8974304,3.61860615 L10.2871772,141.409584 C10.2871772,141.409584 9.85186076,144.530087 11.702557,145.686763 L67.0178101,180.134807 C67.0178101,180.134807 69.1955949,180.744975 69.6309114,179.283215 L83.7859114,39.5692486 C83.7859114,39.5692486 84.5483165,36.3322374 80.5198354,33.9047793 L26.619962,0.959332402 Z" id="Fill-35" fill="#EAEAEA"></path>
                        <path d="M26.6684241,1.66703073 C26.6684241,1.66703073 24.7804494,0.895913408 24.6361456,4.44161173 L10.9886139,140.691556 C10.9886139,140.691556 10.6988038,143.466137 12.5855759,144.853427 L66.8450063,178.841444 C66.8450063,178.841444 69.0336139,180.261165 69.2657025,175.903511 L82.8543101,39.1202709 C82.8543101,39.1202709 83.5806392,36.6543771 80.6765253,34.6509134 L26.6684241,1.66703073 Z" id="Fill-37" fill="#F1F1F2"></path>
                        <path d="M79.4007595,109.657087 C79.248038,110.171165 78.9041139,110.544712 78.6167089,110.544712 C78.3293038,110.544712 78.1549367,110.171165 78.2379114,109.657087 C78.3317089,109.072142 78.7117089,108.536444 79.0748734,108.536444 C79.438038,108.536444 79.5739241,109.072142 79.4007595,109.657087" id="Fill-39" fill="#A3A3A4"></path>
                        <path d="M71.8780823,51.8140391 C71.8780823,51.8140391 73.0601709,51.1282011 73.9861203,51.5329777 L76.6533354,52.9202682 C76.6533354,52.9202682 77.9063734,53.6709665 77.6887152,54.9429497 L77.3075127,61.9370559 C77.3075127,61.9370559 77.0116899,63.5309385 74.8423228,63.3579777 L75.9462468,55.3477263 L74.4755506,53.0932291 L71.8780823,51.8140391 Z" id="Fill-41" fill="#ABACAC"></path>
                        <path d="M70.6104937,52.3852905 C70.6104937,52.3852905 71.8647342,51.7054581 72.1341013,51.7823296 C72.2182785,51.7823296 75.5468861,53.4783073 75.5468861,53.4783073 C75.5468861,53.4783073 76.6135316,54.1052905 76.417519,55.5598436 L76.0543544,62.1876089 C76.0543544,62.1876089 75.7958101,63.5184469 74.1230886,63.5184469 L73.5158101,57.6509888 L74.1675823,54.9424693 L71.4089747,53.5563799 L70.6104937,52.3852905 Z" id="Fill-43" fill="#C8C8C9"></path>
                        <path d="M71.4816076,52.3420503 L74.4217975,53.7293408 C74.4217975,53.7293408 75.4018608,54.0764637 75.1288861,55.5790615 L74.6935696,62.7461285 C74.6935696,62.7461285 74.4831266,63.959257 73.3094557,63.4391732 L70.1203418,62.1671899 C70.1203418,62.1671899 69.3038228,61.7059609 69.3038228,60.7811006 L69.8485696,53.4975251 C69.8485696,53.4975251 70.0662278,51.9949274 71.4816076,52.3420503" id="Fill-45" fill="#EAEAEA"></path>
                        <path d="M25.1680253,55.2477933 C25.859481,55.6537709 26.5545443,56.0621508 27.2520127,56.4717318 C27.4071392,56.5630168 27.4492278,56.1258101 27.2928987,56.0345251 C26.5942278,55.6249441 25.8991646,55.2177654 25.2053038,54.8105866 C25.0513797,54.7205028 25.0141013,55.1577095 25.1680253,55.2477933" id="Fill-47" fill="#ABACAC"></path>
                        <path d="M31.9795253,57.1776285 C32.5471203,57.5151425 33.1171203,57.8538575 33.6883228,58.1925726 C33.849462,58.288662 33.9023734,57.8442486 33.7400316,57.7481592 C33.1676266,57.4094441 32.5976266,57.0707291 32.0288291,56.7332151 C31.8688924,56.6383268 31.8195886,57.0827402 31.9795253,57.1776285" id="Fill-49" fill="#ABACAC"></path>
                        <path d="M31.3070696,60.4737346 C32.1043481,60.9049358 32.9052342,61.337338 33.7097278,61.7721425 C33.8708671,61.859824 33.9237785,61.4250196 33.7614367,61.337338 C32.9557405,60.9037346 32.1536519,60.4713324 31.3551709,60.0401313 C31.1952342,59.954852 31.1483354,60.3872542 31.3070696,60.4737346" id="Fill-51" fill="#ABACAC"></path>
                        <path d="M38.6793101,60.4435866 C39.4477278,60.9552626 40.2185506,61.4693408 40.992981,61.9858212 C41.1589304,62.096324 41.2238671,61.6483073 41.0579177,61.5378045 C40.2822848,61.0225251 39.5102595,60.5084469 38.7406392,59.9955698 C38.5758924,59.8862682 38.5157658,60.3342849 38.6793101,60.4435866" id="Fill-53" fill="#ABACAC"></path>
                        <path d="M38.7138228,62.5534693 C39.2393291,62.8897821 39.7720506,63.185257 40.3119873,63.441095 C40.4803418,63.5215698 40.5452785,63.0795587 40.3757215,62.9990838 C39.8345823,62.7432458 39.3006582,62.4477709 38.7751519,62.1114581 C38.6104051,62.0069609 38.5502785,62.4489721 38.7138228,62.5534693" id="Fill-55" fill="#ABACAC"></path>
                        <path d="M38.0254937,64.5653408 C38.7662532,64.9641117 39.5046076,65.3977151 40.240557,65.8685531 C40.4053038,65.9730503 40.4678354,65.5382458 40.3042911,65.4337486 C39.5671392,64.9629106 38.8275823,64.5293073 38.0844177,64.1305363 C37.9196709,64.0428547 37.8607468,64.4764581 38.0254937,64.5653408" id="Fill-57" fill="#ABACAC"></path>
                        <path d="M44.8760759,64.1234497 C44.6331646,65.0146788 44.4696203,65.9323324 44.3926582,66.9040363 C44.3698101,67.1923045 44.6343671,67.3388408 44.6584177,67.0469693 C44.7329747,66.1185056 44.8820886,65.232081 45.1153797,64.3804888 C45.1887342,64.1126397 44.9494304,63.8531983 44.8760759,64.1234497" id="Fill-59" fill="#ABACAC"></path>
                        <path d="M45.5214747,64.5814358 C46.0301456,64.8336704 46.5388165,65.0871061 47.0498924,65.341743 C47.3998291,65.515905 47.7233101,65.5699553 47.7052722,66.3939218 C47.6968544,66.7758771 47.5886266,67.3716313 47.4996392,67.7103464 C47.3625506,68.2292291 47.2182468,68.1619665 46.9031835,68.0250391 C46.6446392,67.910933 46.3860949,67.7980279 46.1275506,67.6851229 C45.5840063,67.4473017 45.0428671,67.2106816 44.5029304,66.9752626 C44.3297658,66.8995922 44.2588165,67.3367989 44.431981,67.4124693 C45.2268544,67.7619944 46.0253354,68.1115196 46.8286266,68.464648 C47.0041962,68.5415196 47.376981,68.8466034 47.5573608,68.6748436 C47.756981,68.4862682 47.7894494,67.7499832 47.8435633,67.4208771 C47.9529937,66.7530559 48.2343861,65.7561285 47.7605886,65.2648715 C47.5008418,64.993419 47.1581203,64.9081397 46.8695127,64.7652067 C46.4438165,64.5538101 46.0193228,64.3436145 45.5948291,64.133419 C45.420462,64.0469385 45.3471076,64.4949553 45.5214747,64.5814358" id="Fill-61" fill="#ABACAC"></path>
                        <path d="M46.0308671,64.8500056 C45.8396646,65.1274637 45.648462,65.4049218 45.4572595,65.6799777 C45.324981,65.8721564 45.5209937,66.2192793 45.6532722,66.0283017 C45.8432722,65.7532458 46.0344747,65.4769888 46.2268797,65.1995307 C46.3603608,65.0061508 46.1643481,64.6566257 46.0308671,64.8500056" id="Fill-63" fill="#ABACAC"></path>
                        <path d="M46.8363228,65.5086983 C46.6860063,65.8077765 46.6018291,66.1416872 46.5777785,66.5356536 C46.5717658,66.6365475 46.6258797,66.7362402 46.6811962,66.7674693 C46.8122722,66.8431397 46.9445506,66.9176089 47.0756266,66.9932793 C47.2487911,67.0917709 47.3257532,66.6473575 47.1513861,66.5488659 C47.0203101,66.4731955 46.8880316,66.3987263 46.7557532,66.324257 C46.7906266,66.4011285 46.8242975,66.4792011 46.8579684,66.5560726 C46.8736013,66.3002346 46.9337278,66.0540056 47.0323354,65.8594246 C47.1453734,65.6336145 46.9505633,65.2816872 46.8363228,65.5086983" id="Fill-65" fill="#ABACAC"></path>
                        <path d="M52.2142848,67.3546955 C53.2568797,68.076567 54.3211203,68.7251704 55.4082089,69.3017067 C55.5921962,69.3977961 55.6847911,68.9449749 55.5008038,68.8488855 C54.4113101,68.2735503 53.3446646,67.6237458 52.2996646,66.9018743 C52.1252975,66.7817626 52.0411203,67.2345838 52.2142848,67.3546955" id="Fill-67" fill="#ABACAC"></path>
                        <path d="M52.1859051,69.651352 C52.6572975,69.9240056 53.1286899,70.1978603 53.6012848,70.4729162 C53.7083101,70.5341732 54.2698924,70.7383631 54.3131835,70.8861006 C54.3949557,71.1635587 54.0810949,71.7977486 53.9860949,72.0139497 C53.8802722,72.2577765 54.1255886,72.5196201 54.2326139,72.2757933 C54.4093861,71.8698156 54.8663481,70.9701788 54.5079937,70.5185587 C54.2735,70.2218827 53.7936899,70.0861564 53.5122975,69.9240056 C53.0974241,69.6837821 52.6837532,69.4447598 52.2712848,69.2057374 C52.0933101,69.1024413 52.0091329,69.5480559 52.1859051,69.651352" id="Fill-69" fill="#ABACAC"></path>
                        <path d="M53.5576329,68.7293743 C53.2810506,69.5665531 53.0429494,70.4205475 52.8409241,71.2985642 C52.7771899,71.5772235 53.0537722,71.726162 53.1187089,71.4475028 C53.3123165,70.6091229 53.5407975,69.7923631 53.8053544,68.992419 C53.8931392,68.7269721 53.6466203,68.4615251 53.5576329,68.7293743" id="Fill-71" fill="#ABACAC"></path>
                        <path d="M51.5486835,72.1914749 C52.459,72.7223687 53.3729241,73.2556648 54.2916582,73.790162 C54.4684304,73.8946592 54.5574177,73.4562514 54.379443,73.3529553 C53.4595063,72.817257 52.5443797,72.285162 51.6316582,71.7542682 C51.4560886,71.6521732 51.3731139,72.0893799 51.5486835,72.1914749" id="Fill-73" fill="#ABACAC"></path>
                        <path d="M61.046519,71.7336089 C61.2268987,72.0422961 61.4156962,72.3365698 61.6129114,72.6176313 C61.7584177,72.8242235 61.9977215,72.511933 61.8510127,72.3041397 C61.6537975,72.0218771 61.4637975,71.7264022 61.2834177,71.4177151 C61.1499367,71.1895028 60.913038,71.5053966 61.046519,71.7336089" id="Fill-75" fill="#ABACAC"></path>
                        <path d="M59.1912532,73.1391564 C60.3468861,73.7565307 61.5085316,74.3775084 62.6773924,75.0020894 C62.8661899,75.1029832 62.9720127,74.6537654 62.7832152,74.5528715 C61.6119494,73.9282905 60.4478987,73.3073128 59.2898608,72.6911397 C59.1046709,72.5914469 59.0060633,73.0394637 59.1912532,73.1391564" id="Fill-77" fill="#ABACAC"></path>
                        <path d="M59.8027405,74.7019302 C59.4768544,74.9601704 59.2050823,75.3253101 58.9970443,75.7865391 C58.8876139,76.031567 59.136538,76.297014 59.2471709,76.051986 C59.4251456,75.6568184 59.6560316,75.3457291 59.9362215,75.1247235 C60.1105886,74.9877961 59.9771076,74.5638017 59.8027405,74.7019302" id="Fill-79" fill="#ABACAC"></path>
                        <path d="M61.3092722,76.1860307 C61.4439557,76.5187402 61.5774367,76.8502486 61.7121203,77.181757 C61.8143354,77.4351927 62.0933228,77.2382095 61.9899051,76.9811704 C61.8552215,76.6484609 61.720538,76.3157514 61.587057,75.9830419 C61.4836392,75.728405 61.2058544,75.9289916 61.3092722,76.1860307" id="Fill-81" fill="#ABACAC"></path>
                        <path d="M67.6050063,75.5786257 C67.289943,76.8686257 66.9772848,78.1478156 66.6682342,79.4137933 C66.5984873,79.6984581 66.8955127,79.8606089 66.966462,79.5735419 C67.2767152,78.3075642 67.5905759,77.0295754 67.9068418,75.7383743 C67.9801962,75.4441006 67.6771582,75.2831508 67.6050063,75.5786257" id="Fill-83" fill="#ABACAC"></path>
                        <path d="M68.5203734,76.0818939 C68.8198038,76.2104134 69.1204367,76.3401341 69.4210696,76.4698547 C69.8443608,76.6524246 70.2267658,76.8361955 70.0343608,77.6325363 C69.7842342,78.6703017 69.4451203,79.6732346 69.1553101,80.6713631 C69.073538,80.9524246 69.3741709,81.1157765 69.4571456,80.833514 C69.6832215,80.0563911 69.9117025,79.2732626 70.1401835,78.4865307 C70.2712595,78.0373128 70.4997405,77.4703855 70.4516392,76.9599106 C70.4155633,76.5803575 70.2568291,76.3761676 70.0307532,76.2272291 C69.6014494,75.9449665 69.0891709,75.8188492 68.6382215,75.6254693 C68.4398038,75.5401899 68.3207532,75.9954134 68.5203734,76.0818939" id="Fill-85" fill="#ABACAC"></path>
                        <path d="M67.4990633,78.0105279 C67.8357722,78.1054162 68.1628608,78.2531536 68.4803291,78.4429302 C68.6715316,78.5582374 68.7893797,78.1078184 68.5969747,77.9937123 C68.2518481,77.7871201 67.8971013,77.6381816 67.5303291,77.5348855 C67.3283038,77.478433 67.2982405,77.9540754 67.4990633,78.0105279" id="Fill-87" fill="#ABACAC"></path>
                        <path d="M66.6646266,79.7634385 C67.4787405,80.2570978 68.296462,80.7519581 69.1165886,81.2480196 C69.3065886,81.3633268 69.4244367,80.9213156 69.2332342,80.8060084 C68.4119051,80.3087458 67.592981,79.8138855 66.7776646,79.3214274 C66.5888671,79.2073212 66.4770316,79.6493324 66.6646266,79.7634385" id="Fill-89" fill="#ABACAC"></path>
                        <path d="M33.8133861,29.5382374 C34.1753481,30.1652207 34.5962342,30.7057235 35.0507911,31.1237123 C35.3057278,31.3591313 35.6099684,31.3194944 35.7386392,30.9531536 C35.8552848,30.6180419 35.7638924,30.0583212 35.5065506,29.8192989 C35.1241456,29.4637682 34.797057,29.0457793 34.494019,28.5160866 C34.0033861,27.6596899 33.3239557,28.6914497 33.8133861,29.5382374" id="Fill-91" fill="#ABACAC"></path>
                        <path d="M32.7956835,32.953014 C33.0782785,33.1560028 33.6759367,33.4286564 33.7480886,33.8118128 C33.8142278,34.1673436 33.5460633,34.8423715 33.4835316,35.1726788 C33.2899241,36.1900251 33.0999241,37.3010587 33.0903038,38.4036844 C33.0746709,40.0420084 33.8094177,40.3542989 34.7197342,40.898405 C35.3462532,41.2719525 35.5338481,39.8450251 34.9073291,39.4666732 C34.6896709,39.3177346 34.4672025,39.2012263 34.2411266,39.1183492 C34.0775823,39.0582933 34.0306835,38.922567 34.1004304,38.7087682 C34.0186582,38.277567 34.1918228,37.5941313 34.2459367,37.1905559 C34.3770127,36.1972318 34.7570127,35.1690754 34.8099241,34.1361145 C34.8928987,32.523014 33.780557,32.0281536 32.9808734,31.448014 C32.3387215,30.9831816 32.1595443,32.4965894 32.7956835,32.953014" id="Fill-93" fill="#ABACAC"></path>
                        <path d="M37.1557025,29.776419 C36.7684873,31.4315587 36.5893101,33.1587654 36.5820949,34.9748547 C36.5784873,35.9681788 37.5801962,36.1075084 37.5874114,35.1189888 C37.5982342,33.4506369 37.7954494,31.8711676 38.1538038,30.3565587 C38.3702595,29.4449106 37.3673481,28.8695754 37.1557025,29.776419" id="Fill-95" fill="#ABACAC"></path>
                        <path d="M38.7940316,30.7092067 C39.3832722,31.0359106 39.9689051,31.3686201 40.5497278,31.715743 C40.7986519,31.8658827 42.1623228,32.4340112 42.2705506,32.7883408 C42.3811835,33.1462737 41.999981,34.3846257 41.9350443,34.7269441 C41.7654873,35.6241788 41.5959304,36.5178101 41.4275759,37.4066369 C41.2568165,38.3098771 42.2092215,38.8395698 42.3811835,37.9435363 C42.608462,36.762838 42.836943,35.574933 43.0666266,34.3786201 C43.2025127,33.6723631 43.4514367,32.8688156 43.1471962,32.084486 C42.8357405,31.2821397 42.0408671,31.0130894 41.5538418,30.7080056 C40.7120696,30.1807151 39.8618797,29.6822514 39.0032722,29.2018045 C38.3599177,28.8414693 38.1518797,30.353676 38.7940316,30.7092067" id="Fill-97" fill="#ABACAC"></path>
                        <path d="M36.7402278,36.1654022 C38.2951013,37.5466872 39.8788354,38.4607374 41.5299114,38.9543966 C42.1540253,39.1417709 42.1059241,37.6223575 41.4818101,37.432581 C40.0075063,36.9857654 38.5776962,36.1389777 37.1935823,34.8994246 C36.5971266,34.3649274 36.1413671,35.6333073 36.7402278,36.1654022" id="Fill-99" fill="#ABACAC"></path>
                        <path d="M38.2803101,34.0681313 C39.3277152,34.7695838 40.3667025,35.4650307 41.3972722,36.1556732 C42.0045506,36.562852 42.2198038,35.1119022 41.6125253,34.7023212 C40.5783481,34.0032709 39.5357532,33.2982151 38.4847405,32.5883547 C37.8582215,32.1631592 37.6573987,33.6513436 38.2803101,34.0681313" id="Fill-101" fill="#ABACAC"></path>
                        <path d="M39.084443,32.758433 C39.0387468,34.6045503 38.9942532,36.4314497 38.9497595,38.2379302 C38.9341266,38.8961425 38.9714051,43.9011983 38.247481,43.4015335 C37.6462152,42.987148 37.4550127,44.3852486 38.0502658,44.7912263 C39.4307722,45.7353045 39.7374177,43.2417849 39.8227975,41.7704162 C39.9911519,38.902148 40.0031772,35.9089637 40.0849494,32.9085726 C40.1126076,31.9080419 39.1084937,31.7591034 39.084443,32.758433" id="Fill-103" fill="#ABACAC"></path>
                        <path d="M36.7553797,40.1923883 C36.1144304,40.5034777 35.6117722,41.0583939 35.2498101,41.8931704 C35.1127215,42.2054609 35.2462025,42.7195391 35.473481,42.9429469 C35.7272152,43.1915782 36.0001899,43.0810754 36.1360759,42.7687849 C36.3561392,42.2667179 36.688038,41.8715503 37.0764557,41.6829749 C37.316962,41.5664665 37.4768987,41.2433659 37.3843038,40.8085615 C37.3061392,40.4410196 36.9982911,40.0746788 36.7553797,40.1923883" id="Fill-105" fill="#ABACAC"></path>
                        <path d="M40.4297152,43.4958212 C40.725538,43.7684749 40.9287658,44.1204022 41.0790823,44.5912402 C41.1969304,44.9635866 41.5360443,45.1017151 41.7404747,44.9455698 C41.9749684,44.7654022 42.0062342,44.3462123 41.8883861,43.9714637 C41.6743354,43.2856257 41.3111709,42.6874693 40.8806646,42.2874972 C40.6437658,42.0676927 40.3515506,42.121743 40.2264873,42.459257 C40.1086392,42.776352 40.1928165,43.2772179 40.4297152,43.4958212" id="Fill-107" fill="#ABACAC"></path>
                        <path d="M35.7583608,38.3417067 C37.6355127,40.2274609 39.7062722,40.5793883 41.6724114,41.6159525 C42.2796899,41.9354497 42.494943,40.5325447 41.884057,40.208243 C40.0105127,39.2101145 37.991462,38.8966229 36.2069051,37.0877402 C35.6260823,36.5003939 35.1787405,37.7591648 35.7583608,38.3417067" id="Fill-109" fill="#ABACAC"></path>
                        <path d="M50.1930696,37.1298994 C49.0302215,36.500514 47.8433228,36.0548994 46.6323734,35.7906536 C46.0118671,35.6549274 46.0383228,37.1815475 46.6564241,37.3136704 C47.7783861,37.5538939 48.8702848,37.9634749 49.9489557,38.5412123 C50.5369937,38.855905 50.7847152,37.4493966 50.1930696,37.1298994" id="Fill-111" fill="#ABACAC"></path>
                        <path d="M45.3848671,41.8249469 C46.5116392,42.5047793 47.6287911,43.1786061 48.7363228,43.8476285 C49.3099304,44.1935503 49.5468291,42.8278799 48.972019,42.4771536 C47.8608797,41.7997235 46.7401203,41.1174888 45.610943,40.4292486 C45.0168924,40.0677123 44.7932215,41.4682151 45.3848671,41.8249469" id="Fill-113" fill="#ABACAC"></path>
                        <path d="M47.3478797,39.3588128 C46.8187658,42.0625279 46.3762342,44.7674441 46.0202848,47.4747626 C45.9060443,48.3479749 46.8043354,48.830824 46.9221835,47.9576117 C47.2841456,45.2623045 47.7314873,42.5706006 48.2654114,39.8800978 C48.4421835,38.9912709 47.5222468,38.4675838 47.3478797,39.3588128" id="Fill-115" fill="#ABACAC"></path>
                        <path d="M46.2628354,43.4904162 C45.5954304,43.5528743 44.9412532,43.703014 44.3015063,43.9420363 C43.7291013,44.1558352 44.0020759,45.5911704 44.5768861,45.3761704 C45.2130253,45.1383492 45.8635949,44.9870084 46.5273924,44.9233492 C47.1202405,44.8668966 46.854481,43.4351648 46.2628354,43.4904162" id="Fill-117" fill="#ABACAC"></path>
                        <path d="M47.4933861,45.6340503 C47.8902215,45.9031006 48.2858544,46.1709497 48.6814873,46.4387989 C48.9171835,46.5985475 49.1841456,46.3523184 49.2442722,46.01 C49.3128165,45.620838 49.1516772,45.2508939 48.9147785,45.088743 C48.5191456,44.8184916 48.1223101,44.5470391 47.7230696,44.2755866 C47.4837658,44.1122346 47.2143987,44.3608659 47.1554747,44.7079888 C47.0893354,45.1007542 47.2540823,45.4718994 47.4933861,45.6340503" id="Fill-119" fill="#ABACAC"></path>
                        <path d="M50.9327468,37.7888324 C50.6429367,39.207352 50.4914177,40.6703128 50.4685696,42.1717095 C50.4553418,43.1049777 51.3800886,43.2262905 51.3969241,42.2930223 C51.4209747,40.9225475 51.5688861,39.607324 51.8370506,38.3137207 C52.0222405,37.4236927 51.1155316,36.8952011 50.9327468,37.7888324" id="Fill-121" fill="#ABACAC"></path>
                        <path d="M52.4626076,38.9710922 C53.0927342,39.3614553 53.7926076,39.6641369 54.3902658,40.1638017 C54.8303924,40.5337458 54.8881139,40.6718743 54.7245696,41.3805335 C54.6199494,41.8297514 54.5153291,42.2789693 54.4119114,42.726986 C54.3529873,42.982824 54.2940633,43.2374609 54.2351392,43.4920978 C54.2652025,43.4476564 54.2952658,43.4032151 54.3253291,43.3575726 C54.1221013,43.4464553 53.4318481,42.8579078 53.2129873,42.7353939 C52.5600127,42.3702542 51.9034304,42.0027123 51.244443,41.6339693 C50.6660253,41.3096676 50.4231139,42.6849469 51.0003291,43.0044441 C51.5631139,43.3167346 52.1246962,43.6290251 52.6838734,43.9377123 C53.1901392,44.2187737 53.7276709,44.6451704 54.2471646,44.7808966 C55.0372278,44.9862877 55.1598861,43.7635503 55.3751392,42.8422933 C55.5795696,41.9702821 56.164,40.432852 55.5903924,39.5067905 C55.327038,39.0803939 54.8436203,38.9002263 54.510519,38.692433 C53.9152658,38.3200866 53.3164051,37.945338 52.7151392,37.5705894 C52.1379241,37.2102542 51.8877975,38.6155615 52.4626076,38.9710922" id="Fill-123" fill="#ABACAC"></path>
                        <path d="M49.9178101,44.7813771 C51.1191392,45.8071313 52.3373038,46.6923547 53.5831266,47.4298408 C54.1350886,47.7577458 54.3864177,46.4341145 53.8320506,46.1026061 C52.6607848,45.4011536 51.5147722,44.575986 50.3855949,43.603081 C49.8480633,43.1406508 49.3766709,44.3189469 49.9178101,44.7813771" id="Fill-125" fill="#ABACAC"></path>
                        <path d="M49.5972152,47.6231006 C50.7336076,48.3810056 51.87,49.0836592 53.0075949,49.7322626 C53.559557,50.0469553 53.8072785,48.7401397 53.2529114,48.4206425 C52.1129114,47.7648324 50.9729114,47.0537709 49.8329114,46.286257 C49.2725316,45.9091061 49.040443,47.2519553 49.5972152,47.6231006" id="Fill-127" fill="#ABACAC"></path>
                        <path d="M51.3644557,46.3445112 C51.1552152,47.4519413 50.9483797,48.5521648 50.7415443,49.6451816 C50.5828101,50.4847626 51.453443,50.949595 51.6133797,50.1124162 C51.8226203,49.0242039 52.0318608,47.929986 52.2423038,46.8273603 C52.4070506,45.9721648 51.5267975,45.4845112 51.3644557,46.3445112" id="Fill-129" fill="#ABACAC"></path>
                        <path d="M48.9347405,50.0124832 C50.2430949,50.8436564 51.5538544,51.587148 52.867019,52.2441592 C53.4201835,52.5216173 53.6667025,51.2340196 53.1099304,50.9529581 C51.7919557,50.286338 50.4787911,49.5344385 49.1668291,48.6936564 C48.6052468,48.3333212 48.3779684,49.6581536 48.9347405,50.0124832" id="Fill-131" fill="#ABACAC"></path>
                        <path d="M59.5300063,44.4862626 C61.5622848,45.4903966 63.5356392,46.6122402 65.4524747,47.8505922 C65.9647532,48.1808994 66.2521582,46.8896983 65.7398797,46.5557877 C63.8182342,45.3030223 61.8388671,44.1667654 59.8017785,43.149419 C59.2486139,42.873162 58.9756392,44.2124078 59.5300063,44.4862626" id="Fill-133" fill="#ABACAC"></path>
                        <path d="M59.6005949,47.3684637 C61.0929367,48.1768156 62.568443,48.9767598 64.0271139,49.767095 C64.5502152,50.0505587 64.8340127,48.7725698 64.3085063,48.4855028 C62.8450253,47.6843575 61.3659114,46.8736034 59.869962,46.0556425 C59.3264177,45.7577654 59.0570506,47.0741899 59.6005949,47.3684637" id="Fill-135" fill="#ABACAC"></path>
                        <path d="M62.5923734,43.3677821 C62.157057,45.5682291 61.7277532,47.7410503 61.3032595,49.8874469 C61.1397152,50.7162179 61.9574367,51.1726425 62.1233861,50.3450726 C62.5514873,48.2082849 62.9856013,46.0450726 63.4245253,43.8542346 C63.5964873,42.9942346 62.7643354,42.5005754 62.5923734,43.3677821" id="Fill-137" fill="#ABACAC"></path>
                        <path d="M57.7821266,49.2073743 C60.4108608,50.1502514 62.9373797,51.4078212 65.3484557,52.9668715 C65.8499114,53.2911732 66.1313038,52.0408101 65.6298481,51.7141061 C63.213962,50.135838 60.6802278,48.8602514 58.0442785,47.904162 C57.4899114,47.7035754 57.2241519,49.0067877 57.7821266,49.2073743" id="Fill-139" fill="#ABACAC"></path>
                        <path d="M60.5560063,50.3391872 C60.0786013,50.4677067 59.6841709,50.8304441 59.2680949,51.1859749 C58.7834747,51.6003603 58.263981,51.8814218 57.7360696,52.1456676 C57.2153734,52.4051089 57.4077785,53.7311425 57.9332848,53.4680978 C58.4287278,53.2194665 58.928981,52.9780419 59.3967658,52.6249134 C59.8417025,52.2886006 60.2397405,51.8069525 60.7399937,51.6712263 C61.2847405,51.5222877 61.1043608,50.1914497 60.5560063,50.3391872" id="Fill-141" fill="#ABACAC"></path>
                        <path d="M59.1918544,51.754824 C58.7878038,52.5199358 58.320019,53.7426732 58.5124241,54.7888464 C58.7132468,55.8902709 59.5634367,56.0776453 60.1622975,56.3466955 C60.6890063,56.5833156 60.9559684,55.3473659 60.4256519,55.1059413 C60.1635,54.9882318 59.3770443,54.8501034 59.3337532,54.3468352 C59.2820443,53.7462765 59.6933101,52.9475335 59.916981,52.5259413 C60.2669177,51.8677291 59.5381835,51.099014 59.1918544,51.754824" id="Fill-143" fill="#ABACAC"></path>
                        <path d="M63.8393987,53.0534721 C63.3451582,53.3885838 62.8509177,53.7236955 62.3566772,54.0600084 C61.8564241,54.3987235 62.2364241,55.5830251 62.7330696,55.2467123 C63.2249051,54.9128017 63.717943,54.5788911 64.2097785,54.2461816 C64.7076266,53.9074665 64.3384494,52.714757 63.8393987,53.0534721" id="Fill-145" fill="#ABACAC"></path>
                        <path d="M61.0572215,53.9077067 C62.0396899,54.9658911 62.9007025,56.1766173 63.6582975,57.5555 C64.0070316,58.1884888 64.6395633,57.3501089 64.2932342,56.7147179 C63.4935506,55.2469525 62.5724114,53.9437402 61.5322215,52.8134888 C61.0728544,52.3150251 60.599057,53.4140475 61.0572215,53.9077067" id="Fill-147" fill="#ABACAC"></path>
                        <path d="M29.6466139,43.8891872 C41.2281962,50.0401089 52.8097785,56.1922318 64.3901582,62.3431536 C64.7316772,62.5245223 65.0359177,62.0068408 64.6943987,61.8242709 C53.1128165,55.6733492 41.5312342,49.5224274 29.9496519,43.3703045 C29.6081329,43.1889358 29.3038924,43.7078184 29.6466139,43.8891872" id="Fill-149" fill="#ABACAC"></path>
                        <path d="M29.6466139,45.1820698 C41.2281962,51.3329916 52.8097785,57.4851145 64.3901582,63.6360363 C64.7316772,63.817405 65.0359177,63.2997235 64.6943987,63.1171536 C53.1128165,56.9662318 41.5312342,50.8153101 29.9496519,44.6631872 C29.6081329,44.4818184 29.3038924,45.0007011 29.6466139,45.1820698" id="Fill-151" fill="#ABACAC"></path>
                        <path d="M31.2224114,94.8567989 C37.9301329,97.4259888 44.2494367,100.144117 50.1622848,102.979955 C51.081019,103.420765 51.6101329,101.954201 50.6793734,101.496575 C44.677538,98.5442291 38.256019,95.7107933 31.4304494,93.0274972 C30.2988671,92.5830838 30.1088671,94.4304022 31.2224114,94.8567989" id="Fill-153" fill="#EC6B2B"></path>
                        <path d="M29.7796139,107.727732 C36.0411962,109.840497 41.998538,111.851168 47.6720823,113.765749 C48.5102468,114.049212 48.9419557,112.328011 48.0905633,112.033737 C42.3388544,110.047089 36.2949304,107.958346 29.9371456,105.761503 C28.9414494,105.417983 28.7995506,107.397425 29.7796139,107.727732" id="Fill-155" fill="#EC6B2B"></path>
                        <path d="M39.8181076,101.399285 C38.029943,104.12462 37.267538,107.468531 36.2970949,110.474927 C35.3146266,113.518559 34.0916519,116.231883 32.6666519,118.606492 C32.1832342,119.41124 33.2486772,120.516268 33.7357025,119.724732 C35.1366519,117.447413 36.3800696,114.877022 37.3950063,111.991939 C38.427981,109.055207 39.1398797,105.609201 40.9496899,102.917497 C41.6231076,101.916966 40.4915253,100.373531 39.8181076,101.399285" id="Fill-157" fill="#EC6B2B"></path>
                        <path d="M42.1949114,115.234595 C41.8666203,116.441718 41.5768101,117.635628 41.3351013,118.818729 C41.1607342,119.672723 40.7194051,120.968729 41.0044051,121.805908 C41.2737722,122.599846 42.1732658,122.837668 42.7901646,123.041858 C43.6668101,123.331327 44.573519,123.45264 45.4814304,123.455042 C46.2907342,123.456243 46.3159873,121.971662 45.4946582,121.96926 C44.8416835,121.965656 44.2007342,121.891187 43.5645949,121.717025 C43.2579494,121.634148 42.9537089,121.530852 42.655481,121.409539 C42.5857342,121.380712 42.2394051,121.287025 42.2033291,121.194539 C42.1864937,121.150098 42.3019367,120.801774 42.3235823,120.69007 C42.6314304,119.031327 43.035481,117.34736 43.5225063,115.63817 C43.8219367,114.588394 42.4811139,114.182416 42.1949114,115.234595" id="Fill-159" fill="#EC6B2B"></path>
                        <path d="M53.750038,106.241349 C53.750038,106.241349 63.3029494,109.40269 65.0021266,104.063723 C66.5618101,99.1643659 59.2913038,96.9867402 59.375481,101.976182 C59.375481,101.976182 59.4861139,105.334506 64.0028228,105.061852" id="Stroke-161" stroke="#EC6B2B" stroke-width="0.5" stroke-linecap="round" stroke-linejoin="round"></path>
                        <path d="M63.3670443,105.077226 C63.3670443,105.077226 71.8160316,105.681388 72.7997025,92.9591536" id="Stroke-163" stroke="#EC6B2B" stroke-width="0.5" stroke-linecap="round" stroke-linejoin="round"></path>
                        <path d="M26.6643354,101.061291 C26.6643354,101.061291 19.7618038,93.7200615 21.7002848,83.7988324" id="Stroke-165" stroke="#EC6B2B" stroke-width="0.5" stroke-linecap="round" stroke-linejoin="round"></path>
                    </g>
                </g>
            </g>
        </g>
    </g>
</svg>