<?xml version="1.0" encoding="UTF-8"?>
<svg width="24px" height="24px" viewBox="0 0 24 24" version="1.1" xmlns="http://www.w3.org/2000/svg" xmlns:xlink="http://www.w3.org/1999/xlink">
    <!-- Generator: Sketch 49.3 (51167) - http://www.bohemiancoding.com/sketch -->
    <title>播放-默认</title>
    <desc>Created with Sketch.</desc>
    <defs></defs>
    <g id="Page-1" stroke="none" stroke-width="1" fill="none" fill-rule="evenodd">
        <g id="iocn-样式" transform="translate(-298.000000, -733.000000)">
            <g id="播放-默认_export" transform="translate(298.000000, 733.000000)">
                <g id="播放">
                    <g>
                        <rect id="Rectangle-15" fill="#D8D8D8" opacity="0" x="0" y="0" width="24" height="24"></rect>
                        <g transform="translate(3.000000, 3.500000)">
                            <path d="M2,1.5201416 C1.44771525,1.5201416 1,1.96785685 1,2.5201416 L1,14.5201416 C1,15.0724264 1.44771525,15.5201416 2,15.5201416 L16,15.5201416 C16.5522847,15.5201416 17,15.0724264 17,14.5201416 L17,2.5201416 C17,1.96785685 16.5522847,1.5201416 16,1.5201416 L2,1.5201416 Z M2.5,1.50610352 L15.5,1.50610352 C16.3284271,1.50610352 17,2.17767639 17,3.00610352 L17,14.0061035 C17,14.8345306 16.3284271,15.5061035 15.5,15.5061035 L2.5,15.5061035 C1.67157288,15.5061035 1,14.8345306 1,14.0061035 L1,3.00610352 C1,2.17767639 1.67157288,1.50610352 2.5,1.50610352 Z" id="Combined-Shape" stroke="#FF0047" stroke-width="2"></path>
                            <path d="M10.2000693,5.26050519 L11.6322974,11.6657262 C11.6564007,11.7735213 11.5885551,11.880446 11.4807601,11.9045493 C11.4521377,11.9109494 11.4224579,11.910976 11.3938241,11.9046272 L4.97874384,10.4822583 C4.8709058,10.4583482 4.80286879,10.3515452 4.82677893,10.2437071 C4.83501961,10.2065405 4.85369664,10.1724979 4.88061562,10.1455789 L9.86346778,5.16272675 C9.94157264,5.08462189 10.0682056,5.08462189 10.1463105,5.16272675 C10.1731433,5.18955955 10.1917886,5.22347237 10.2000693,5.26050519 Z" id="Rectangle-10" fill="#FF0047" transform="translate(8.229577, 8.506759) rotate(-45.000000) translate(-8.229577, -8.506759) "></path>
                        </g>
                    </g>
                </g>
            </g>
        </g>
    </g>
</svg>