<?xml version="1.0" encoding="UTF-8"?>
<svg width="24px" height="24px" viewBox="0 0 24 24" version="1.1" xmlns="http://www.w3.org/2000/svg" xmlns:xlink="http://www.w3.org/1999/xlink">
    <!-- Generator: Sketch 49.3 (51167) - http://www.bohemiancoding.com/sketch -->
    <title>播放-禁用</title>
    <desc>Created with Sketch.</desc>
    <defs></defs>
    <g id="Page-1" stroke="none" stroke-width="1" fill="none" fill-rule="evenodd">
        <g id="iocn-样式" transform="translate(-538.000000, -733.000000)">
            <g id="播放-禁用_export" transform="translate(538.000000, 733.000000)">
                <g id="播放-禁用">
                    <rect id="Rectangle-15" fill="#D8D8D8" opacity="0" x="0" y="0" width="24" height="24"></rect>
                    <g id="播放" transform="translate(3.000000, 3.500000)" fill="#CCCCCC">
                        <path d="M2,0.520141602 L16,0.520141602 C17.1045695,0.520141602 18,1.4155721 18,2.5201416 L18,14.5201416 C18,15.6247111 17.1045695,16.5201416 16,16.5201416 L2,16.5201416 C0.8954305,16.5201416 1.3527075e-16,15.6247111 0,14.5201416 L0,2.5201416 C-1.3527075e-16,1.4155721 0.8954305,0.520141602 2,0.520141602 Z M2.5,2.50610352 C2.22385763,2.50610352 2,2.72996114 2,3.00610352 L2,14.0061035 C2,14.2822459 2.22385763,14.5061035 2.5,14.5061035 L15.5,14.5061035 C15.7761424,14.5061035 16,14.2822459 16,14.0061035 L16,3.00610352 C16,2.72996114 15.7761424,2.50610352 15.5,2.50610352 L2.5,2.50610352 Z M7.32747772,4.81796253 L12.8693911,8.33439959 C12.9626574,8.39357857 12.9902905,8.51715981 12.9311115,8.61042602 C12.915398,8.63519067 12.89443,8.65619624 12.8696935,8.67195417 L7.32778012,12.2023342 C7.23462009,12.2616802 7.11098953,12.2342685 7.05164355,12.1411085 C7.03118984,12.1090007 7.02032471,12.0717222 7.02032471,12.033653 L7.02032471,4.98683594 C7.02032471,4.87637899 7.10986776,4.78683594 7.22032471,4.78683594 C7.25827202,4.78683594 7.29543626,4.79763168 7.32747772,4.81796253 Z" id="Combined-Shape"></path>
                    </g>
                </g>
            </g>
        </g>
    </g>
</svg>