<?xml version="1.0" encoding="UTF-8"?>
<svg width="60px" height="60px" viewBox="0 0 60 60" version="1.1" xmlns="http://www.w3.org/2000/svg" xmlns:xlink="http://www.w3.org/1999/xlink">
    <!-- Generator: Sketch 49.3 (51167) - http://www.bohemiancoding.com/sketch -->
    <title>裂变海报</title>
    <desc>Created with Sketch.</desc>
    <defs></defs>
    <g id="Page-1" stroke="none" stroke-width="1" fill="none" fill-rule="evenodd">
        <g id="营销活动" transform="translate(-1120.000000, -140.000000)">
            <g id="好友打call-copy-2" transform="translate(1100.000000, 120.000000)">
                <g id="裂变海报_export" transform="translate(20.000000, 20.000000)">
                    <g id="裂变海报">
                        <rect id="Rectangle-11" fill="#EF334E" x="0" y="0" width="60" height="60" rx="2"></rect>
                        <path d="M47.5526827,35.887887 C47.5182154,35.8534802 47.4819779,35.8208935 47.4441176,35.7902594 L40.5452288,30.421241 C40.2763536,30.2038233 39.9509621,30.1036802 39.6304286,30.1135254 C39.3165659,30.1028033 39.0084136,30.1993127 38.7567468,30.3871516 L30.2525553,36.3271414 L22.6306549,26.1787317 C22.1550594,25.5776128 21.2821584,25.4757782 20.6809953,25.9513388 C20.5334109,26.0678414 20.411123,26.2132007 20.3215987,26.3785409 L12.3653827,35.8629054 C12.260417,35.9877736 12.1783224,36.1301916 12.1228789,36.2836019 C12.0417628,36.4594329 11.9998356,36.6507923 12.0000005,36.8444294 L12.0000005,46.5686777 C12.0006077,46.6264909 12.0000005,46.64089 12.0000005,46.6554192 C12.0000005,47.396539 12.6008166,47.997311 13.3419909,47.997311 L22.6844072,47.997311 C23.4255815,47.997311 24.0053101,47.7498478 24.0053101,47.008728 C24.0053101,46.2676082 23.4255815,45.9892578 22.6844072,45.9892578 L14.0015869,45.9892578 L14.0341187,37.2263184 L21.5282623,27.9865723 L35.6088816,47.057076 C35.7796015,47.6019864 36.2884214,47.9973544 36.8896713,47.9973544 C36.9721686,47.9990025 36.9998412,48 37.0275571,48 C37.0419284,48 40.2520786,47.9991181 46.6580079,47.9973544 C47.3991822,47.9973544 47.9999983,47.3965824 47.9999983,46.6554626 C47.9993911,46.5976494 47.9999983,46.5832503 47.9999983,46.568721 L47.9999983,36.8878436 C48.0000417,36.4904805 47.8271531,36.1335824 47.5526827,35.887887 Z M39.595686,32.2486572 L46.0041504,37.1599121 L46.0041504,45.9893012 L37.4360352,45.9893012 L31.4160156,37.9594727 L39.595686,32.2486572 Z M47.6935613,12.4883128 C47.6525516,12.4386144 47.6080219,12.3919283 47.5603165,12.3486156 C47.3135934,12.1238896 46.9917462,11.9995414 46.6580079,12.0000013 L37.357005,12.0000013 C36.6158308,12.0000013 36.0150146,12.2676693 36.0150146,13.0087891 C36.0150146,13.7499089 36.6158308,14.0145874 37.357005,14.0145874 L45.9752808,14.0145874 L45.9752808,22.6916776 C45.9752808,23.4327974 46.2784791,24.0335693 47.0196533,24.0335693 C47.7608276,24.0335693 47.9999983,23.4327974 47.9999983,22.6916776 L47.9999983,13.3418931 C48.0003174,13.1404764 47.9550933,12.9415938 47.8677077,12.7601175 C47.8208268,12.6628287 47.7623537,12.5715649 47.6935613,12.4883128 Z" id="Shape" fill="#FFFFFF" fill-rule="nonzero"></path>
                        <path d="M12,16.5 C12,18.9852814 14.0147186,21 16.5,21 C18.9852814,21 21,18.9852814 21,16.5 C21,14.0147186 18.9852814,12 16.5,12 C14.0147186,12 12,14.0147186 12,16.5 Z" id="Shape" fill="#FFFFFF" fill-rule="nonzero"></path>
                    </g>
                </g>
            </g>
        </g>
    </g>
</svg>