<?xml version="1.0" encoding="UTF-8"?>
<svg width="24px" height="24px" viewBox="0 0 24 24" version="1.1" xmlns="http://www.w3.org/2000/svg" xmlns:xlink="http://www.w3.org/1999/xlink">
    <!-- Generator: Sketch 49.3 (51167) - http://www.bohemiancoding.com/sketch -->
    <title>录制-点击</title>
    <desc>Created with Sketch.</desc>
    <defs></defs>
    <g id="Page-1" stroke="none" stroke-width="1" fill="none" fill-rule="evenodd">
        <g id="iocn-样式" transform="translate(-458.000000, -158.000000)">
            <g id="录制" transform="translate(298.000000, 158.000000)">
                <g id="录制-点击_export" transform="translate(160.000000, 0.000000)">
                    <g id="录制-点击">
                        <rect id="Rectangle-6" fill-opacity="0" fill="#D8D8D8" x="0" y="0" width="24" height="24"></rect>
                        <path d="M22.3146687,6.2764688 C21.9216471,6.05032275 21.2130043,5.73699951 20.0523382,6.65086615 C18.8916721,7.56473278 17.9311755,8.26293945 16.9979384,8.9701195 L16.9979384,7.0478781 C16.9979384,6.01263175 16.3469964,5 15.3398786,5 L4.00686647,5 C2.9285135,5.06784381 2.06877878,5.94478793 2,7.0478781 L2,17.2948749 C2,18.3301212 2.99483589,18.9959957 4.00686647,18.9959957 L15.3398786,18.9959957 C15.7893971,19.0286612 16.2315463,18.860308 16.54842,18.5336526 C16.8677501,18.2069972 17.0298714,17.7547051 16.9979384,17.2948749 L16.9979384,15.1316588 C17.9305653,15.844098 19.22626,16.8166933 20.0940967,17.4760395 C20.5736684,17.8403981 21.1110401,17.971048 21.6760086,17.9911499 C21.8946268,17.9961754 22.1083323,17.9383825 22.2950175,17.8227967 C22.648737,17.6268035 23,17.1669732 23,16.1166504 L23,7.98764056 C22.9975436,6.93731781 22.6634753,6.47748751 22.3146687,6.2764688 Z M14.850897,16.8380239 C14.7372365,16.9624163 14.5762174,17.0204661 14.4170927,16.9935144 L4.90235379,16.9935144 C4.51022503,16.9935144 4.06126602,16.788267 4.06126602,16.3632598 L4.06126602,7.91635703 C4.11241325,7.43330004 4.46097215,7.05390335 4.90235379,7 L14.4170927,7 C14.8054327,7 14.9891839,7.49134981 14.9891839,7.91635703 L14.9891839,16.3632598 C15.017599,16.5374091 14.9645575,16.7136316 14.850897,16.8380239 Z M16.9962299,11.4870605 L20.6757175,8.72709795 C20.7640791,8.66081845 20.8894405,8.6787195 20.95572,8.76708106 C20.9816889,8.80170203 20.9957272,8.84381254 20.9957272,8.88709071 L20.9957272,15.1407413 C20.9957272,15.2511983 20.9061841,15.3407413 20.7957272,15.3407413 C20.752449,15.3407413 20.7103385,15.3267031 20.6757175,15.3007341 L16.9962299,12.5407715 L16.9962299,11.4870605 Z M4.99924598,9.49999999 C4.99924598,8.96550569 5.28469701,8.47119893 5.74704725,8.2019424 C6.2093975,7.93268586 6.78431999,7.93268586 7.24667024,8.2019424 C7.71304092,8.47119893 7.99849195,8.96550569 7.99849195,9.49999999 C7.99849195,10.0344943 7.70902049,10.5288011 7.24667024,10.7980576 C6.78431999,11.0673141 6.2093975,11.0673141 5.74704725,10.7980576 C5.28469701,10.5288011 4.99924598,10.0344943 4.99924598,9.49999999 Z" id="录制" fill="#EF334E" fill-rule="nonzero"></path>
                    </g>
                </g>
            </g>
        </g>
    </g>
</svg>