<?xml version="1.0" encoding="UTF-8"?>
<svg width="24px" height="24px" viewBox="0 0 24 24" version="1.1" xmlns="http://www.w3.org/2000/svg" xmlns:xlink="http://www.w3.org/1999/xlink">
    <!-- Generator: Sketch 52.5 (67469) - http://www.bohemiancoding.com/sketch -->
    <title>学员列表-默认</title>
    <desc>Created with Sketch.</desc>
    <g id="Page-1" stroke="none" stroke-width="1" fill="none" fill-rule="evenodd">
        <g id="iocn-样式" transform="translate(-299.000000, -863.000000)" fill-rule="nonzero">
            <g id="学员列表" transform="translate(299.000000, 863.000000)">
                <g id="学员列表-默认_export">
                    <g id="学员列表-默认">
                        <rect id="矩形" fill="#D8D8D8" opacity="0" x="0" y="0" width="24" height="24"></rect>
                        <path d="M3.02242151,19 L1.01640228,19 C1.18914643,16.3755231 2.71188368,14.1197867 4.89672836,12.9206765 C3.74120536,12.0048273 3,10.5889725 3,9 C3,6.23857625 5.23857625,4 8,4 C8.02336447,4 8.04669151,4.00016026 8.06998007,4.00047973 C7.6951608,4.64853418 7.40863433,5.35404727 7.2268485,6.10057119 C5.94469138,6.44158588 5,7.61047069 5,9 C5,10.6568542 6.34314575,12 8,12 C8.02332888,12 8.04659556,11.9997337 8.06979718,11.999204 C8.16879384,12.1703852 8.27395082,12.3375577 8.38496499,12.5004184 C7.7920188,13.0238298 7.26162326,13.6164654 6.80642523,14.2656782 C4.74971565,14.9306432 3.22300578,16.7741258 3.02242151,19 Z" id="合并形状" fill="#FF0047"></path>
                        <path d="M11.0920403,12.8172076 C9.81773788,11.8099135 9,10.2504532 9,8.5 C9,5.46243388 11.4624339,3 14.5,3 C17.5375661,3 20,5.46243388 20,8.5 C20,10.2504532 19.1822621,11.8099135 17.9079597,12.8172076 C20.33699,14.0583952 22,16.5849892 22,19.5 C22,19.6680143 21.9944753,19.8347382 21.9835977,20 L19.9775785,20 C19.9924187,19.835319 20,19.6685448 20,19.5 C20,16.4624339 17.5375661,14 14.5,14 C11.4624339,14 9,16.4624339 9,19.5 C9,19.6685448 9.00758131,19.835319 9.02242151,20 L7.01640228,20 C7.00552468,19.8347382 7,19.6680143 7,19.5 C7,16.5849892 8.66301002,14.0583952 11.0920403,12.8172076 Z M14.5,12 C16.4329966,12 18,10.4329966 18,8.5 C18,6.56700338 16.4329966,5 14.5,5 C12.5670034,5 11,6.56700338 11,8.5 C11,10.4329966 12.5670034,12 14.5,12 Z" id="合并形状-copy" fill="#FF0047"></path>
                    </g>
                </g>
            </g>
        </g>
    </g>
</svg>