<?xml version="1.0" encoding="UTF-8"?>
<svg width="24px" height="24px" viewBox="0 0 24 24" version="1.1" xmlns="http://www.w3.org/2000/svg" xmlns:xlink="http://www.w3.org/1999/xlink">
    <!-- Generator: Sketch 51.2 (57519) - http://www.bohemiancoding.com/sketch -->
    <title>已授权-默认</title>
    <desc>Created with Sketch.</desc>
    <defs></defs>
    <g id="Page-1" stroke="none" stroke-width="1" fill="none" fill-rule="evenodd">
        <g id="iocn-样式" transform="translate(-298.000000, -290.000000)">
            <g id="已授权" transform="translate(296.000000, 289.000000)">
                <g id="已授权-默认_export">
                    <g id="已授权-默认">
                        <g id="授权-红">
                            <rect id="Rectangle-2" fill-opacity="0" fill="#D8D8D8" x="2" y="1" width="24" height="24"></rect>
                            <path d="M14.3228386,19.6983406 L14.3228386,21.6983406 L16.3228386,21.6983406 C16.8751233,21.6983406 17.3228386,22.1460559 17.3228386,22.6983406 C17.3228386,23.2506254 16.8751233,23.6983406 16.3228386,23.6983406 L13.3228386,23.6983406 C12.7705538,23.6983406 12.3228386,23.2506254 12.3228386,22.6983406 L12.3228386,14.6222501 C9.20661306,14.1422237 6.82051925,11.4489332 6.82051925,8.19834061 C6.82051925,4.60848973 9.73066838,1.69834061 13.3205193,1.69834061 C16.9103701,1.69834061 19.8205193,4.60848973 19.8205193,8.19834061 C19.8205193,11.4473201 17.436793,14.1395505 14.3228386,14.6215339 L14.3228386,17.6983406 L16.3228386,17.6983406 C16.8751233,17.6983406 17.3228386,18.1460559 17.3228386,18.6983406 C17.3228386,19.2506254 16.8751233,19.6983406 16.3228386,19.6983406 L14.3228386,19.6983406 Z M13.3205193,12.6983406 C15.8058006,12.6983406 17.8205193,10.683622 17.8205193,8.19834061 C17.8205193,5.71305923 15.8058006,3.69834061 13.3205193,3.69834061 C10.8352379,3.69834061 8.82051925,5.71305923 8.82051925,8.19834061 C8.82051925,10.683622 10.8352379,12.6983406 13.3205193,12.6983406 Z" id="Combined-Shape" fill="#EF334E" fill-rule="nonzero" transform="translate(13.320519, 12.698341) rotate(-315.000000) translate(-13.320519, -12.698341) "></path>
                        </g>
                    </g>
                </g>
            </g>
        </g>
    </g>
</svg>