<?xml version="1.0" encoding="UTF-8"?>
<svg width="24px" height="24px" viewBox="0 0 24 24" version="1.1" xmlns="http://www.w3.org/2000/svg" xmlns:xlink="http://www.w3.org/1999/xlink">
    <!-- Generator: Sketch 49.3 (51167) - http://www.bohemiancoding.com/sketch -->
    <title>系统-异常</title>
    <desc>Created with Sketch.</desc>
    <defs></defs>
    <g id="Page-1" stroke="none" stroke-width="1" fill="none" fill-rule="evenodd">
        <g id="教务管理-课堂监控-学员监控记录" transform="translate(-316.000000, -1238.000000)">
            <g id="设备记录" transform="translate(260.000000, 910.000000)">
                <g id="设备记录一-copy" transform="translate(20.000000, 252.000000)">
                    <g id="设备" transform="translate(18.000000, 59.000000)">
                        <g id="系统-异常_export" transform="translate(18.000000, 17.000000)">
                            <g id="系统-异常">
                                <rect id="Rectangle-20" fill-opacity="0" fill="#D8D8D8" x="0" y="0" width="24" height="24"></rect>
                                <path d="M21.3333333,14.6666667 L20.4533333,14.6666667 C20.3634589,14.3661656 20.2428202,14.075739 20.0933333,13.8 L20.6933333,13.12 C20.9490444,12.8562484 20.9490444,12.4370849 20.6933333,12.1733333 L19.7466667,11.2266667 C19.4874377,10.9725714 19.0725623,10.9725714 18.8133333,11.2266667 L18.1866667,11.8533333 C17.9052329,11.7060863 17.6106094,11.5855585 17.3066667,11.4933333 L17.3066667,10.6666667 C17.3066667,10.2984768 17.0081898,10 16.64,10 L15.36,10 C14.9918102,10 14.6933333,10.2984768 14.6933333,10.6666667 L14.6933333,11.5466667 C14.3945679,11.6413521 14.1045896,11.7618046 13.8266667,11.9066667 L13.2,11.28 C12.940771,11.0259048 12.5258957,11.0259048 12.2666667,11.28 L11.36,12.1733333 C11.2337916,12.2985111 11.1628011,12.4689083 11.1628011,12.6466667 C11.1628011,12.824425 11.2337916,12.9948223 11.36,13.12 L11.9866667,13.7466667 C11.8106802,14.0365155 11.6675732,14.3450899 11.56,14.6666667 L10.6666667,14.6666667 C10.2984768,14.6666667 10,14.9651435 10,15.3333333 L10,16.6666667 C10.0070935,17.0318779 10.3014554,17.3262399 10.6666667,17.3333333 L11.56,17.3333333 C11.6522635,17.6329781 11.7728058,17.9231726 11.92,18.2 L11.36,18.7733333 C11.2337916,18.8985111 11.1628011,19.0689083 11.1628011,19.2466667 C11.1628011,19.424425 11.2337916,19.5948223 11.36,19.72 L12.3066667,20.6533333 C12.4276444,20.7822363 12.5965521,20.8553582 12.7733333,20.8553582 C12.9501145,20.8553582 13.1190222,20.7822363 13.24,20.6533333 L13.8,20 C14.0779229,20.144862 14.3679012,20.2653145 14.6666667,20.36 L14.6666667,21.3333333 C14.6737601,21.6985446 14.9681221,21.9929065 15.3333333,22 L16.6666667,22 C17.0348565,22 17.3333333,21.7015232 17.3333333,21.3333333 L17.3333333,20.4 C17.6372761,20.3077748 17.9318995,20.1872471 18.2133333,20.04 L18.84,20.6533333 C18.9609778,20.7822363 19.1298855,20.8553582 19.3066667,20.8553582 C19.4834479,20.8553582 19.6523556,20.7822363 19.7733333,20.6533333 L20.72,19.72 C20.9757111,19.4562484 20.9757111,19.0370849 20.72,18.7733333 L20.0933333,18.1466667 C20.2405275,17.8698393 20.3610699,17.5796448 20.4533333,17.28 L21.3333333,17.28 C21.5101443,17.28 21.6797136,17.2097621 21.8047379,17.0847379 C21.9297621,16.9597136 22,16.7901443 22,16.6133333 L22,15.28 C21.9721353,14.9327854 21.6816625,14.6655504 21.3333333,14.6666667 Z M18.9633566,16.0207416 C18.9572218,17.6617875 17.6284127,18.9905965 15.9873668,18.9967314 C14.3419534,18.9967429 13.0063516,17.6661434 13.0001891,16.0207416 C12.991238,15.2246291 13.3004653,14.4578829 13.8592205,13.8907253 C14.4179758,13.3235678 15.1800215,13.0029316 15.9761789,13 C16.7742774,12.9999496 17.5392088,13.3192724 18.1003882,13.8867572 C18.6615676,14.454242 18.972324,15.2226934 18.9633566,16.0207416 Z" id="Shape" fill="#EF334E" fill-rule="nonzero"></path>
                                <path d="M9.02999999,17.4011466 L9.02999999,16.0471191 L4.6502511,16.0471191 C4.27548645,16.0471191 3.97167969,15.7477553 3.97167969,15.3784713 L3.97167969,5.68097693 C3.9716797,5.31169294 4.27548646,5.01232911 4.6502511,5.0123291 L18.3910086,5.0123291 C18.7657733,5.0123291 19.0695801,5.31169293 19.0695801,5.68097693 L19.1391602,10.0327148 C19.4465207,9.73002926 20.4483538,10.4268835 20.7557143,10.7295691 L21,11.0237741 L21,5.00594353 C21,3.89809151 20.0885797,3 18.9642857,3 L4.03571428,3 C2.91142033,3 2,3.89809151 2,5.00594353 L2,15.7043091 C2,16.8121611 2.91142033,18.0029297 4.03571428,18.0029297 L9.32857143,18.0029297 C9.14328405,17.8559862 9.03388138,17.6354806 9.02999999,17.4011466 Z M10.2307129,19 L7.42857144,19 L7.42857144,21 L10.8078571,21 L10.5771429,20.66 C10.268392,20.2002026 9.69274902,19.6403809 9.97998047,19 L10.2307129,19 Z" id="Shape" fill="#EF334E" fill-rule="nonzero"></path>
                            </g>
                        </g>
                    </g>
                </g>
            </g>
        </g>
    </g>
</svg>