<?xml version="1.0" encoding="UTF-8"?>
<svg width="24px" height="24px" viewBox="0 0 24 24" version="1.1" xmlns="http://www.w3.org/2000/svg" xmlns:xlink="http://www.w3.org/1999/xlink">
    <!-- Generator: Sketch 49.3 (51167) - http://www.bohemiancoding.com/sketch -->
    <title>系统</title>
    <desc>Created with Sketch.</desc>
    <defs></defs>
    <g id="Page-1" stroke="none" stroke-width="1" fill="none" fill-rule="evenodd">
        <g id="教务管理-课堂监控-学员监控记录" transform="translate(-316.000000, -987.000000)" fill="#999999" fill-rule="nonzero">
            <g id="设备记录" transform="translate(260.000000, 910.000000)">
                <g id="设备记录一" transform="translate(20.000000, 32.000000)">
                    <g id="设备" transform="translate(18.000000, 28.000000)">
                        <g id="系统_export" transform="translate(18.000000, 17.000000)">
                            <g id="系统" transform="translate(2.000000, 3.000000)">
                                <path d="M19.3333333,11.6666667 L18.4533333,11.6666667 C18.3634589,11.3661656 18.2428202,11.075739 18.0933333,10.8 L18.6933333,10.12 C18.9490444,9.85624843 18.9490444,9.4370849 18.6933333,9.17333333 L17.7466667,8.22666668 C17.4874377,7.97257142 17.0725623,7.97257142 16.8133333,8.22666668 L16.1866667,8.85333334 C15.9052329,8.70608625 15.6106094,8.58555849 15.3066667,8.49333334 L15.3066667,7.66666667 C15.3066667,7.29847684 15.0081898,7.00000001 14.64,7 L13.36,7 C12.9918102,7 12.6933333,7.29847683 12.6933333,7.66666667 L12.6933333,8.54666667 C12.3945679,8.64135213 12.1045896,8.76180464 11.8266667,8.90666666 L11.2,8.28 C10.940771,8.02590476 10.5258957,8.02590476 10.2666667,8.28 L9.36000001,9.17333333 C9.23379158,9.29851106 9.16280113,9.46890831 9.16280113,9.64666667 C9.16280113,9.82442503 9.23379158,9.99482227 9.36000001,10.12 L9.98666667,10.7466667 C9.81068015,11.0365155 9.66757316,11.3450899 9.56,11.6666667 L8.66666667,11.6666667 C8.29847683,11.6666667 8,11.9651435 8,12.3333333 L8,13.6666667 C8.00709348,14.0318779 8.3014554,14.3262399 8.66666667,14.3333333 L9.56,14.3333333 C9.65226348,14.6329781 9.77280581,14.9231726 9.92,15.2 L9.36000001,15.7733333 C9.23379158,15.8985111 9.16280113,16.0689083 9.16280113,16.2466667 C9.16280113,16.424425 9.23379158,16.5948223 9.36000001,16.72 L10.3066667,17.6533333 C10.4276444,17.7822363 10.5965521,17.8553582 10.7733333,17.8553582 C10.9501145,17.8553582 11.1190222,17.7822363 11.24,17.6533333 L11.8,17 C12.0779229,17.144862 12.3679012,17.2653145 12.6666667,17.36 L12.6666667,18.3333333 C12.6737601,18.6985446 12.9681221,18.9929065 13.3333333,19 L14.6666667,19 C15.0348565,19 15.3333333,18.7015232 15.3333333,18.3333333 L15.3333333,17.4 C15.6372761,17.3077748 15.9318995,17.1872471 16.2133333,17.04 L16.84,17.6533333 C16.9609778,17.7822363 17.1298855,17.8553582 17.3066667,17.8553582 C17.4834479,17.8553582 17.6523556,17.7822363 17.7733333,17.6533333 L18.72,16.72 C18.9757111,16.4562484 18.9757111,16.0370849 18.72,15.7733333 L18.0933333,15.1466667 C18.2405275,14.8698393 18.3610699,14.5796448 18.4533333,14.28 L19.3333333,14.28 C19.5101443,14.28 19.6797136,14.2097621 19.8047379,14.0847379 C19.9297621,13.9597136 20,13.7901443 20,13.6133333 L20,12.28 C19.9721353,11.9327854 19.6816625,11.6655504 19.3333333,11.6666667 Z M16.9633566,13.0207416 C16.9572218,14.6617875 15.6284127,15.9905965 13.9873668,15.9967314 C12.3419534,15.9967429 11.0063516,14.6661434 11.0001891,13.0207416 C10.991238,12.2246291 11.3004653,11.4578829 11.8592205,10.8907253 C12.4179758,10.3235678 13.1800215,10.0029316 13.9761789,10 C14.7742774,9.99994962 15.5392088,10.3192724 16.1003882,10.8867572 C16.6615676,11.454242 16.972324,12.2226934 16.9633566,13.0207416 Z" id="Shape"></path>
                                <path d="M7.02999999,14.4011466 L7.02999999,13.0471191 L2.6502511,13.0471191 C2.27548645,13.0471191 1.97167969,12.7477553 1.97167969,12.3784713 L1.97167969,2.68097693 C1.9716797,2.31169294 2.27548646,2.01232911 2.6502511,2.0123291 L16.3910086,2.0123291 C16.7657733,2.0123291 17.0695801,2.31169293 17.0695801,2.68097693 L17.1391602,7.03271484 C17.4465207,6.73002926 18.4483538,7.4268835 18.7557143,7.72956909 L19,8.02377414 L19,2.00594353 C19,0.898091508 18.0885797,6.78363714e-17 16.9642857,0 L2.03571428,0 C0.911420327,4.24148756e-16 -3.61600513e-16,0.898091508 0,2.00594353 L0,12.7043091 C1.37686299e-16,13.8121611 0.911420327,15.0029297 2.03571428,15.0029297 L7.32857143,15.0029297 C7.14328405,14.8559862 7.03388138,14.6354806 7.02999999,14.4011466 Z M8.23071289,16 L5.42857144,16 L5.42857144,18 L8.80785715,18 L8.57714287,17.66 C8.26839202,17.2002026 7.69274902,16.6403809 7.97998047,16 L8.23071289,16 Z" id="Shape"></path>
                            </g>
                        </g>
                    </g>
                </g>
            </g>
        </g>
    </g>
</svg>