<?xml version="1.0" encoding="UTF-8"?>
<svg width="18px" height="18px" viewBox="0 0 18 18" version="1.1" xmlns="http://www.w3.org/2000/svg" xmlns:xlink="http://www.w3.org/1999/xlink">
    <!-- Generator: Sketch 52.5 (67469) - http://www.bohemiancoding.com/sketch -->
    <title>直播-未开始</title>
    <desc>Created with Sketch.</desc>
    <g id="Page-1" stroke="none" stroke-width="1" fill="none" fill-rule="evenodd">
        <g id="iocn-样式" transform="translate(-108.000000, -1553.000000)" fill-rule="nonzero">
            <g id="直播-未开始" transform="translate(108.000000, 1553.000000)">
                <path d="M17.9648034,8.9696509 L17.9648034,6.59939654 C17.9654857,5.91064739 17.68058,5.24984794 17.1727624,4.76236668 C16.6649447,4.27488542 15.9758129,4.00065432 15.2569682,4.00000117 L2.71297951,4.00000117 C1.99324371,3.99934659 1.30279005,4.27300046 0.793859756,4.76062362 C0.284929463,5.24824679 -0.00068196302,5.90979356 1.22282358e-06,6.59939654 L1.22282358e-06,15.4028465 C8.99086014e-07,16.0920226 0.285913761,16.752936 0.794769939,17.240026 C1.30362612,17.727116 1.9936895,18.0004318 2.71297951,17.9997779 L15.3999446,17.9997779 C16.9716041,18.0163707 17.9977864,17.1021596 18,15.5704865 C17.9682957,12.6642323 17.9565635,10.4639538 17.9648034,8.9696509 Z" id="Shape" fill="#CCCCCC"></path>
                <path d="M13.1448939,3.82905922 L14.5418816,1.42637765 C14.7832052,0.981112339 14.6517213,0.425629942 14.2363978,0.135794413 C14.017164,0.0166759107 13.7594769,-0.0100904816 13.5204416,0.061426842 C13.2814062,0.132944166 13.0807632,0.296838953 12.9629765,0.516791061 L11.0339665,3.82905922 L6.96313743,3.82905922 L5.04442458,0.506493855 C4.79776396,0.0499146006 4.22789436,-0.120585468 3.77100335,0.125497207 C3.35098038,0.413701027 3.21873357,0.973892591 3.46551955,1.41951285 L4.85907486,3.82219441" id="Shape" fill="#CCCCCC"></path>
                <path d="M6.71431709,7.07079469 L12.6752458,10.5490087 C12.837241,10.6420929 12.9371175,10.814674 12.9371175,11.0015083 C12.9371175,11.1883427 12.837241,11.3609238 12.6752458,11.454008 L6.71431709,14.9292053 C6.55313702,15.0229831 6.35416742,15.0236355 6.19237593,14.9309165 C6.03058443,14.8381975 5.93055794,14.6661974 5.92998436,14.4797223 L5.92998436,7.52027768 C5.93055794,7.33380257 6.03058443,7.16180249 6.19237593,7.06908352 C6.35416742,6.97636455 6.55313702,6.97701687 6.71431709,7.07079469 Z" id="Shape" fill="#FFFFFF"></path>
            </g>
        </g>
    </g>
</svg>