<?xml version="1.0" encoding="UTF-8"?>
<svg width="16px" height="16px" viewBox="0 0 16 16" version="1.1" xmlns="http://www.w3.org/2000/svg" xmlns:xlink="http://www.w3.org/1999/xlink">
    <!-- Generator: Sketch 49.3 (51167) - http://www.bohemiancoding.com/sketch -->
    <title>助教管理</title>
    <desc>Created with Sketch.</desc>
    <defs></defs>
    <g id="Page-1" stroke="none" stroke-width="1" fill="none" fill-rule="evenodd">
        <g id="概况" transform="translate(-56.000000, -515.000000)" fill="#666666" fill-rule="nonzero">
            <g id="左侧导航" transform="translate(0.000000, 80.000000)">
                <g id="助教管理_export" transform="translate(56.000000, 435.000000)">
                    <path d="M4.61194241,8.78695527 C4.8892564,10.0577607 5.96492192,10.9585808 7.20507123,10.9585808 C8.44522054,10.9585808 9.52088606,10.0577607 9.79820005,8.78695527 L9.73319454,8.78695527 C9.40685497,8.78689853 9.14233309,8.50874963 9.14233309,8.16565518 C9.14233309,7.82256073 9.40685497,7.54441183 9.73319454,7.54435509 L10.8040126,7.54435509 C11.9280169,7.54435509 12.9090091,8.34334701 13.1702131,9.43807776 L13.9266408,11.8139293 C14.1100679,12.5821617 13.9452352,13.3963959 13.4801443,14.0195162 C13.0150533,14.6426364 12.301995,15.0045844 11.5486211,14.9999561 L3.45248053,14.9999561 C2.80392221,15.0019364 2.18117922,14.7329676 1.72124931,14.2522204 C1.2613194,13.7714732 1.00187806,13.1183285 1,12.436472 C1,12.2277152 1.02363836,12.0177157 1.08628003,11.7679531 L1.81788748,9.48405397 C2.09450951,8.34123628 3.07425528,7.54207899 4.19590716,7.54435509 L5.35773288,7.54435509 C5.56888553,7.54431838 5.76401357,7.66272948 5.86959997,7.85497548 C5.97518638,8.04722147 5.97518638,8.28408889 5.86959997,8.47633489 C5.76401357,8.66858088 5.56888553,8.78699198 5.35773288,8.78695527 L4.61194241,8.78695527 Z M2.79516602,9.66723633 L2.03651682,12.280921 C1.94233963,12.6966115 2.03257057,13.1353884 2.28123261,13.4709301 C2.52989465,13.8064718 2.90939556,14.0015456 3.31047891,13.9999908 L11.6785655,13.9986884 C11.7860522,13.9986884 11.8935389,13.9856652 11.9985828,13.957014 C12.7009109,13.7707815 13.1271935,13.0193396 12.9659634,12.329107 L12.1830202,9.60802113 C12.0532077,9.06469008 11.630626,8.65723102 11.1105958,8.57397461 C10.9124154,9.89522633 10.1402924,10.8491941 9.0280783,11.4689331 C7.9158642,12.0886721 6.59438616,12.1115627 5.46387792,11.5306721 C4.36910335,10.9665174 3.84462664,9.96227517 3.58178711,8.69647217 C3.32131286,8.90090154 2.87130666,9.33315666 2.79516602,9.66723633 Z M7.51466373,8.07690115 C6.08553959,8.07699473 4.76493476,7.30729087 4.05034592,6.05775148 C3.33575709,4.80821209 3.33575709,3.26868906 4.05034592,2.01914967 C4.76493476,0.769610281 6.08553959,-9.35830288e-05 7.51466373,0 C9.72370141,0.000144653942 11.5144043,1.80817819 11.5144043,4.03845058 C11.5144043,6.26872296 9.72370141,8.0767565 7.51466373,8.07690115 Z M10.1124415,5.50006751 C10.6483919,4.57182997 10.6483919,3.42817003 10.1124415,2.49993249 C9.57649118,1.57169494 8.58602291,0.999916448 7.51417044,1 C5.85740752,1.00012915 4.5144043,2.34323707 4.5144043,4 C4.5144043,5.65676293 5.85740752,6.99987085 7.51417044,7 C8.58602291,7.00008355 9.57649118,6.42830506 10.1124415,5.50006751 Z" id="助教管理"></path>
                </g>
            </g>
        </g>
    </g>
</svg>