<?xml version="1.0" encoding="UTF-8"?>
<svg width="16px" height="16px" viewBox="0 0 16 16" version="1.1" xmlns="http://www.w3.org/2000/svg" xmlns:xlink="http://www.w3.org/1999/xlink">
    <!-- Generator: Sketch 49.3 (51167) - http://www.bohemiancoding.com/sketch -->
    <title>认证信息2</title>
    <desc>Created with Sketch.</desc>
    <defs></defs>
    <g id="Page-1" stroke="none" stroke-width="1" fill="none" fill-rule="evenodd">
        <g id="概况" transform="translate(-57.000000, -1146.000000)" fill="#EF334E" fill-rule="nonzero">
            <g id="左侧导航" transform="translate(0.000000, 80.000000)">
                <g id="Group-2-Copy" transform="translate(29.000000, 74.000000)">
                    <g id="认证信息2_export" transform="translate(28.000000, 992.000000)">
                        <path d="M1.33125,1.00090453 C0.5971875,1.00090453 0,1.58342242 0,2.30252446 L0,12.6983801 C0,13.4156731 0.5971875,14 1.33125,14 L13.66875,14 C14.4028125,14 15,13.4156731 15,12.6983801 L15,2.30252446 C15,1.58432695 14.4028125,1 13.66875,1 L1.33125,1.00090453 Z M13.99999,12.6216696 C14.0007315,12.7213032 13.9600583,12.8171375 13.8869187,12.8880888 C13.813779,12.95904 13.7141645,12.9992959 13.6099906,13 L1.39000936,13 C1.28583545,12.9992959 1.18622099,12.95904 1.11308135,12.8880888 C1.03994171,12.8171375 0.99926852,12.7213032 1.00000996,12.6216696 L1.00000996,2.37833037 C1.00000996,2.169627 1.17458112,2 1.39000936,2 L13.6099906,2 C13.8244903,2 13.99999,2.169627 13.99999,2.37833037 L13.99999,12.6216696 Z M12.025513,6.37966383 C12.025513,5.36169788 11.235072,4.53307736 10.2608077,4.53307736 C9.28654328,4.53307736 8.49610237,5.36169788 8.49610237,6.37966383 C8.49610237,6.8624009 8.67900672,7.300145 8.97036692,7.63009345 C8.09042184,8.11421562 7.54244088,9.05223961 7.5438968,10.0718994 C7.5438968,10.3268596 7.74150703,10.5330774 7.98507313,10.5330774 C8.22863922,10.5330774 8.42624945,10.3268596 8.42624945,10.0718994 C8.42624945,9.05393347 9.2185286,8.22531294 10.1909547,8.22531294 C11.1633809,8.22531294 11.95566,9.05393347 11.95566,10.0718994 C11.95566,10.3268596 12.1532703,10.5330774 12.3968364,10.5330774 C12.6404025,10.5330774 12.8380127,10.3268596 12.8380127,10.0718994 C12.8395093,9.09232072 12.3338952,8.18468386 11.5080499,7.68445995 C11.8409883,7.33512687 12.0267114,6.86682128 12.025513,6.37966383 Z M9.37845502,6.37966383 C9.37845502,5.87068085 9.77459459,5.45637059 10.2608077,5.45637059 C10.7470207,5.45637059 11.1431603,5.87068085 11.1431603,6.37966383 C11.1482728,6.88245498 10.753793,7.29481938 10.2608077,7.30201971 C9.76782235,7.29481938 9.37334249,6.88245498 9.37845502,6.37966383 Z M2.98376465,5 L5.98376465,5 C6.25990702,5 6.48376465,5.22385763 6.48376465,5.5 C6.48376465,5.77614237 6.25990702,6 5.98376465,6 L2.98376465,6 C2.70762227,6 2.48376465,5.77614237 2.48376465,5.5 C2.48376465,5.22385763 2.70762227,5 2.98376465,5 Z M2.98376465,7 L5.98376465,7 C6.25990702,7 6.48376465,7.22385763 6.48376465,7.5 C6.48376465,7.77614237 6.25990702,8 5.98376465,8 L2.98376465,8 C2.70762227,8 2.48376465,7.77614237 2.48376465,7.5 C2.48376465,7.22385763 2.70762227,7 2.98376465,7 Z M2.98376465,9 L5.98376465,9 C6.25990702,9 6.48376465,9.22385763 6.48376465,9.5 C6.48376465,9.77614237 6.25990702,10 5.98376465,10 L2.98376465,10 C2.70762227,10 2.48376465,9.77614237 2.48376465,9.5 C2.48376465,9.22385763 2.70762227,9 2.98376465,9 Z" id="认证信息2"></path>
                    </g>
                </g>
            </g>
        </g>
    </g>
</svg>