<?xml version="1.0" encoding="UTF-8"?>
<svg width="16px" height="16px" viewBox="0 0 16 16" version="1.1" xmlns="http://www.w3.org/2000/svg" xmlns:xlink="http://www.w3.org/1999/xlink">
    <!-- Generator: Sketch 49.3 (51167) - http://www.bohemiancoding.com/sketch -->
    <title>聊天区管理2</title>
    <desc>Created with Sketch.</desc>
    <defs></defs>
    <g id="Page-1" stroke="none" stroke-width="1" fill="none" fill-rule="evenodd">
        <g id="概况" transform="translate(-57.000000, -1192.000000)" fill="#EF334E" fill-rule="nonzero">
            <g id="左侧导航" transform="translate(0.000000, 80.000000)">
                <g id="Group-2-Copy" transform="translate(29.000000, 74.000000)">
                    <g id="聊天区管理2_export" transform="translate(28.000000, 1038.000000)">
                        <g id="聊天区管理2">
                            <path d="M10.5599482,3 L1.43999013,3 C0.64483477,3 0,3.73228602 0,4.6357182 L0,11.1778545 C0,12.0812866 0.644819348,12.8134499 1.43999013,12.8134499 L2.40346384,12.8134499 L2.41082024,13.9972153 C2.54892642,14.6743641 3.2287851,15.4856906 4.36765596,14.6334146 L6.16803303,12.8134499 L10.5600099,12.8134499 C11.3549493,12.8134499 12,12.0812866 12,11.1778545 L12,4.63573574 C12,3.73230356 11.3549956,3 10.5600099,3 L10.5599482,3 Z M10.9999388,10.6514918 C10.9999388,11.2654622 10.5734865,11.7631635 10.04757,11.7631635 L5.82304075,11.7673645 L3.778585,13.9259588 C3.34887384,14.2416231 3.38095759,13.4457945 3.38095759,13.4457945 L3.38095759,12.6110665 C3.39169807,12.2511041 3.37298638,11.7652908 3.37298638,11.7652908 C3.37298638,11.7652908 3.09437638,11.7592843 2.94757447,11.7631456 L1.9524273,11.7631456 C1.42646487,11.7631456 1.00004317,11.2654265 1.00004317,10.651474 L1.00004317,5.11140349 C1.00004317,4.49764762 1.42646487,4 1.9524273,4 L10.0476312,4 C10.5735477,4 11,4.49764762 11,5.11140349 L11,10.6514918 L10.9999388,10.6514918 Z M4.49999649,4.989648e-05 C3.67147879,4.989648e-05 2.99997992,0.694359416 2.99997992,1.5511984 L2.99997992,2.02496338 L3.9999749,2.02496338 L3.9999749,2.06812594 C3.9999749,1.49711062 4.44767294,1.03427087 4.99996988,1.03427087 L12.999994,1.03427087 C13.5522106,1.03427087 13.999989,1.49712725 13.999989,2.06812594 L13.999989,7.20659851 C13.999989,7.77759719 13.5522106,8.24065316 12.999994,8.24065316 L12.9939575,9.27469118 L13.4999995,9.27469118 C14.3280674,9.27469118 15,8.58051472 15,7.72347615 L15,1.55114851 C15,0.694342784 14.3281156,0 13.4999995,0 L4.49999649,4.989648e-05 Z M8.53848549,6 L3.46154417,6 C3.20657082,6 3,6.22392717 3,6.50009651 C3,6.77626584 3.20655599,7 3.46154417,7 L8.53847066,7 C8.79326606,7 9,6.77629801 9,6.50009651 C9,6.223895 8.79331055,6 8.53848549,6 Z M8.4545582,8 L3.54545933,8 C3.24412827,8 3,8.22381458 3,8.49990349 C3,8.77626584 3.24411075,9 3.54545933,9 L8.4545582,9 C8.75567895,9 9,8.77628193 9,8.49990349 C9,8.22384675 8.75573152,8 8.4545582,8 Z" id="Shape"></path>
                        </g>
                    </g>
                </g>
            </g>
        </g>
    </g>
</svg>