<?xml version="1.0" encoding="UTF-8"?>
<svg width="16px" height="16px" viewBox="0 0 16 16" version="1.1" xmlns="http://www.w3.org/2000/svg" xmlns:xlink="http://www.w3.org/1999/xlink">
    <!-- Generator: Sketch 49.3 (51167) - http://www.bohemiancoding.com/sketch -->
    <title>选课中心</title>
    <desc>Created with Sketch.</desc>
    <defs></defs>
    <g id="Page-1" stroke="none" stroke-width="1" fill="none" fill-rule="evenodd">
        <g id="概况" transform="translate(-31.000000, -920.000000)" fill="#666666" fill-rule="nonzero">
            <g id="左侧导航" transform="translate(0.000000, 80.000000)">
                <g id="课程广场" transform="translate(31.000000, 840.000000)">
                    <g id="选课中心_export">
                        <path d="M4.50575421,5.00091553 L9.50575421,5.00091553 C9.78189658,5.00091553 10.0057542,4.7770579 10.0057542,4.50091553 L10.0057542,4.50091553 C10.0057542,4.22477315 9.78189658,4.00091553 9.50575421,4.00091553 L4.50575421,4.00091553 C4.22961183,4.00091553 4.00575421,4.22477315 4.00575421,4.50091553 L4.00575421,4.50091553 C4.00575421,4.7770579 4.22961183,5.00091553 4.50575421,5.00091553 Z M4.50575421,7.00091553 L11.5057542,7.00091553 C11.7818966,7.00091553 12.0057542,6.7770579 12.0057542,6.50091553 L12.0057542,6.50091553 C12.0057542,6.22477315 11.7818966,6.00091553 11.5057542,6.00091553 L4.50575421,6.00091553 C4.22961183,6.00091553 4.00575421,6.22477315 4.00575421,6.50091553 L4.00575421,6.50091553 C4.00575421,6.7770579 4.22961183,7.00091553 4.50575421,7.00091553 Z M6.50575421,9.00091553 L11.5057542,9.00091553 C11.7818966,9.00091553 12.0057542,8.7770579 12.0057542,8.50091553 L12.0057542,8.50091553 C12.0057542,8.22477315 11.7818966,8.00091553 11.5057542,8.00091553 L6.50575421,8.00091553 C6.22961183,8.00091553 6.00575421,8.22477315 6.00575421,8.50091553 L6.00575421,8.50091553 C6.00575421,8.7770579 6.22961183,9.00091553 6.50575421,9.00091553 Z M8.50575421,11.0009155 L11.5057542,11.0009155 C11.7818966,11.0009155 12.0057542,10.7770579 12.0057542,10.5009155 L12.0057542,10.5009155 C12.0057542,10.2247732 11.7818966,10.0009155 11.5057542,10.0009155 L8.50575421,10.0009155 C8.22961183,10.0009155 8.00575421,10.2247732 8.00575421,10.5009155 L8.00575421,10.5009155 C8.00575421,10.7770579 8.22961183,11.0009155 8.50575421,11.0009155 Z M3.50933838,10.0071411 L3.50933838,10.0071411 C3.23070155,10.0071411 3.00482178,10.2330209 3.00482178,10.5116577 L3.00482178,11.9893799 L1.52324078,11.9893799 C1.23744084,11.9893799 1.00575421,12.2210665 1.00575421,12.5068665 L1.00575421,12.5068665 C1.00575421,12.7926664 1.23744084,13.024353 1.52324078,13.024353 L3.00482178,13.024353 L3.00482178,14.4882202 C3.00482178,14.766857 3.23070155,14.9927368 3.50933838,14.9927368 L3.50933838,14.9927368 C3.7879752,14.9927368 4.01385498,14.766857 4.01385498,14.4882202 L4.01385498,13.024353 L5.49807739,13.024353 C5.78387733,13.024353 6.01556396,12.7926664 6.01556396,12.5068665 L6.01556396,12.5068665 C6.01556396,12.2210665 5.78387733,11.9893799 5.49807739,11.9893799 L4.01385498,11.9893799 L4.01385498,10.5116577 C4.01385498,10.2330209 3.7879752,10.0071411 3.50933838,10.0071411 Z M1.98657227,2.00091553 L1.98657227,8.48049927 C1.98657227,8.76648461 2.21840919,8.99832153 2.50439453,8.99832153 L2.50439453,8.99832153 C2.79037987,8.99832153 3.0222168,8.76648461 3.0222168,8.48049927 L3.0222168,2.5213623 C3.0222168,2.24521993 3.24607442,2.0213623 3.5222168,2.0213623 L12.5060425,2.0213623 C12.7821849,2.0213623 13.0060425,2.24521993 13.0060425,2.5213623 L13.0060425,13.4904175 C13.0060425,13.7665599 12.7821849,13.9904175 12.5060425,13.9904175 L7.11958028,13.9904175 C7.05027246,13.9904175 6.98590515,14.0263 6.9494615,14.0852529 L6.56545878,14.7064321 C6.50737797,14.8003861 6.53645894,14.9236347 6.63041295,14.9817155 C6.66201229,15.0012497 6.69842783,15.0115967 6.73557757,15.0115967 L13,15.0115967 C13.5522847,15.0115967 14,14.5638814 14,14.0115967 L14,2.00091553 C14,1.44863078 13.5522847,1.00091553 13,1.00091553 L2.98657227,1.00091553 C2.43428752,1.00091553 1.98657227,1.44863078 1.98657227,2.00091553 Z" id="选课中心"></path>
                    </g>
                </g>
            </g>
        </g>
    </g>
</svg>