<?xml version="1.0" encoding="UTF-8"?>
<svg width="16px" height="16px" viewBox="0 0 16 16" version="1.1" xmlns="http://www.w3.org/2000/svg" xmlns:xlink="http://www.w3.org/1999/xlink">
    <!-- Generator: Sketch 49.3 (51167) - http://www.bohemiancoding.com/sketch -->
    <title>课堂监控2</title>
    <desc>Created with Sketch.</desc>
    <defs></defs>
    <g id="Page-1" stroke="none" stroke-width="1" fill="none" fill-rule="evenodd">
        <g id="概况" transform="translate(-56.000000, -875.000000)" fill="#EF334E" fill-rule="nonzero">
            <g id="左侧导航" transform="translate(0.000000, 80.000000)">
                <g id="Group-2-Copy" transform="translate(29.000000, 74.000000)">
                    <g id="课堂监控2_export" transform="translate(27.000000, 721.000000)">
                        <path d="M5,11.6195323 L6.5,8.52747253 L7.1,9.81318681 C7.1,9.81318681 7.2,10.1098901 7.5,10.1098901 C7.8,10.1098901 8,9.81318681 8,9.81318681 L10.5,5.95604396 C11,5.85714286 11.4,5.46153846 11.4,4.96703297 C11.4,4.37362637 11,3.97802198 10.4,3.97802198 C9.8,3.97802198 9.4,4.37362637 9.4,4.96703297 C9.4,5.16483516 9.5,5.36263736 9.6,5.56043956 L7.7,8.52747253 L7,7.24175824 C7,7.24175824 6.9,6.94505495 6.5,6.94505495 C6.2,6.94505495 6.1,7.24175824 6.1,7.24175824 L4.2,11.0115967 L2.5,11.0115967 C2.2,11.0115967 2,10.8137945 2,10.5170912 L2,3.48351648 C2,3.18681319 2.2,2.98901099 2.5,2.98901099 L13.5,2.98901099 C13.8,2.98901099 14,3.18681319 14,3.48351648 L14,10.5170912 C14,10.8137945 13.8,11.0115967 13.5,11.0115967 L8,11.0115967 C7.72385763,11.0115967 7.5,11.2354543 7.5,11.5115967 L7.5,13.010989 L4.5,13.010989 C4.2,13.010989 4,13.2087912 4,13.5054945 C4,13.8021978 4.2,14 4.5,14 L11.5,14 C11.8,14 12,13.8021978 12,13.5054945 C12,13.2087912 11.8,13.010989 11.5,13.010989 L8.5,13.010989 L8.5,12.0151367 L14,12.0151367 C14.5,12.0151367 15,11.5206312 15,11.0261257 L15,2.98901099 C15,2.3956044 14.5,2 14,2 L2,2 C1.5,2 1,2.3956044 1,2.98901099 L1,11.0261257 C1,11.5206312 1.5,12.0151367 2,12.0151367 L4.5,12.0151367 C4.5,12.0151367 4.7,12.0151367 4.8,11.9162356 C4.9,11.8173345 5,11.6195323 5,11.6195323 Z" id="课堂监控2"></path>
                    </g>
                </g>
            </g>
        </g>
    </g>
</svg>