<?xml version="1.0" encoding="UTF-8"?>
<svg width="16px" height="16px" viewBox="0 0 16 16" version="1.1" xmlns="http://www.w3.org/2000/svg" xmlns:xlink="http://www.w3.org/1999/xlink">
    <!-- Generator: Sketch 49.3 (51167) - http://www.bohemiancoding.com/sketch -->
    <title>课程广场</title>
    <desc>Created with Sketch.</desc>
    <defs></defs>
    <g id="Page-1" stroke="none" stroke-width="1" fill="none" fill-rule="evenodd">
        <g id="概况" transform="translate(-57.000000, -965.000000)" fill="#666666" fill-rule="nonzero">
            <g id="左侧导航" transform="translate(0.000000, 80.000000)">
                <g id="Group-2" transform="translate(29.000000, 74.000000)">
                    <g id="课程广场_export" transform="translate(28.000000, 811.000000)">
                        <path d="M2.0098234,14.9973951 C1.73722539,14.9967272 1.47641567,14.8851722 1.28641207,14.6879735 C1.09640847,14.4907749 0.99327191,14.2246016 1.00034084,13.9496853 L1.00034084,6.11759744 C0.995042078,5.84751225 1.10029644,5.51218535 1.29131702,5.32287688 C1.4823376,5.13356842 1.7422418,5.03203552 2.0098234,5.04218871 L3.55838847,5.04218871 C3.79547991,5.04218871 3.98768049,5.23608849 3.98768049,5.47527598 C3.98768049,5.71446347 3.79547991,5.9833374 3.55838847,5.9833374 L2.68749428,5.98521972 C2.11086495,5.98521972 1.93764831,6.16299029 1.93764831,6.74169486 L1.93764831,13.9974365 L5.00619507,13.9974365 L5.00619507,2.02935791 C4.98654712,1.77300614 5.07897006,1.4396597 5.25918597,1.25785056 C5.43940187,1.07604142 5.78074578,0.982801392 6.03485107,1.00262304 L10.0189914,1.00262304 C10.2730967,0.982801392 10.523092,1.07604142 10.7033079,1.25785056 C10.8835238,1.4396597 10.9759468,1.77300614 10.9562988,2.02935791 L10.9562988,13.9974365 L14.0599169,13.9974365 L14.0599169,5.87756568 C14.0599169,5.29886111 13.843589,5.00006104 13.2667623,5.00006104 L12.4833057,5.00006104 C12.2462193,5.00006104 12.0411312,4.82150269 12.0411312,4.51077271 C12.0411312,4.20004272 12.2462193,4.01672363 12.4833057,4.01672363 L13.9877239,4.01672363 C14.2562531,4.00900733 14.5161863,4.11264053 14.7069389,4.30346859 C14.8976914,4.49429665 15.0051978,4.83452553 14.9998065,5.10548401 L14.9972064,14.051783 C15.0168544,14.3081348 14.9244315,14.5603403 14.7442156,14.7421494 C14.5639996,14.9239586 14.3140043,15.0171986 14.059899,14.997377 L2.0098234,14.9973951 Z M10.0189914,2.70471021 C10.0189914,2.12600564 9.84817673,2.02935791 9.27954357,2.02935791 L6.73944779,2.02935791 C6.17083233,2.02935791 6,2.12600564 6,2.70471021 L6,13.9974546 L10.0189914,13.9974546 L10.0189914,2.70471021 Z M3.4999742,12 L3.4999613,12 C3.77609655,12 3.9999484,12.2238518 3.9999484,12.4999871 L3.9999484,12.5 C3.9999484,12.7761424 3.77609078,13 3.4999484,13 L3.4999613,13 C3.22382605,13 2.9999742,12.7761482 2.9999742,12.5000129 L2.9999742,12.5 C2.9999742,12.2238576 3.22383183,12 3.4999742,12 Z M3.4999742,10 L3.4999613,10 C3.77609655,10 3.9999484,10.2238518 3.9999484,10.4999871 L3.9999484,10.5 C3.9999484,10.7761424 3.77609078,11 3.4999484,11 L3.4999613,11 C3.22382605,11 2.9999742,10.7761482 2.9999742,10.5000129 L2.9999742,10.5 C2.9999742,10.2238576 3.22383183,10 3.4999742,10 Z M12.4999742,12 L12.4999613,12 C12.7760966,12 12.9999484,12.2238518 12.9999484,12.4999871 L12.9999484,12.5 C12.9999484,12.7761424 12.7760908,13 12.4999484,13 L12.4999613,13 C12.2238261,13 11.9999742,12.7761482 11.9999742,12.5000129 L11.9999742,12.5 C11.9999742,12.2238576 12.2238318,12 12.4999742,12 Z M12.4999742,10 L12.4999613,10 C12.7760966,10 12.9999484,10.2238518 12.9999484,10.4999871 L12.9999484,10.5 C12.9999484,10.7761424 12.7760908,11 12.4999484,11 L12.4999613,11 C12.2238261,11 11.9999742,10.7761482 11.9999742,10.5000129 L11.9999742,10.5 C11.9999742,10.2238576 12.2238318,10 12.4999742,10 Z M7.4999742,12 L8.4999484,12 C8.77609078,12 8.9999484,12.2238576 8.9999484,12.5 C8.9999484,12.7761424 8.77609078,13 8.4999484,13 L7.4999742,13 C7.22383183,13 6.9999742,12.7761424 6.9999742,12.5 C6.9999742,12.2238576 7.22383183,12 7.4999742,12 Z M7.4999742,10 L8.4999484,10 C8.77609078,10 8.9999484,10.2238576 8.9999484,10.5 C8.9999484,10.7761424 8.77609078,11 8.4999484,11 L7.4999742,11 C7.22383183,11 6.9999742,10.7761424 6.9999742,10.5 C6.9999742,10.2238576 7.22383183,10 7.4999742,10 Z M7.4999742,8 L8.4999484,8 C8.77609078,8 8.9999484,8.22385763 8.9999484,8.5 C8.9999484,8.77614237 8.77609078,9 8.4999484,9 L7.4999742,9 C7.22383183,9 6.9999742,8.77614237 6.9999742,8.5 C6.9999742,8.22385763 7.22383183,8 7.4999742,8 Z M7.4999742,6 L8.4999484,6 C8.77609078,6 8.9999484,6.22385763 8.9999484,6.5 C8.9999484,6.77614237 8.77609078,7 8.4999484,7 L7.4999742,7 C7.22383183,7 6.9999742,6.77614237 6.9999742,6.5 C6.9999742,6.22385763 7.22383183,6 7.4999742,6 Z" id="课程广场"></path>
                    </g>
                </g>
            </g>
        </g>
    </g>
</svg>