<?xml version="1.0" encoding="UTF-8"?>
<svg width="16px" height="16px" viewBox="0 0 16 16" version="1.1" xmlns="http://www.w3.org/2000/svg" xmlns:xlink="http://www.w3.org/1999/xlink">
    <!-- Generator: Sketch 49.3 (51167) - http://www.bohemiancoding.com/sketch -->
    <title>课件管理</title>
    <desc>Created with Sketch.</desc>
    <defs></defs>
    <g id="Page-1" stroke="none" stroke-width="1" fill="none" fill-rule="evenodd">
        <g id="概况" transform="translate(-58.000000, -332.000000)" fill="#666666" fill-rule="nonzero">
            <g id="左侧导航" transform="translate(0.000000, 80.000000)">
                <g id="课件管理_export" transform="translate(58.000000, 252.000000)">
                    <path d="M14.6083516,4.33025404 C14.8910085,4.40300231 15.0606026,4.69399538 14.9798435,4.97690531 L12.6620574,13.6258661 C12.4520838,14.4341801 11.717176,15 10.8772814,15 L2.77714409,15 C2.74484045,15 2.71253681,15 2.68023318,14.9919169 C2.56717044,14.9676674 1.5173022,14.7494226 1.0973549,13.8845266 C0.88738125,13.4561201 1.08120308,12.3648961 1.08927899,12.3244804 L3.85931597,1.98614319 C4.01275826,1.40415704 4.53769238,1 5.1433856,1 L12.1532751,1 C12.5732224,1 12.9608661,1.19399538 13.2112193,1.52540416 C13.4615725,1.85681293 13.5423316,2.27713626 13.4373447,2.6812933 L10.9418887,12.0011547 C10.7884464,12.5831409 10.2635123,12.9872979 9.65781905,12.9872979 L2.00993268,12.9872979 C1.96955313,13.1570439 1.98570495,13.3106236 2.04223632,13.4318707 C2.1956786,13.7471132 2.65600545,13.908776 2.83367546,13.9491917 L10.8692055,13.9491917 C11.2326214,13.9491917 11.5475819,13.6986143 11.6444928,13.3510393 L13.9622789,4.70207852 C14.043038,4.41916859 14.3256948,4.25750577 14.6083516,4.33025404 Z M4.86880467,2.25288684 L2.2764377,11.9284065 L9.64974314,11.9284065 C9.7789577,11.9284065 9.89202043,11.8394919 9.92432407,11.7182448 L12.4197801,2.39838337 C12.4520838,2.2852194 12.4036283,2.19630485 12.3713247,2.15588915 C12.339021,2.11547344 12.2663378,2.04272517 12.1451992,2.04272517 L5.1433856,2.04272517 C5.01417104,2.04272517 4.90110831,2.13163972 4.86880467,2.25288684 Z M10.1371386,5.2745098 L5.76230956,5.2745098 C5.46682393,5.2745098 5.22879383,4.99019608 5.22879383,4.6372549 C5.22879383,4.28431373 5.46682393,4 5.76230956,4 L10.1371386,4 C10.4326242,4 10.6706543,4.28431373 10.6706543,4.6372549 C10.6706543,4.99019608 10.4326242,5.2745098 10.1371386,5.2745098 Z M9.58720696,6.7254902 C9.8826926,6.7254902 10.1207227,7.00980392 10.1207227,7.3627451 C10.1207227,7.71568627 9.8826926,8 9.57899903,8 L5.20417003,8 C4.90868439,8 4.6706543,7.71568627 4.6706543,7.3627451 C4.6706543,7.00980392 4.90868439,6.7254902 5.20417003,6.7254902 L9.58720696,6.7254902 Z" id="课件管理"></path>
                </g>
            </g>
        </g>
    </g>
</svg>