<?xml version="1.0" encoding="UTF-8"?>
<svg width="16px" height="16px" viewBox="0 0 16 16" version="1.1" xmlns="http://www.w3.org/2000/svg" xmlns:xlink="http://www.w3.org/1999/xlink">
    <!-- Generator: Sketch 49.3 (51167) - http://www.bohemiancoding.com/sketch -->
    <title>课程分类</title>
    <desc>Created with Sketch.</desc>
    <defs></defs>
    <g id="Page-1" stroke="none" stroke-width="1" fill="none" fill-rule="evenodd">
        <g id="概况" transform="translate(-57.000000, -289.000000)" fill="#666666" fill-rule="nonzero">
            <g id="左侧导航" transform="translate(0.000000, 80.000000)">
                <g id="课程分类_export" transform="translate(57.000000, 209.000000)">
                    <g id="课程分类" transform="translate(1.000000, 2.000000)">
                        <path d="M4,7.5 L4,10.5 C4,10.7761424 4.22385763,11 4.5,11 L9.5,11 C9.77614237,11 10,10.7761424 10,10.5 L10,7.5 C10,7.22385763 9.77614237,7 9.5,7 L4.5,7 C4.22385763,7 4,7.22385763 4,7.5 Z M8.8,10 L5.2,10 C5.08954305,10 5,9.91045695 5,9.8 L5,8.2 C5,8.08954305 5.08954305,8 5.2,8 L8.8,8 C8.91045695,8 9,8.08954305 9,8.2 L9,9.8 C9,9.91045695 8.91045695,10 8.8,10 Z" id="Shape"></path>
                        <path d="M6,0.492146597 C6,0.230366492 5.8,0 5.52222222,0 L4.48333333,0 C4.20555556,0 4,0.230366492 4,0.492146597 L4,0.984293194 L6,1 L6,0.492146597 Z" id="Shape"></path>
                        <path d="M11,5 L11,1.77446809 C11,1.34893617 10.6347826,1 10.2,1 L7.8173913,1 C7.3826087,1 7,1.34893617 7,1.77446809 L7,5 L11,5 Z" id="Shape"></path>
                        <path d="M13,5 L13,4.45 C13,4.2 12.8055556,4 12.5277778,4 L12.45,4 C12.1722222,4 12,4.22 12,4.47 L12,5 L13,5 Z" id="Shape"></path>
                        <polygon id="Shape" points="1 4 3 4 3 5 1 5 1 4"></polygon>
                        <polygon id="Shape" points="4 2 6 2 6 5 4 5"></polygon>
                        <path d="M3,1.49180328 C3,1.21857923 2.7037037,1 2.33333333,1 L1.64444444,1 C1.27407407,1 1,1.21857923 1,1.49180328 L1,3 L3,2.98360656 L3,1.49180328 Z" id="Shape"></path>
                        <path d="M1.12,5 L1,5 C0.44771525,5 -6.76353751e-17,5.44771525 0,6 L0,12 C6.76353751e-17,12.5522847 0.44771525,13 1,13 L13,13 C13.5522847,13 14,12.5522847 14,12 L14,5.824 L14,5.824 C14,5.36891737 13.6310826,5 13.176,5 L13.04,5 L1.12,5 Z M12.5090637,12.012085 L1.49777222,12.012085 C1.22162984,12.012085 0.997772217,11.7882273 0.997772217,11.512085 L0.997772217,6.51260376 C0.997772217,6.23646138 1.22162984,6.01260376 1.49777222,6.01260376 L12.5090637,6.01260376 C12.7852061,6.01260376 13.0090637,6.23646138 13.0090637,6.51260376 L13.0090637,11.512085 C13.0090637,11.7882273 12.7852061,12.012085 12.5090637,12.012085 Z" id="Shape"></path>
                    </g>
                </g>
            </g>
        </g>
    </g>
</svg>