<?xml version="1.0" encoding="UTF-8"?>
<svg width="16px" height="16px" viewBox="0 0 16 16" version="1.1" xmlns="http://www.w3.org/2000/svg" xmlns:xlink="http://www.w3.org/1999/xlink">
    <!-- Generator: Sketch 52.5 (67469) - http://www.bohemiancoding.com/sketch -->
    <title>课程管理</title>
    <desc>Created with Sketch.</desc>
    <g id="Page-1" stroke="none" stroke-width="1" fill="none" fill-rule="evenodd">
        <g id="iocn-样式" transform="translate(-1030.000000, -91.000000)" fill-rule="nonzero">
            <g id="课程管理_export" transform="translate(1030.000000, 91.000000)">
                <g id="课程管理">
                    <rect id="矩形" fill="#D8D8D8" opacity="0" x="0" y="0" width="16" height="16"></rect>
                    <path d="M14.132,1 C14.608,1 15,1.392 15,1.868 L15,14.132 C15,14.608 14.608,15 14.132,15 L1.868,15 C1.392,15 1,14.608 1,14.132 L1,1.868 C1,1.392 1.392,1 1.868,1 L14.132,1 Z M13.5353192,13.9723645 C13.7813267,13.9723645 13.9726658,13.7810253 14,13.5350178 L14,2.43734665 C14,2.19133916 13.8086608,2 13.5626534,2 L8.01381777,2 L8.01381777,5.41677068 C8.01381777,5.66277817 7.82247861,5.85411733 7.57647112,5.85411733 L6.03280518,5.17861938 L4.42715378,5.85411733 C4.18114629,5.85411733 3.98980713,5.66277817 3.98980713,5.41677068 L3.98980713,2 L2.43764802,2 C2.19164053,2 2.00030137,2.19133916 2.00030137,2.43734665 L2.00030137,13.5350178 C2.00030137,13.7810253 2.19164053,13.9723645 2.43764802,13.9723645 L13.5353192,13.9723645 Z M4.976,2.01898193 L4.976,1.868 L4.976,4.67195361 L5.75280518,4.27995361 L6.03280518,4.13995361 L6.31280518,4.27995361 L7.00909424,4.67195361 L7.00909424,2.01898193 L4.976,2.01898193 Z M4.56542969,8 L5.42858887,8 C5.80358887,8 6,8.21875 6,8.5 C6,8.78125 5.80358887,9 5.42858887,9 L4.56542969,9 C4.19042969,9 4,8.78125 4,8.5 C4,8.21875 4.19042969,8 4.56542969,8 Z M11.5090637,8 C11.7450188,8 12,8.21875 12,8.5 C12,8.78125 11.7450188,9 11.5090637,9 L7.50033569,9 C7.26438064,9 7.02130127,8.78125 7.02130127,8.5 C7.02130127,8.21875 7.26438064,8 7.50033569,8 L11.5090637,8 Z M4.56542969,11 L5.42858887,11 C5.80358887,11 6,11.21875 6,11.5 C6,11.78125 5.80358887,12 5.42858887,12 L4.56542969,12 C4.19042969,12 4,11.78125 4,11.5 C4,11.21875 4.19042969,11 4.56542969,11 Z M11.5090637,11 C11.7450188,11 12,11.21875 12,11.5 C12,11.78125 11.7450188,12 11.5090637,12 L7.50033569,12 C7.26438064,12 7.02130127,11.78125 7.02130127,11.5 C7.02130127,11.21875 7.26438064,11 7.50033569,11 L11.5090637,11 Z" id="Combined-Shape" fill="#666666"></path>
                </g>
            </g>
        </g>
    </g>
</svg>