<?xml version="1.0" encoding="UTF-8"?>
<svg width="16px" height="16px" viewBox="0 0 16 16" version="1.1" xmlns="http://www.w3.org/2000/svg" xmlns:xlink="http://www.w3.org/1999/xlink">
    <!-- Generator: Sketch 49.3 (51167) - http://www.bohemiancoding.com/sketch -->
    <title>数据总览</title>
    <desc>Created with Sketch.</desc>
    <defs></defs>
    <g id="Page-1" stroke="none" stroke-width="1" fill="none" fill-rule="evenodd">
        <g id="概况" transform="translate(-59.000000, -651.000000)" fill="#666666" fill-rule="nonzero">
            <g id="左侧导航" transform="translate(0.000000, 80.000000)">
                <g id="Group-2" transform="translate(29.000000, 74.000000)">
                    <g id="数据总览_export" transform="translate(30.000000, 497.000000)">
                        <path d="M15.4932432,13 L14.0135135,13 L14.0135135,5.99527588 C14.0135135,5.49527588 13.6081081,4.99527588 13,4.99527588 L11.0053711,4.99527588 L11.0053711,3.00939941 C11.0053711,2.50939941 10.5391054,2.00939941 9.93099728,2.00939941 L8.01430697,2.00939941 C7.50755021,2.00939941 7.00866699,2.40939941 7.00866699,3.00939941 L7.00866699,8.00701904 L5.01449008,8.00701904 C4.50773332,8.00701904 4.00097656,8.40701904 4.00097656,9.00701904 L4.00097656,13 L2.01351351,13 L2.01351351,1.5 C2.01351351,1.2 1.81081081,1 1.50675676,1 C1.2027027,1 1,1.2 1,1.5 L1,13 C1,13.5 1.40540541,14 2.01351351,14 L15.4932432,14 C15.7972973,14 16,13.8 16,13.5 C16,13.2 15.6959459,13 15.4932432,13 Z M5.01449008,9.00701904 L7.00073242,9.00701904 L7.00073242,13 L5.01449008,13 L5.01449008,9.00701904 Z M8.03634066,3 L9.99212646,3 L9.99212646,13 L8.03634066,13 L8.03634066,3 Z M11.0053711,6.01489258 L13,6.01489258 L13,13 L11.0053711,13 L11.0053711,6.01489258 Z" id="数据总览"></path>
                    </g>
                </g>
            </g>
        </g>
    </g>
</svg>