<?xml version="1.0" encoding="UTF-8"?>
<svg width="16px" height="16px" viewBox="0 0 16 16" version="1.1" xmlns="http://www.w3.org/2000/svg" xmlns:xlink="http://www.w3.org/1999/xlink">
    <!-- Generator: Sketch 49.3 (51167) - http://www.bohemiancoding.com/sketch -->
    <title>数据统计2</title>
    <desc>Created with Sketch.</desc>
    <defs></defs>
    <g id="Page-1" stroke="none" stroke-width="1" fill="none" fill-rule="evenodd">
        <g id="概况" transform="translate(-31.000000, -606.000000)" fill="#EF334E" fill-rule="nonzero">
            <g id="左侧导航" transform="translate(0.000000, 80.000000)">
                <g id="Group-2-Copy" transform="translate(29.000000, 74.000000)">
                    <g id="数据统计2_export" transform="translate(2.000000, 452.000000)">
                        <path d="M3.5,4 C3.77614237,4 4,4.22385763 4,4.5 L4,9.5 C4,9.77614237 3.77614237,10 3.5,10 C3.22385763,10 3,9.77614237 3,9.5 L3,4.5 C3,4.22385763 3.22385763,4 3.5,4 Z M5.5,6 C5.77614237,6 6,6.22385763 6,6.5 L6,9.5 C6,9.77614237 5.77614237,10 5.5,10 C5.22385763,10 5,9.77614237 5,9.5 L5,6.5 C5,6.22385763 5.22385763,6 5.5,6 Z M7.5,7 C7.77614237,7 8,7.22385763 8,7.5 L8,9.5 C8,9.77614237 7.77614237,10 7.5,10 C7.22385763,10 7,9.77614237 7,9.5 L7,7.5 C7,7.22385763 7.22385763,7 7.5,7 Z M9.5,3 C9.77614237,3 10,3.22385763 10,3.5 L10,9.5 C10,9.77614237 9.77614237,10 9.5,10 C9.22385763,10 9,9.77614237 9,9.5 L9,3.5 C9,3.22385763 9.22385763,3 9.5,3 Z M11.5,5 C11.7761424,5 12,5.22385763 12,5.5 L12,9.5 C12,9.77614237 11.7761424,10 11.5,10 C11.2238576,10 11,9.77614237 11,9.5 L11,5.5 C11,5.22385763 11.2238576,5 11.5,5 Z M5.60383327,14 C5.27442151,14 5.00595093,13.8412844 5.00595093,13.5073547 C5.00595093,13.1649466 5.27442151,12.997406 5.60383327,12.997406 L7.49855042,12.997406 L7.49855042,12.0038605 L2.80352941,12.0038605 C1.57263184,12.0038605 1,11.4742586 1,10.2148883 L1,2.81916932 C1,1.52099609 1.51599121,1 2.80352941,1 L13.1964706,1 C14.6170654,1 15,1.62023926 15,2.81916932 L15,10.2148883 C15,11.3792879 14.6981201,12.0038605 13.1964706,12.0038605 L8.53245544,12.0038605 L8.53245544,12.997406 L10.3887815,12.997406 C10.7181932,12.997406 10.9866638,13.1649466 10.9866638,13.4988763 C10.9866638,13.8412844 10.7181932,14 10.3887815,14 L5.60383327,14 Z M2.47419354,2 C2.21129031,2 1.99999998,2.23297569 2,2.51499891 L2,10.4850011 C2,10.7705277 2.21451613,11 2.47419354,11 L13.5258064,11 C13.7887097,11 14,10.7670243 14,10.4850011 L14,2.51499891 C14,2.22947231 13.7854839,2 13.5258064,2 L2.47419354,2 Z" id="数据统计2"></path>
                    </g>
                </g>
            </g>
        </g>
    </g>
</svg>