<?xml version="1.0" encoding="UTF-8"?>
<svg width="16px" height="16px" viewBox="0 0 16 16" version="1.1" xmlns="http://www.w3.org/2000/svg" xmlns:xlink="http://www.w3.org/1999/xlink">
    <!-- Generator: Sketch 52.5 (67469) - http://www.bohemiancoding.com/sketch -->
    <title>教务管理</title>
    <desc>Created with Sketch.</desc>
    <g id="Page-1" stroke="none" stroke-width="1" fill="none" fill-rule="evenodd">
        <g id="iocn-样式" transform="translate(-1030.000000, -166.000000)">
            <g id="教务管理_export" transform="translate(1030.000000, 166.000000)">
                <g id="教务管理">
                    <rect id="矩形" fill="#D8D8D8" fill-rule="nonzero" opacity="0" x="0" y="0" width="16" height="16"></rect>
                    <path d="M10.5839563,13 C10.4279752,12.6429972 10.2315109,12.3077296 10.0003662,12 L13.8739825,12 C13.4299397,10.2747728 11.8638394,9 10,9 C9.81073174,9 9.62453374,9.01314533 9.44226918,9.03857279 C9.63269937,8.71771063 9.77954379,8.36794286 9.87464348,7.99742842 C9.9162163,7.99913722 9.95800739,8 10,8 C11.6568542,8 13,6.65685425 13,5 C13,3.34314575 11.6568542,2 10,2 C8.97357874,2 8.06755262,2.51547286 7.5266723,3.30166792 C7.20845683,3.17016389 6.86957183,3.07853421 6.51624472,3.03300632 C7.20304342,1.81922516 8.50585157,1 10,1 C12.209139,1 14,2.790861 14,5 C14,6.46092658 13.2168002,7.73892704 12.0473678,8.43703415 C13.7879341,9.21921927 15,10.9680631 15,13 L14,13 L10.5839563,13 Z" id="Combined-Shape" fill="#666666"></path>
                    <path d="M2,15 L1,15 C1,12.9680631 2.21206591,11.2192193 3.95263221,10.4370342 C2.78319981,9.73892704 2,8.46092658 2,7 C2,4.790861 3.790861,3 6,3 C8.209139,3 10,4.790861 10,7 C10,8.46092658 9.21680019,9.73892704 8.04736779,10.4370342 C9.78793409,11.2192193 11,12.9680631 11,15 L10,15 L2,15 Z M2.12601749,14 L9.87398251,14 C9.42993972,12.2747728 7.86383943,11 6,11 C4.13616057,11 2.57006028,12.2747728 2.12601749,14 Z M6,10 C7.65685425,10 9,8.65685425 9,7 C9,5.34314575 7.65685425,4 6,4 C4.34314575,4 3,5.34314575 3,7 C3,8.65685425 4.34314575,10 6,10 Z M4,7 C4.08097331,6.78611247 4.24595133,6.6791687 4.49493408,6.6791687 C4.71767171,6.6791687 4.88602702,6.78611247 5,7 C5,7.55228475 5.44771525,8 6,8 C6.55228475,8 7,7.55228475 7,7 C7.06825765,6.78611247 7.22906494,6.6791687 7.48242188,6.6791687 C7.77166748,6.6791687 7.94419352,6.78611247 8,7 C8,8.1045695 7.1045695,9 6,9 C4.8954305,9 4,8.1045695 4,7 Z" id="Combined-Shape" fill="#666666"></path>
                </g>
            </g>
        </g>
    </g>
</svg>