<?xml version="1.0" encoding="UTF-8"?>
<svg width="16px" height="16px" viewBox="0 0 16 16" version="1.1" xmlns="http://www.w3.org/2000/svg" xmlns:xlink="http://www.w3.org/1999/xlink">
    <!-- Generator: Sketch 49.3 (51167) - http://www.bohemiancoding.com/sketch -->
    <title>财务管理2</title>
    <desc>Created with Sketch.</desc>
    <defs></defs>
    <g id="Page-1" stroke="none" stroke-width="1" fill="none" fill-rule="evenodd">
        <g id="概况" transform="translate(-29.000000, -695.000000)" fill="#EF334E" fill-rule="nonzero">
            <g id="左侧导航" transform="translate(0.000000, 80.000000)">
                <g id="Group-2-Copy" transform="translate(29.000000, 74.000000)">
                    <g id="财务管理2_export" transform="translate(0.000000, 541.000000)">
                        <path d="M13.4973086,5.03419091 L2.50269142,5.03419091 C1.61869713,5.03419091 1.00000002,5.68597285 1,6.62295082 L1,13.3949136 C1,14.3318916 1.61869712,15 2.50269142,15 L13.4973086,15 C14.3813029,15 15,14.3318916 15,13.3949136 L15,6.62296698 C15.0000159,5.68600518 14.3813029,5.03419091 13.4973086,5.03419091 Z M13.9999845,13.2885848 C13.9999845,13.6772126 13.6985686,14 13.3381611,14 L2.66182341,14 C2.29488025,14 2,13.6838137 2,13.2885848 L2,6.7136257 C2,6.3249979 2.30141593,6.00221044 2.66182341,6.00221044 L13.3381766,6.00221044 C13.7051198,6.00221044 14,6.31839673 14,6.7136257 L14,13.2885848 L13.9999845,13.2885848 Z M10.1222578,9.8104248 C10.3179531,9.8104248 10.4799002,9.52775689 10.4799002,9.32941446 C10.4799002,9.13108821 10.3179531,8.91413706 10.1222578,8.91413706 L8.98699951,8.91413706 L10.2714233,7.6529541 C10.413131,7.50932962 10.3998864,7.20667378 10.2581787,7.06304932 C10.116471,6.91942483 9.78485474,6.87604349 9.64314708,7.01966798 L8.01688212,8.66791443 L6.39060121,7.0196518 C6.24889353,6.87602732 5.95866324,6.94566995 5.81695557,7.08929443 C5.67524789,7.23291892 5.65559457,7.53734475 5.79730225,7.68096924 L7.06616211,8.9141209 L5.87099578,8.9141209 C5.67530044,8.9141209 5.51335338,9.13105589 5.51335338,9.3293983 C5.51335338,9.52772456 5.67530044,9.81040863 5.87099578,9.81040863 L7.52580191,9.81040863 L7.52580191,10.5046693 L5.87101173,10.5046693 C5.67531639,10.5046693 5.51336933,10.7747375 5.51336933,10.9730799 C5.51336933,11.1714061 5.67531639,11.3900453 5.87101173,11.3900453 L7.52581787,11.3900453 L7.52581787,12.8740506 C7.52581787,13.0723769 7.80093143,13.2365307 7.99662677,13.2365307 C8.19232211,13.2365307 8.4788208,13.072393 8.4788208,12.8740506 L8.4788208,11.3900776 L10.1222418,11.3900776 C10.3179372,11.3900776 10.4798842,11.1714546 10.4798842,10.9731122 C10.4798842,10.774786 10.3179372,10.5047017 10.1222418,10.5047017 L8.4788208,10.5047017 L8.4788208,9.8104248 L10.1222578,9.8104248 Z M2.46541083,4 L13.5345892,4 C13.7878143,4 14,3.81227907 14,3.5 C14,3.19595618 13.7946731,3 13.5345892,3 L2.46541083,3 C2.21218567,3 1.99999998,3.18772093 2,3.5 C2.00685879,3.81227907 2.21216949,4 2.46541083,4 Z M3.48805189,2 L12.5119481,2 C12.777492,2 13,1.81227907 13,1.5 C13,1.19595618 12.7846845,1 12.5119481,1 L3.48805189,1 C3.22250797,1 3,1.18772093 3,1.5 C3.0071755,1.81227907 3.222491,2 3.48805189,2 Z" id="财务管理2"></path>
                    </g>
                </g>
            </g>
        </g>
    </g>
</svg>