<?xml version="1.0" encoding="UTF-8"?>
<svg width="16px" height="16px" viewBox="0 0 16 16" version="1.1" xmlns="http://www.w3.org/2000/svg" xmlns:xlink="http://www.w3.org/1999/xlink">
    <!-- Generator: Sketch 49.3 (51167) - http://www.bohemiancoding.com/sketch -->
    <title>分组管理2</title>
    <desc>Created with Sketch.</desc>
    <defs></defs>
    <g id="Page-1" stroke="none" stroke-width="1" fill="none" fill-rule="evenodd">
        <g id="概况" transform="translate(-56.000000, -560.000000)" fill="#EF334E" fill-rule="nonzero">
            <g id="左侧导航" transform="translate(0.000000, 80.000000)">
                <g id="Group-2-Copy" transform="translate(29.000000, 74.000000)">
                    <g id="分组管理2_export" transform="translate(27.000000, 406.000000)">
                        <path d="M14.0280151,9.792 L14.0280151,7.93115276 C14.0280151,7.66890886 13.8094786,7.49407959 13.590942,7.49407959 L8.53778076,7.49407959 L8.53778076,6.01208496 L11.5821529,6.01208496 C11.8443968,6.01208496 12.0192261,5.83725569 12.0192261,5.57501179 L12.0192261,1.44390244 C12.0192261,1.18165854 11.8443968,1.00682927 11.5821529,1.00682927 L4.44232219,1.00682927 C4.18007829,1.00682927 4.00524902,1.18165854 4.00524902,1.44390244 L4.00524902,5.57501179 C4.00524902,5.83725569 4.18007829,6.01208496 4.44232219,6.01208496 L7.49261475,6.01208496 L7.49261475,7.49407959 L2.44390911,7.49407959 C2.22537252,7.49407959 2.00683594,7.66890886 2.00683594,7.93115276 L2.00683594,9.792 C1.00156764,10.0105366 0.258543255,10.8846829 0.258543255,11.9336585 C0.258543255,13.1574634 1.22010423,14.1190244 2.44390911,14.1190244 C3.66771399,14.1190244 4.62927496,13.1574634 4.62927496,11.9336585 C4.62927496,10.8846829 4.03804417,10.0105366 3.03277588,9.792 L3.03277588,8.51116943 L7.48577881,8.51116943 L7.48577881,10.6661463 C6.48051052,10.8846829 5.79809153,11.7588293 5.79809153,12.8078049 C5.79809153,14.0316098 6.75965251,14.9931707 7.98345739,14.9931707 C9.20726227,14.9931707 10.1688232,14.0316098 10.1688232,12.8078049 C10.1688232,11.7588293 9.53126927,10.8846829 8.52600098,10.6661463 L8.52600098,8.51116943 L13.0064697,8.51116943 L13.0064697,9.792 C12.0012014,10.0105366 11.4055761,10.8846829 11.4055761,11.9336585 C11.4055761,13.1574634 12.3671371,14.1190244 13.590942,14.1190244 C14.8147468,14.1190244 15.7763078,13.1574634 15.7763078,11.9336585 C15.7763078,10.8846829 15.0332834,10.0105366 14.0280151,9.792 Z M4.98303223,2.00457764 L11.0124512,2.00457764 L11.0124512,5.00054932 L4.98303223,5.00054932 L4.98303223,2.00457764 Z M2.44390911,13.244878 C1.70088472,13.244878 1.1326896,12.6329756 1.1326896,11.9336585 C1.1326896,11.3654634 1.48234813,10.8846829 2.00683594,10.7098537 C2.09425057,10.6661463 2.13795789,10.6661463 2.22537252,10.6661463 L2.66244569,10.6661463 C2.74986033,10.6661463 2.79356764,10.7098537 2.88098228,10.7098537 C3.40547008,10.8846829 3.75512862,11.3654634 3.75512862,11.9336585 C3.75512862,12.6329756 3.1869335,13.244878 2.44390911,13.244878 Z M9.2946769,12.8078049 C9.2946769,13.507122 8.72648178,14.1190244 7.98345739,14.1190244 C7.240433,14.1190244 6.67223788,13.507122 6.67223788,12.8078049 C6.67223788,12.0647805 7.240433,11.4965854 7.98345739,11.4965854 C8.72648178,11.4965854 9.2946769,12.0647805 9.2946769,12.8078049 Z M12.2797225,11.9336585 C12.2797225,11.3654634 12.629381,10.8846829 13.1538688,10.7098537 L14.0280151,10.7098537 C14.5525029,10.8846829 14.9021615,11.3654634 14.9021615,11.9336585 C14.9021615,12.6329756 14.3339664,13.244878 13.590942,13.244878 C12.8479176,13.244878 12.2797225,12.6329756 12.2797225,11.9336585 Z" id="分组管理2"></path>
                    </g>
                </g>
            </g>
        </g>
    </g>
</svg>