<?xml version="1.0" encoding="UTF-8"?>
<svg width="16px" height="16px" viewBox="0 0 16 16" version="1.1" xmlns="http://www.w3.org/2000/svg" xmlns:xlink="http://www.w3.org/1999/xlink">
    <!-- Generator: Sketch 49.3 (51167) - http://www.bohemiancoding.com/sketch -->
    <title>概况2</title>
    <desc>Created with Sketch.</desc>
    <defs></defs>
    <g id="Page-1" stroke="none" stroke-width="1" fill="none" fill-rule="evenodd">
        <g id="概况" transform="translate(-30.000000, -110.000000)" fill="#EF334E" fill-rule="nonzero">
            <g id="左侧导航" transform="translate(0.000000, 80.000000)">
                <g id="概况" transform="translate(30.000000, 30.000000)">
                    <g id="概况2_export">
                        <path d="M13.1552251,14.994812 L9.83934277,14.994812 C9.37472826,14.994812 8.99761963,14.6177034 8.99761963,14.1530889 L8.99761963,10.0181885 L7.02294922,10.0181885 L7.02294922,14.1530889 C7.02294922,14.6177034 6.64584058,14.994812 6.18122608,14.994812 L2.86198681,14.994812 C2.39737231,14.994812 2.02026367,14.6177034 2.02026367,14.1530889 L2.02026367,7.87344494 L0.841649319,7.87344494 C0.499959727,7.87344494 0.193689177,7.66926457 0.0645138436,7.35466013 C-0.0667449632,7.03797222 0.00617659613,6.67961484 0.247859479,6.43793196 L7.42334092,0.229182044 C7.5796014,0.0812554519 7.78378177,0 8.00046298,0 C8.21714418,0 8.42132455,0.0812554519 8.57758503,0.229182044 L15.7384822,6.42334764 C15.9947494,6.67961484 16.0655874,7.04005569 15.9364121,7.35466013 C15.8051533,7.67134805 15.5009662,7.87344494 15.1592766,7.87344494 L13.9969482,7.87344494 L13.9969482,14.1530889 C13.9969482,14.6177034 13.6198396,14.994812 13.1552251,14.994812 Z M10.012146,13.9942028 L13.0175781,13.9942028 L13.0175781,7.64009595 C13.0175781,7.17548144 13.3946868,6.79837281 13.8593013,6.79837281 L14.5321512,6.79837281 L8.00046298,1.14799369 L1.46877473,6.79837281 L2.12714893,6.79837281 C2.59176343,6.79837281 2.96887207,7.17548144 2.96887207,7.64009595 L2.96887207,13.9942028 L6.01165771,13.9942028 L6.01165771,9.84709424 C6.01165771,9.38247973 6.38876635,9.00537109 6.85338086,9.00537109 L9.17042285,9.00537109 C9.63503736,9.00537109 10.012146,9.38247973 10.012146,9.84709424 L10.012146,13.9942028 Z" id="概况2"></path>
                    </g>
                </g>
            </g>
        </g>
    </g>
</svg>