<?xml version="1.0" encoding="UTF-8"?>
<svg width="16px" height="16px" viewBox="0 0 16 16" version="1.1" xmlns="http://www.w3.org/2000/svg" xmlns:xlink="http://www.w3.org/1999/xlink">
    <!-- Generator: Sketch 49.3 (51167) - http://www.bohemiancoding.com/sketch -->
    <title>营销活动2</title>
    <desc>Created with Sketch.</desc>
    <defs></defs>
    <g id="Page-1" stroke="none" stroke-width="1" fill="none" fill-rule="evenodd">
        <g id="营销活动-裂变海报" transform="translate(-55.000000, -381.000000)">
            <g id="左侧导航" transform="translate(0.000000, 80.000000)">
                <g id="营销活动2_export" transform="translate(55.000000, 301.000000)">
                    <g id="营销活动2">
                        <rect id="Rectangle-13" fill-opacity="0" fill="#D8D8D8" x="0" y="0" width="16" height="16"></rect>
                        <path d="M12.7444445,6.99542236 L14.9611111,3.58564897 C14.9611111,3.54701261 15,3.46973988 15,3.39246715 C15,3.16064896 14.8444445,3.00610352 14.6111111,3.00610352 L9.00836182,3.00610352 L9.00836182,1.38636363 C9.00836182,1.15454545 8.85280627,1 8.61947293,1 L1.38888888,1 C1.15555555,1 1,1.15454545 1,1.38636363 L1,14.6136364 C1,14.8454546 1.25323893,15 1.48657227,15 C1.7199056,15 2.00616453,14.8454546 2.00616453,14.6136364 L2.00616455,9.01965332 L6.00256348,9.01965332 L6.00256348,10.6374401 C6.00256348,10.8692583 6.15811903,11.0238037 6.39145236,11.0238037 L14.6111111,11.0238037 C14.8444445,11.0238037 15,10.8692583 15,10.6374401 C15,10.5601673 14.9611111,10.4828946 14.9611111,10.4442583 L12.7444445,6.99542236 Z M2,8.0199585 L2,2 L8,2 L8,8.0199585 L2,8.0199585 Z M7,9.99395752 L7,9.0255127 L8.61704321,9.0255127 C8.85981778,9.0255127 9.02166748,8.86995715 9.02166748,8.63662381 L9.0216675,4.00579834 L13.4198037,4.00579834 L11.6342124,6.8308241 C11.6342124,6.86971299 11.59375,6.94749077 11.59375,7.02526855 C11.59375,7.10304634 11.6342124,7.1808241 11.6746749,7.21971301 L13.4602661,10 L7,9.99395752 Z" id="Shape" fill="#EF334E" fill-rule="nonzero"></path>
                    </g>
                </g>
            </g>
        </g>
    </g>
</svg>