<?xml version="1.0" encoding="UTF-8"?>
<svg width="16px" height="16px" viewBox="0 0 16 16" version="1.1" xmlns="http://www.w3.org/2000/svg" xmlns:xlink="http://www.w3.org/1999/xlink">
    <!-- Generator: Sketch 49.3 (51167) - http://www.bohemiancoding.com/sketch -->
    <title>我的资产2</title>
    <desc>Created with Sketch.</desc>
    <defs></defs>
    <g id="Page-1" stroke="none" stroke-width="1" fill="none" fill-rule="evenodd">
        <g id="概况" transform="translate(-57.000000, -786.000000)" fill="#EF334E" fill-rule="nonzero">
            <g id="左侧导航" transform="translate(0.000000, 80.000000)">
                <g id="Group-2-Copy" transform="translate(29.000000, 74.000000)">
                    <g id="我的资产2_export" transform="translate(28.000000, 632.000000)">
                        <path d="M6.72937012,9.00020829 L6.72937012,8 L4.56176758,8 C4.17536758,8 4,7.77595799 4,7.49990623 C4,7.22385447 4.17536758,6.99981246 4.56176758,6.99981246 L6.72937012,6.99981246 L6.72937012,6.99094023 C6.62919961,6.97321113 6.53602389,6.92532291 6.46289063,6.8526557 L4.46289063,4.85307228 C4.26789063,4.65811289 4.31964844,4.29102872 4.51464844,4.09606934 C4.70964844,3.90110995 5.10224121,3.85777499 5.29724121,4.05273438 L7.29223633,6.12042236 C7.30491014,6.13309353 7.31666999,6.14632247 7.32752761,6.16003667 C7.37129442,6.15597363 7.41787764,6.15386963 7.46740723,6.15386963 C7.54230451,6.15386963 7.61265536,6.1586461 7.67832015,6.16770321 C7.6973759,6.13411044 7.72092825,6.10274789 7.74914551,6.07452393 L9.74904551,4.07414886 C9.94403576,3.87911229 10.3083667,3.92074712 10.5033569,4.11578369 C10.6983472,4.31082026 10.7296582,4.65837345 10.534668,4.85341001 L8.53476796,6.85378508 C8.47606366,6.91214129 8.40444472,6.95452368 8.32666016,6.97814808 L8.32666016,6.99981246 L10.4455566,6.99981246 C10.8319566,6.99981246 11,7.22385447 11,7.49990623 C11,7.77595799 10.8319566,8 10.4455566,8 L8.32666016,8 L8.32666016,9.00020829 L10.4455566,9.00020829 C10.8319566,9.00020829 11,9.22416163 11,9.50010414 C11,9.77604666 10.8319566,10 10.4455566,10 L8.32666016,10 L8.32666016,11.3746033 C8.32466016,11.6966033 7.96112061,12 7.52825928,12 C7.02703857,12 6.72937012,11.6966033 6.72937012,11.3746033 L6.72937012,10 L4.56176758,10 C4.17536758,10 4,9.77604666 4,9.50010414 C4,9.22416163 4.17536758,9.00020829 4.56176758,9.00020829 L6.72937012,9.00020829 Z M7.5,15 C3.36461538,15 0,11.6353846 0,7.5 C0,3.36461538 3.36461538,0 7.5,0 C11.6353846,0 15,3.36461538 15,7.5 C15,11.6353846 11.6353846,15 7.5,15 Z M7.5,1 C3.91554545,1 1,3.91554545 1,7.5 C1,11.0844545 3.91554545,14 7.5,14 C11.0844545,14 14,11.0844545 14,7.5 C14,3.91554545 11.0844545,1 7.5,1 Z" id="我的资产2"></path>
                    </g>
                </g>
            </g>
        </g>
    </g>
</svg>