<?xml version="1.0" encoding="UTF-8"?>
<svg width="16px" height="16px" viewBox="0 0 16 16" version="1.1" xmlns="http://www.w3.org/2000/svg" xmlns:xlink="http://www.w3.org/1999/xlink">
    <!-- Generator: Sketch 49.3 (51167) - http://www.bohemiancoding.com/sketch -->
    <title>我的订购2</title>
    <desc>Created with Sketch.</desc>
    <defs></defs>
    <g id="Page-1" stroke="none" stroke-width="1" fill="none" fill-rule="evenodd">
        <g id="概况" transform="translate(-57.000000, -1011.000000)" fill="#EF334E" fill-rule="nonzero">
            <g id="左侧导航" transform="translate(0.000000, 80.000000)">
                <g id="Group-2-Copy" transform="translate(29.000000, 74.000000)">
                    <g id="我的订购2_export" transform="translate(28.000000, 857.000000)">
                        <path d="M12.7188002,1 C13.4243885,1 13.997679,1.53908384 14,2.26668294 L14,13.6788332 C14,14.4088257 13.4243885,15 12.7188002,15 L2.28119979,15 C1.57329048,15 1,14.4064323 1,13.6788332 L1,2.26668294 C1,1.53669042 1.5756115,1 2.28119979,1 L4.00480143,1 C4.00480143,0.175211589 4.2208252,0 5,0 L10,0 C10.8150484,0 11.0086263,0.228963216 11.0086263,1 L12.7188002,1 Z M5,1.04928914 L5,1.95058879 C5,1.97523336 5.02359604,1.99987793 5.04719207,1.99987793 L9.95280793,1.99987793 C9.96818034,1.99987793 10,1.97523336 10,1.95058879 L10,1.04928914 C10,1.02464457 9.97640396,1 9.95280793,1 L5.04719207,1 C5.02359604,1 5,1.02464457 5,1.04928914 Z M12.6068994,14 C12.8227639,14 12.9977277,13.8169985 13,13.5912174 L13,2.40866054 C13,2.18287945 12.8250361,1.99987793 12.6091717,1.99987793 L11.0086263,1.99987793 C11.0086263,2.70878092 10.8029378,2.95754941 10,2.95754941 L5,2.95754941 C4.25260417,2.95754941 4.00480143,2.68033854 4.00480143,1.99987793 L2.39082834,1.99987793 C2.17496385,1.99987793 2,2.18287945 2,2.40866054 L2,13.5912174 C2,13.8169985 2.17496385,14 2.39082834,14 L12.6068994,14 Z M4.5,5 L10.5,5 C10.7761424,5 11,5.22385763 11,5.5 C11,5.77614237 10.7761424,6 10.5,6 L4.5,6 C4.22385763,6 4,5.77614237 4,5.5 C4,5.22385763 4.22385763,5 4.5,5 Z M4.5,7 L10.5,7 C10.7761424,7 11,7.22385763 11,7.5 C11,7.77614237 10.7761424,8 10.5,8 L4.5,8 C4.22385763,8 4,7.77614237 4,7.5 C4,7.22385763 4.22385763,7 4.5,7 Z M4.5,9 L8.5,9 C8.77614237,9 9,9.22385763 9,9.5 C9,9.77614237 8.77614237,10 8.5,10 L4.5,10 C4.22385763,10 4,9.77614237 4,9.5 C4,9.22385763 4.22385763,9 4.5,9 Z" id="我的订购2"></path>
                    </g>
                </g>
            </g>
        </g>
    </g>
</svg>