<?xml version="1.0" encoding="UTF-8"?>
<svg width="16px" height="16px" viewBox="0 0 16 16" version="1.1" xmlns="http://www.w3.org/2000/svg" xmlns:xlink="http://www.w3.org/1999/xlink">
    <!-- Generator: Sketch 49.3 (51167) - http://www.bohemiancoding.com/sketch -->
    <title>帐号设置</title>
    <desc>Created with Sketch.</desc>
    <defs></defs>
    <g id="Page-1" stroke="none" stroke-width="1" fill="none" fill-rule="evenodd">
        <g id="概况" transform="translate(-58.000000, -1100.000000)">
            <g id="左侧导航" transform="translate(0.000000, 80.000000)">
                <g id="帐号设置_export" transform="translate(58.000000, 1020.000000)">
                    <g id="帐号设置">
                        <path d="M5.56773095,15 C2.23926279,14.7454237 0,13.4754748 0,11.8431077 C0,10.3805916 2.02329506,9.26091018 4.84075928,8.84952575 L4.84075928,8.76470947 C3.56935424,7.78203569 2.5299053,6.26478909 2.5299053,4.45617676 C2.5299053,0.936523438 4.79474592,0.00773089409 6.69217489,0.00773089409 C8.59284789,0.00773089409 10.8544445,0.855529785 10.8544445,4.45617676 C10.8544445,5.67065619 10.490259,6.59362512 9.82906782,7.56968629 C9.65975509,7.81781397 9.32759986,7.8798049 9.08795258,7.70678407 C8.8452217,7.53704222 8.78451224,7.19746744 8.95380714,6.94943085 C9.49368639,6.15282095 9.82906782,5.44855996 9.82906782,4.45287956 C9.82906782,1.69577026 8.01994026,0.989074707 6.68787924,0.989074707 C5.35904442,0.989074707 3.52264404,1.7427829 3.52264404,4.45287956 C3.52264404,5.99052065 4.36152708,7.18260274 5.46032191,7.92042782 C5.61050919,8.02158434 5.74551019,8.24003725 5.74551019,8.426174 L5.74551019,9.26847102 C5.74551019,9.54601843 5.46447496,9.85848698 5.19295789,9.88783385 C2.60230748,10.1784243 1.04510498,11.0759539 1.04510498,11.8431077 C1.04510498,12.6690462 2.77915987,13.7679148 5.60936844,13.9833984 C5.90321932,14.006242 6.14917639,14.1903653 6.12684258,14.4906834 C6.1204615,14.781201 5.88404041,15 5.60936844,15 L5.56773095,15 Z" id="Shape" fill="#666666" fill-rule="nonzero"></path>
                        <path d="M13.5468656,11.1370502 L13.6009492,11.1480643 L13.6009492,11.2356818 L13.5249257,11.2424674 L13.5468656,11.1370502 Z M13.4092511,11.2527921 L13.4020621,11.2534337 C13.4030939,11.264993 13.4055566,11.2760478 13.4092492,11.2864208 L13.4092511,11.2527921 Z M13.4168198,11.3510236 C12.9603827,11.2270363 12.5704946,10.9302854 12.3332353,10.5234508 C12.1012836,10.1257172 12.0345276,9.6558051 12.1559422,9.18006105 C11.8484338,8.90334678 11.488409,8.68705004 11.0694958,8.53309243 C10.7412574,8.89030039 10.2699728,9.08676586 9.7984394,9.06846529 C9.34812417,9.06846529 8.9257787,8.87988285 8.5494123,8.52722578 C8.16421915,8.68661264 7.80159639,8.89696796 7.44825196,9.16962461 C7.56639109,9.62920866 7.50144611,10.117687 7.2548985,10.5516639 C7.01344309,10.9352776 6.63697552,11.2156707 6.19962244,11.3404837 C6.15737066,11.5588767 6.13667484,11.7812589 6.13778987,12.0133647 C6.13476063,12.209174 6.15193285,12.4047207 6.19578415,12.6408795 C6.65392334,12.7641364 7.04540771,13.0613284 7.28342735,13.469247 C7.51512194,13.8663257 7.58214241,14.3354127 7.46095427,14.8121012 C7.78377411,15.1036399 8.16531606,15.3260424 8.58119535,15.4649146 C8.58159121,15.4649954 8.5819862,15.4650765 8.58238032,15.4651578 C8.91501027,15.115368 9.38236069,14.9208823 9.85914583,14.930699 C10.3121062,14.930699 10.7354552,15.1207552 11.1152698,15.4789006 C11.4882752,15.3220329 11.8405706,15.1164301 12.1882829,14.8490474 C12.0694804,14.3891243 12.1345476,13.9000267 12.3819583,13.4658957 C12.6235905,13.0832337 12.9995508,12.803529 13.4361565,12.6787516 C13.4786389,12.4608074 13.499589,12.2403208 13.4991463,12.0380651 C13.4885568,11.807399 13.4610416,11.5777921 13.4168198,11.3510236 Z M7.37926111,9.22374701 C7.37666538,9.22581677 7.37407011,9.22788996 7.37147529,9.22996658 C7.37424754,9.22808228 7.37693033,9.22609462 7.37952298,9.22401692 Z M6.19801985,11.3409402 C6.18670119,11.3441595 6.17534185,11.3472745 6.1639431,11.3502845 L6.1473068,11.3441239 C6.16325726,11.3396593 6.18135007,11.334576 6.20190425,11.3287994 C6.20121005,11.3323212 6.20052147,11.3358441 6.19983849,11.3393679 C6.19921569,11.3398818 6.19860939,11.3404061 6.19801985,11.3409402 Z M6.21197427,12.7239938 C6.21299858,12.729027 6.21403438,12.7340792 6.2150817,12.7391508 C6.21461592,12.7338927 6.21385216,12.7287396 6.21280957,12.7237083 Z M7.43915569,14.8911177 C7.43800344,14.8949898 7.43683872,14.8988622 7.43566151,14.9027348 C7.4371769,14.8989061 7.43849629,14.8950395 7.43963649,14.8911585 Z M7.43602988,14.791925 C7.43409692,14.7877631 7.43213287,14.7850449 7.43040406,14.7841421 C7.43446144,14.787905 7.43852843,14.7916568 7.442605,14.7953974 Z M8.54481725,15.471594 C8.54420006,15.4715915 8.54358102,15.4715903 8.54296011,15.4715903 L8.54481725,15.471594 Z M11.160969,15.5230107 C11.1619969,15.5240259 11.1630244,15.5250424 11.1640517,15.5260601 C11.1630684,15.5249804 11.1620634,15.5239333 11.1610352,15.522919 Z M12.2032331,14.8953674 C12.2029486,14.9021833 12.2037742,14.9078781 12.2057276,14.9119278 C12.2034881,14.9043796 12.2012987,14.8968223 12.1991594,14.8892564 Z M13.4362101,12.6787363 C13.4481756,12.675317 13.4601867,12.6720141 13.4722418,12.6688287 L13.4912873,12.6758876 C13.4745049,12.6810735 13.4552655,12.6870543 13.4331611,12.6939351 C13.434169,12.6888865 13.4351653,12.6838363 13.43615,12.6787848 C13.4361701,12.6787686 13.4361901,12.6787524 13.4362101,12.6787363 Z M13.5643774,12.6538612 L13.6203048,12.647032 C13.6100707,12.6435174 13.6058651,12.6420732 13.5643777,12.6538612 Z M13.3435387,12.7470866 C13.2940982,12.781784 13.2955865,12.7811026 13.3017112,12.7782985 L13.3435387,12.7470866 Z" id="Shape" stroke="#666666" fill-rule="nonzero"></path>
                        <path d="M9.73327637,13.3121745 C10.4143961,13.3121745 10.9665527,12.7600178 10.9665527,12.0788981 C10.9665527,11.3977784 10.4143961,10.8456217 9.73327637,10.8456217 C9.05215664,10.8456217 8.5,11.3977784 8.5,12.0788981 C8.5,12.7600178 9.05215664,13.3121745 9.73327637,13.3121745 Z" id="Oval" stroke="#666666"></path>
                    </g>
                </g>
            </g>
        </g>
    </g>
</svg>