<?xml version="1.0" encoding="UTF-8"?>
<svg width="16px" height="16px" viewBox="0 0 16 16" version="1.1" xmlns="http://www.w3.org/2000/svg" xmlns:xlink="http://www.w3.org/1999/xlink">
    <!-- Generator: Sketch 52.5 (67469) - http://www.bohemiancoding.com/sketch -->
    <title>机构管理</title>
    <desc>Created with Sketch.</desc>
    <g id="Page-1" stroke="none" stroke-width="1" fill="none" fill-rule="evenodd">
        <g id="iocn-样式" transform="translate(-1028.000000, -287.000000)" fill-rule="nonzero">
            <g id="机构管理_export" transform="translate(1028.000000, 287.000000)">
                <g id="机构管理">
                    <rect id="矩形" fill="#D8D8D8" opacity="0" x="0" y="0" width="16" height="16"></rect>
                    <path d="M2.00262451,12.0136719 L2.00262451,14.0020752 L7.00097656,14.0020752 L7.00097656,2.01678467 L2.00262451,2.01678467 L2.00262451,5.01367188 L4,5.01367188 L4,6.01367188 L2.00262451,6.01367188 L2.00262451,7.01367188 L4,7.01367188 L4,8.01367188 L2.00262451,8.01367188 L2.00262451,9.01367188 L4,9.01367188 L4,10.0136719 L2.00262451,10.0136719 L2.00262451,11.0136719 L4,11.0136719 L4,12.0136719 L2.00262451,12.0136719 Z M14.9882385,5.04814068 L14.9882202,14.0247192 L16,14.0247192 L16,15 L0,15 L0,14.0247192 L1.00720215,14.0247192 L1.00720215,2.03705062 C1.00720215,1.46524262 1.47030106,1 2.03945609,1 L6.95581055,1 C7.52496557,1 7.98806449,1.46524262 7.98806449,2.03703228 L7.98806449,4.01330865 C8.00239146,4.01266691 8.01646293,4.0111084 8.03091766,4.0111084 L13.9559663,4.0111084 C14.5251396,4.0111084 14.9882385,4.47635102 14.9882385,5.04814068 Z M7.99334717,5.00610352 L7.99334717,14.0216675 L14.0203247,14.0216675 L14.0203247,5.00610352 L7.99334717,5.00610352 Z M9.01570729,7.01367188 L13,7.01367187 L13,7.99523926 L9.01574707,7.99523926 L9.01570729,7.01367188 Z M5,11.0136719 L7,11.0136719 L7,12.0136719 L5,12.0136719 L5,11.0136719 Z M5,9.01367188 L7,9.01367188 L7,10.0136719 L5,10.0136719 L5,9.01367188 Z M5,7.01367188 L7,7.01367188 L7,8.01367188 L5,8.01367188 L5,7.01367188 Z M5,5.01367188 L7,5.01367188 L7,6.01367188 L5,6.01367188 L5,5.01367188 Z M9.01570729,9.01367188 L13,9.01367187 L13,9.99523926 L9.01574707,9.99523926 L9.01570729,9.01367188 Z M9.01570729,11.0136719 L13,11.0136719 L13,11.9952393 L9.01574707,11.9952393 L9.01570729,11.0136719 Z" id="合并形状" fill="#666666"></path>
                </g>
            </g>
        </g>
    </g>
</svg>