<?xml version="1.0" encoding="UTF-8"?>
<svg width="15px" height="15px" viewBox="0 0 15 15" version="1.1" xmlns="http://www.w3.org/2000/svg" xmlns:xlink="http://www.w3.org/1999/xlink">
    <!-- Generator: Sketch 49.3 (51167) - http://www.bohemiancoding.com/sketch -->
    <title>主页配置</title>
    <desc>Created with Sketch.</desc>
    <defs></defs>
    <g id="Page-1" stroke="none" stroke-width="1" fill="none" fill-rule="evenodd">
        <g id="概况" transform="translate(-57.000000, -1191.000000)" fill="#666666" fill-rule="nonzero">
            <g id="左侧导航" transform="translate(0.000000, 80.000000)">
                <g id="主页配置_export" transform="translate(57.000000, 1111.000000)">
                    <path d="M14.1507882,10.4927814 L11.3947292,7.79941579 C11.6318628,7.17203522 11.762112,6.49352746 11.762112,5.78493333 C11.762112,2.58985989 9.12879401,0 5.88135992,0 C4.71464121,0 3.62729476,0.334167977 2.71276178,0.910510753 L6.08903281,4.26375666 L4.49434742,5.84476642 L1.07742491,2.44695405 C0.398863524,3.39003602 0,4.54159535 0,5.78493331 C0,8.97972073 2.63330012,11.5695627 5.88134203,11.5695627 C6.66367729,11.5695627 7.41020564,11.4190772 8.09295016,11.146101 L10.8044963,13.7962945 C11.2409366,14.3030614 11.8921824,14.625109 12.6202085,14.625109 C13.934767,14.625109 15,13.5771627 15,12.2845925 C15,11.5653796 14.6698721,10.9221603 14.1507882,10.4927814 Z M8.33210448,9.67339982 C7.59597507,10.1298011 6.72440898,10.394125 5.78994523,10.394125 C3.15228694,10.394125 1.01402284,8.2911882 1.01402284,5.69707162 C1.01402284,5.243506 1.07984767,4.80512509 1.20183764,4.39019815 C1.20183764,4.39019815 3.90433284,7.07507542 3.93364118,7.1038898 C4.18091422,7.34721114 4.58226637,7.34721114 4.83010654,7.1038898 L7.35510523,4.60082663 C7.60239656,4.35721258 7.60239656,3.96286734 7.35510523,3.71928986 C7.33924362,3.70368437 4.7335281,1.11578803 4.7335281,1.11578803 C5.0733913,1.04024865 5.42686587,1 5.78996352,1 C8.4269998,1 10.5646785,3.10293677 10.5646785,5.69705335 C10.5646785,6.5415065 10.3379871,7.33380105 9.9414831,8.01855855 L12,10.070654 C11.2155539,10.3028338 10.5981946,10.9136069 10.3668015,11.6872042 L8.33210448,9.67339982 Z M12.6213883,13.4230125 C12.3148576,13.4230125 12.0364826,13.3054557 11.8297036,13.1139075 C11.8297036,13.1139075 11.6568186,12.9120624 11.6568186,12.9120267 C11.5361335,12.7323486 11.4657174,12.517096 11.4657174,12.2854684 C11.4657174,11.657337 11.9828885,11.1482462 12.6213883,11.1482462 C12.8548036,11.1482462 13.0718975,11.216374 13.2535956,11.3331979 C13.2535956,11.3331979 13.2536135,11.3331979 13.2536135,11.3332336 L13.4655768,11.5081923 C13.659431,11.711539 13.778257,11.9847834 13.778257,12.2854685 C13.7782749,12.9139037 13.2605496,13.4230125 12.6213883,13.4230125 Z" id="主页配置"></path>
                </g>
            </g>
        </g>
    </g>
</svg>