<?xml version="1.0" encoding="UTF-8"?>
<svg width="16px" height="16px" viewBox="0 0 16 16" version="1.1" xmlns="http://www.w3.org/2000/svg" xmlns:xlink="http://www.w3.org/1999/xlink">
    <!-- Generator: Sketch 49.3 (51167) - http://www.bohemiancoding.com/sketch -->
    <title>教务管理2</title>
    <desc>Created with Sketch.</desc>
    <defs></defs>
    <g id="Page-1" stroke="none" stroke-width="1" fill="none" fill-rule="evenodd">
        <g id="概况" transform="translate(-30.000000, -829.000000)" fill="#EF334E" fill-rule="nonzero">
            <g id="左侧导航" transform="translate(0.000000, 80.000000)">
                <g id="Group-2-Copy" transform="translate(29.000000, 74.000000)">
                    <g id="教务管理2_export" transform="translate(1.000000, 675.000000)">
                        <path d="M14.9986875,1.39003856 C14.9986875,1.39543702 15,1.4003856 15,1.40533419 L15,12.672365 L14.997375,12.672365 C14.9801223,12.8363476 14.8680575,12.9732766 14.713875,13.0187661 L8,15 L1.286125,13.0183162 C1.13197769,12.972889 1.02001891,12.8358781 1.0030625,12.6719152 L1,12.6719152 L1,1.40488432 L1.0013125,1.39003856 C1.00282877,1.3621381 1.00678219,1.3344344 1.013125,1.30726221 C1.014,1.3027635 1.014,1.29826478 1.0153125,1.29421594 C1.0170625,1.28746787 1.0205625,1.28161954 1.02275,1.27487147 C1.02764072,1.26000946 1.03333714,1.2454408 1.0398125,1.23123393 C1.05049917,1.20770531 1.0635493,1.1853903 1.07875,1.16465296 C1.09355229,1.14359482 1.11057224,1.12428311 1.1295,1.10706941 C1.13825,1.09897172 1.1474375,1.09177378 1.156625,1.08412596 C1.1675625,1.07602828 1.1785,1.06793059 1.1903125,1.06028278 L1.2200625,1.04363753 C1.24323736,1.03207179 1.26740276,1.02273469 1.29225,1.0157455 C1.3176754,1.00784219 1.34401094,1.00345489 1.3705625,1.00269923 C1.3784375,1.00224936 1.385875,1.00044987 1.3941875,1.00044987 L1.408625,1.00179949 C1.4213125,1.00224936 1.434,1.00404884 1.447125,1.00584833 C1.46127327,1.00744548 1.47530371,1.0100003 1.489125,1.01349614 C1.4935,1.01439589 1.497875,1.01439589 1.50225,1.0157455 L8,2.92005141 L14.496875,1.01529563 C14.50125,1.01394602 14.505625,1.01394602 14.51,1.01304627 C14.5238369,1.0096268 14.5378626,1.00707284 14.552,1.00539846 C14.5647301,1.00315964 14.5775927,1.00180695 14.5905,1.00134961 C14.59575,1.00089974 14.600125,1 14.605375,1 C14.61325,1 14.6206875,1.00179949 14.629,1.00224936 C14.642125,1.0031491 14.6556875,1.00404884 14.6688125,1.0062982 C14.7073673,1.01252438 14.7447235,1.02497431 14.7795,1.04318766 C14.8021747,1.05396882 14.8234793,1.06756628 14.8429375,1.08367609 C14.852364,1.0908298 14.8614181,1.09848819 14.8700625,1.10661954 C14.880125,1.11606684 14.888875,1.12596401 14.8980625,1.13631105 C14.9061383,1.1453287 14.9137328,1.15478988 14.9208125,1.16465296 C14.9295625,1.17634961 14.9365625,1.18849614 14.9435625,1.20064267 C14.9495298,1.21074255 14.9550765,1.22109896 14.9601875,1.2316838 C14.96675,1.24562982 14.9715625,1.26002571 14.9768125,1.27487147 C14.979,1.28161954 14.9825,1.28746787 14.9846875,1.29421594 C14.986,1.29826478 14.986,1.3027635 14.986875,1.30726221 C14.9932178,1.3344344 14.9971712,1.3621381 14.9986875,1.39003856 Z M8,14 L8,3.69120928 L2,2 L2,12.2971888 L8,14 Z M14,12.2971254 L14,2 L8,3.69127217 L8,14 L14,12.2971254 Z M3.30011057,5.78020024 C3.15844411,5.7415735 3.04889605,5.63295693 3.01273209,5.49526536 C2.97656812,5.35757378 3.01928242,5.21172581 3.12478492,5.11266098 C3.23028742,5.01359615 3.38254977,4.97636476 3.52421623,5.0149915 L6.58897547,5.85257292 C6.80797283,5.91228469 6.93533752,6.13198846 6.87345245,6.34329501 C6.81156738,6.55460157 6.58386717,6.67749343 6.36486981,6.61778165 L3.30011057,5.78020024 Z M3.30011057,7.96373704 C3.0811132,7.90402527 2.95374852,7.6843215 3.01563359,7.47301494 C3.07751866,7.26170839 3.30521886,7.13881653 3.52421623,7.1985283 L6.58897547,8.03610972 C6.73064193,8.07473646 6.84018999,8.18335302 6.87635396,8.3210446 C6.91251792,8.45873618 6.86980362,8.60458415 6.76430112,8.70364898 C6.65879863,8.80271381 6.50653627,8.83994521 6.36486981,8.80131845 L3.30011057,7.96373704 Z M3.30011057,10.1472738 C3.0811132,10.0875621 2.95374852,9.8678583 3.01563359,9.65655175 C3.07751866,9.44524519 3.30521886,9.32235333 3.52421623,9.38206511 L6.58897547,10.2192052 C6.73064192,10.257832 6.84018998,10.3664485 6.87635394,10.5041401 C6.9125179,10.6418317 6.8698036,10.7876796 6.76430111,10.8867445 C6.65879862,10.9858093 6.50653626,11.0230407 6.36486981,10.984414 L3.30011057,10.1472738 Z M9.63568338,6.61778165 C9.49401692,6.65648723 9.34171098,6.61932867 9.23613773,6.52030326 C9.13056449,6.42127784 9.08776302,6.27542988 9.12385622,6.13769889 C9.15994943,5.9999679 9.2694539,5.89127849 9.41112036,5.85257292 L12.4758796,5.0149915 C12.6175461,4.97636475 12.7698084,5.01359615 12.8753109,5.11266098 C12.9808134,5.21172581 13.0235277,5.35757378 12.9873637,5.49526536 C12.9511998,5.63295693 12.8416517,5.7415735 12.6999853,5.78020024 L9.63568338,6.61778165 Z M9.63568338,8.80131845 C9.49401692,8.84002403 9.34171098,8.80286547 9.23613773,8.70384006 C9.13056449,8.60481464 9.08776302,8.45896668 9.12385622,8.32123569 C9.15994943,8.1835047 9.2694539,8.0748153 9.41112036,8.03610972 L12.4758796,7.1985283 C12.6175461,7.15990155 12.7698084,7.19713295 12.8753109,7.29619778 C12.9808134,7.39526261 13.0235277,7.54111058 12.9873637,7.67880216 C12.9511998,7.81649374 12.8416517,7.9251103 12.6999853,7.96373704 L9.63568338,8.80131845 Z M9.63568338,10.9848553 C9.41668602,11.0446889 9.18888344,10.9218958 9.12687208,10.7105893 C9.06486072,10.4992827 9.192123,10.2794802 9.41112036,10.2196465 L12.4758796,9.3825064 C12.6903321,9.3346708 12.9059345,9.45770907 12.9657896,9.66208431 C13.0256447,9.86645955 12.908668,10.0801788 12.6999853,10.1477151 L9.63568338,10.9848553 Z" id="教务管理2"></path>
                    </g>
                </g>
            </g>
        </g>
    </g>
</svg>