<?xml version="1.0" encoding="UTF-8"?>
<svg width="16px" height="16px" viewBox="0 0 16 16" version="1.1" xmlns="http://www.w3.org/2000/svg" xmlns:xlink="http://www.w3.org/1999/xlink">
    <!-- Generator: Sketch 49.3 (51167) - http://www.bohemiancoding.com/sketch -->
    <title>系列课2</title>
    <desc>Created with Sketch.</desc>
    <defs></defs>
    <g id="Page-1" stroke="none" stroke-width="1" fill="none" fill-rule="evenodd">
        <g id="概况" transform="translate(-54.000000, -244.000000)" fill="#EF334E" fill-rule="nonzero">
            <g id="左侧导航" transform="translate(0.000000, 80.000000)">
                <g id="Group-2-Copy" transform="translate(29.000000, 74.000000)">
                    <g id="系列课2_export" transform="translate(25.000000, 90.000000)">
                        <g id="系列课2" transform="translate(1.000000, 0.996760)">
                            <path d="M13,8.66080817 L13,8.51746093 L12.2328159,8.51746093 L13.2100734,3.91967585 L13.2085253,3.91812769 L11,3.4489276 L11,2.65240519 L13.372321,3.15681797 C13.7920283,3.24576 14.0619508,3.66237097 13.9730087,4.08207827 L13,8.66080817 Z M1.27426903,8.51746093 L0.0269912743,2.64809123 C-0.0619507559,2.22838393 0.207971663,1.81177296 0.627678963,1.72283093 L3,1.21845129 L3,2.01661266 L0.79147473,2.48584363 C0.789926566,2.48584363 0.789926566,2.48739179 0.789926566,2.48739179 L2.07189038,8.51746093 L1.27426903,8.51746093 Z M6.69517826,0.619450678 L5.8173654,0.619450678 L6.16832622,0.544832829 C6.22135084,0.533918272 6.27600104,0.527648207 6.32902566,0.527648207 C6.45886498,0.527648207 6.58424573,0.560434791 6.69517826,0.619450678 Z M11,4.61273066 L12.3222013,4.89355957 C12.3643114,4.90292596 12.3908624,4.94348786 12.3830441,4.98559792 L12.255127,5.56583879 C12.2459483,5.60767166 12.2051733,5.63462638 12.1630886,5.62668164 L11,5.35448014 L11,4.61273066 Z M11,6.11390095 L11.9506836,6.32513915 C11.9710697,6.32906713 11.9890135,6.34104297 12.0004624,6.35836195 C12.0119113,6.37568092 12.0158995,6.39688221 12.0115264,6.41717751 L11.8743373,7.07075092 C11.8703086,7.09098797 11.8582341,7.10872125 11.8408813,7.11988596 C11.8235286,7.13105068 11.8023857,7.13468944 11.7822989,7.1299682 L11,6.95614441 L11,6.11390095 Z M3,4.67437676 L2.01885106,4.88838349 C1.99855576,4.89275659 1.97735447,4.88876833 1.96003549,4.87731945 C1.94271652,4.86587058 1.93074068,4.84792678 1.9268127,4.82754064 L1.79730877,4.21748656 C1.79293568,4.19719125 1.79692394,4.17598996 1.80837281,4.15867099 C1.81982169,4.14135202 1.83776549,4.12937618 1.85815162,4.1254482 L3,3.87636914 L3,4.67437676 Z M3,6.29396221 L2.34806817,6.4361606 C2.3059581,6.44397883 2.2653962,6.41742781 2.25602981,6.37531775 L2.12652588,5.76526367 C2.11858115,5.72317901 2.14553586,5.682404 2.18736873,5.67322531 L3,5.49599021 L3,6.29396221 Z" id="Combined-Shape"></path>
                            <path d="M11.5248968,8 L12.741986,8 C13.4285194,8 13.9901933,8.56684525 13.9901933,9.2596995 L13.9901933,12.7240489 C13.9901933,13.4169032 13.428442,13.9838265 12.7419086,13.9838265 L1.258014,13.9838265 C0.571480605,13.9838265 0.00972924406,13.4169032 0.00972924406,12.7240489 L0.00972924406,9.25977762 C0.00972924406,8.56692337 0.571480605,8 1.258014,8 L2.47510324,8 L2.47510324,0.791300562 C2.47510324,0.362226868 2.82614946,0.0111806479 3.25522315,0.0111806479 L10.7447768,0.0111806479 C11.1738505,0.0111806479 11.5248968,0.362226868 11.5248968,0.791300562 L11.5248968,8 Z M3.37900604,8 L5.51623535,8 C5.51623535,8.8717395 6.27871704,9.60504638 7.15605495,9.60504638 C7.98236084,9.60504638 8.87242713,8.87482177 8.87242713,8 L10.6096034,8 C10.5712254,3.3407871 10.551857,1.01118065 10.5514984,1.01118065 L3.37900604,1.01269362 L3.37900604,8 Z M4.75354004,2 L9.26824951,2 C9.54439189,2 9.76824951,2.22385763 9.76824951,2.5 C9.76824951,2.77614237 9.54439189,3 9.26824951,3 L4.75354004,3 C4.47739766,3 4.25354004,2.77614237 4.25354004,2.5 C4.25354004,2.22385763 4.47739766,2 4.75354004,2 Z M4.75354004,4 L9.26824951,4 C9.54439189,4 9.76824951,4.22385763 9.76824951,4.5 C9.76824951,4.77614237 9.54439189,5 9.26824951,5 L4.75354004,5 C4.47739766,5 4.25354004,4.77614237 4.25354004,4.5 C4.25354004,4.22385763 4.47739766,4 4.75354004,4 Z M4.75354004,6 L9.26824951,6 C9.54439189,6 9.76824951,6.22385763 9.76824951,6.5 C9.76824951,6.77614237 9.54439189,7 9.26824951,7 L4.75354004,7 C4.47739766,7 4.25354004,6.77614237 4.25354004,6.5 C4.25354004,6.22385763 4.47739766,6 4.75354004,6 Z M12.5574758,9 L9.4519851,9 C9.13540051,9.91142641 8.22790288,10.5714664 7.16050497,10.5714664 C6.09310707,10.5714664 5.18560944,9.91142641 4.86902484,9 L1.46198227,9 C1.34291714,9 1.22983519,9.04571307 1.14390188,9.12714611 C1.05647278,9.20857915 1.00972924,9.31573909 1.00972924,9.42856886 L1.00972924,12.5714307 C1.00972924,12.6842605 1.05796857,12.7914205 1.14390188,12.8728535 C1.22740212,12.9542805 1.34216696,13.0001554 1.46198227,12.9999996 L12.5574758,12.9999996 C12.6765409,12.9999996 12.7896229,12.9542865 12.8755562,12.8728535 C12.9614832,12.7937261 13.0098933,12.6849714 13.0097288,12.5714307 L13.0097288,9.42856886 C13.0097288,9.31573909 12.9614895,9.20857915 12.8755562,9.12714611 C12.7896229,9.04429561 12.6765409,9 12.5574758,9 Z" id="系列课"></path>
                        </g>
                    </g>
                </g>
            </g>
        </g>
    </g>
</svg>