<?xml version="1.0" encoding="UTF-8"?>
<svg width="16px" height="16px" viewBox="0 0 16 16" version="1.1" xmlns="http://www.w3.org/2000/svg" xmlns:xlink="http://www.w3.org/1999/xlink">
    <!-- Generator: Sketch 49.3 (51167) - http://www.bohemiancoding.com/sketch -->
    <title>单次课</title>
    <desc>Created with Sketch.</desc>
    <defs></defs>
    <g id="Page-1" stroke="none" stroke-width="1" fill="none" fill-rule="evenodd">
        <g id="概况" transform="translate(-54.000000, -200.000000)" fill="#666666" fill-rule="nonzero">
            <g id="左侧导航" transform="translate(0.000000, 80.000000)">
                <g id="单次课_export" transform="translate(54.000000, 120.000000)">
                    <path d="M10.9969482,2.00006104 L12.8,2.00006104 C13.463,2.00006104 14,2.53099324 14,3.18650171 L14,13.8232029 C14,14.4787114 13.463,15.0096436 12.8,15.0096436 L3.2,15.0096436 C2.537,15.0096436 2,14.4787114 2,13.8232029 L2,3.18650171 C2,2.53099324 2.537,2.00006104 3.2,2.00006104 L4.99798584,2.00006104 L4.99798584,1.6 C4.99798584,1.2685 5.16996484,1 5.50146484,1 C5.83296484,1 6.00494385,1.2685 6.00494385,1.6 L6.00494385,2.00006104 L10.0006561,2.00006104 L10.0006561,1.6 C10.0006561,1.2685 10.1609622,1 10.4924622,1 C10.8239622,1 10.9969482,1.2685 10.9969482,1.6 L10.9969482,2.00006104 Z M10.9969482,3.02160645 L10.9969482,3.4 C10.9969482,3.7315 10.8529386,4 10.5214386,4 C10.1899386,4 10.0006561,3.7315 10.0006561,3.4 L10.0006561,3.02160645 L6.00494385,3.02160645 L6.00494385,3.4 C6.00494385,3.7315 5.85046667,4 5.51896667,4 C5.18746667,4 4.99798584,3.7315 4.99798584,3.4 L4.99798584,3.02160645 L3.5,3.02160645 C3.22385763,3.02160645 3,3.24546407 3,3.52160645 L3,13.5047607 C3,13.7809031 3.22385763,14.0047607 3.5,14.0047607 L12.50177,14.0047607 C12.7779124,14.0047607 13.00177,13.7809031 13.00177,13.5047607 L13.00177,3.52160645 C13.00177,3.24546407 12.7779124,3.02160645 12.50177,3.02160645 L10.9969482,3.02160645 Z M11.4572144,7 L4.55749512,7 C4.22599512,7 4.03857422,6.77625 4.03857422,6.5 C4.03857422,6.22375 4.22599512,6 4.55749512,6 L11.4572144,6 C11.7887144,6 11.9686279,6.22375 11.9686279,6.5 C11.9686279,6.77625 11.7887144,7 11.4572144,7 Z M11.4572144,9 L4.55749512,9 C4.22599512,9 4.03857422,8.77625 4.03857422,8.5 C4.03857422,8.22375 4.22599512,8 4.55749512,8 L11.4572144,8 C11.7887144,8 11.9686279,8.22375 11.9686279,8.5 C11.9686279,8.77625 11.7887144,9 11.4572144,9 Z M8.45721436,11 L4.55749512,11 C4.22599512,11 4.03857422,10.77625 4.03857422,10.5 C4.03857422,10.22375 4.22599512,10 4.55749512,10 L8.45721436,10 C8.78871436,10 8.96862793,10.22375 8.96862793,10.5 C8.96862793,10.77625 8.78871436,11 8.45721436,11 Z" id="单次课"></path>
                </g>
            </g>
        </g>
    </g>
</svg>