<?xml version="1.0" encoding="UTF-8"?>
<svg width="16px" height="16px" viewBox="0 0 16 16" version="1.1" xmlns="http://www.w3.org/2000/svg" xmlns:xlink="http://www.w3.org/1999/xlink">
    <!-- Generator: Sketch 49.3 (51167) - http://www.bohemiancoding.com/sketch -->
    <title>主讲管理</title>
    <desc>Created with Sketch.</desc>
    <defs></defs>
    <g id="Page-1" stroke="none" stroke-width="1" fill="none" fill-rule="evenodd">
        <g id="概况" transform="translate(-55.000000, -426.000000)" fill="#666666" fill-rule="nonzero">
            <g id="左侧导航" transform="translate(0.000000, 80.000000)">
                <g id="主讲管理_export" transform="translate(55.000000, 346.000000)">
                    <path d="M1.5,9 L14.5,9 C14.7761424,9 15,9.22385763 15,9.5 L15,9.5 C15,9.77614237 14.7761424,10 14.5,10 L1.5,10 C1.22385763,10 1,9.77614237 1,9.5 L1,9.5 C1,9.22385763 1.22385763,9 1.5,9 Z M8,1 C6.8954305,1 6,1.8954305 6,3 C6,4.1045695 6.8954305,5 8,5 C9.1045695,5 10,4.1045695 10,3 C10,1.8954305 9.1045695,1 8,1 Z M5,13.003009 L3.84350586,13.003009 L3.84274403,12.9994156 C3.44768119,12.985939 3.09616226,12.7404056 2.94855627,12.3713907 L2,10 L3.2,10 L4,12 L5.50585938,12 C5.78200175,12 6.00585938,12.2238576 6.00585938,12.5 L6.00585938,13 L10.0170898,13 L10.0170898,12.5 C10.0170898,12.2238576 10.2409475,12 10.5170898,12 L12,12 L12.8,10 L14,10 L13.0514437,12.3713907 C12.9046813,12.7382967 12.5563301,12.9831285 12.1640251,12.9991619 L12.163147,13.003009 L11.0170898,13.003009 L11.0170898,14.5 C11.0170898,14.7761424 10.7932322,15 10.5170898,15 C10.2409475,15 10.0170898,14.7761424 10.0170898,14.5 L10.0170898,14 L6.00585937,14 L6.00585938,14.5 C6.00585938,14.7761424 5.78200175,15 5.50585938,15 C5.229717,15 5.00585938,14.7761424 5.00585938,14.5 L5.00585938,14 L5,14 L5,13.003009 Z M12.4819946,6.85554906 C12.1930514,6.68022858 12,6.36265907 12,6 C12,5.44771525 12.4477153,5 13,5 C13.5522847,5 14,5.44771525 14,6 C14,6.37752558 13.7907967,6.70618911 13.4819946,6.87638603 L13.4819946,9 L12.4819946,9 L12.4819946,6.85554906 Z M9.77855706,5.41617776 C11.0952068,6.07086152 11.9999856,7.4297667 12,9 L11,9 C10.9999835,7.4678917 9.7155783,6.10573882 8.20168516,5.9933277 C8.13502871,5.99775241 8.06777683,6 8,6 C7.93220725,6 7.8649397,5.99775135 7.79826786,5.99332458 C6.2830316,6.10571362 4.9829267,7.46787753 4.98291016,9 L4,9 C4.00001443,7.4297667 4.90479316,6.07086152 6.22144294,5.41617776 C5.48059207,4.8699223 5,3.9910853 5,3 C5,1.34314575 6.34314575,3.26070133e-16 8,0 C9.65685425,-2.71725111e-16 11,1.34314575 11,3 C11,3.9910853 10.5194079,4.8699223 9.77855706,5.41617776 Z" id="主讲管理"></path>
                </g>
            </g>
        </g>
    </g>
</svg>