<?xml version="1.0" encoding="UTF-8"?>
<svg width="16px" height="16px" viewBox="0 0 16 16" version="1.1" xmlns="http://www.w3.org/2000/svg" xmlns:xlink="http://www.w3.org/1999/xlink">
    <!-- Generator: Sketch 49.3 (51167) - http://www.bohemiancoding.com/sketch -->
    <title>学生管理</title>
    <desc>Created with Sketch.</desc>
    <defs></defs>
    <g id="Page-1" stroke="none" stroke-width="1" fill="none" fill-rule="evenodd">
        <g id="概况" transform="translate(-56.000000, -470.000000)" fill="#666666" fill-rule="nonzero">
            <g id="左侧导航" transform="translate(0.000000, 80.000000)">
                <g id="学生管理_export" transform="translate(56.000000, 390.000000)">
                    <path d="M8.12938988,2.02135799 C8.04324471,1.99288067 7.95022217,1.99288067 7.86407701,2.02135799 L0.285692453,4.54800036 C0.114888968,4.60600621 2.19669796e-17,4.76635658 0,4.94674092 C-2.13732775e-17,5.12712526 0.114888968,5.39304395 0.285692453,5.4510498 L2.03796387,6.0661396 L2.03796387,10.1833379 C2.03833265,10.2949426 2.08266972,10.4019058 2.1613652,10.4810436 C2.23540601,10.5550844 4.49830557,12.4188189 7.99673344,12.4188189 C9.20801449,12.4309501 10.4093392,12.1990787 11.5290967,11.7370265 C11.682882,11.6898444 11.7963531,11.5591735 11.8215078,11.400292 C11.8466625,11.2414105 11.7791058,10.9865475 11.6474164,10.8941679 C11.515727,10.8017883 11.342914,10.7925018 11.2020831,10.870237 C10.1864521,11.2890815 9.09682078,11.4989287 7.99827596,11.4872437 C6.76608723,11.5036287 5.19600955,11.1200772 4.08296888,10.5912124 C3.70330492,10.4082089 3.34570939,10.182577 3.01708984,9.91867514 L3.01708984,6.36130562 L7.86407701,7.97769216 C7.95060219,8.00707592 8.04440721,8.00707592 8.13093239,7.97769216 L12.9863548,6.42917554 L12.9801902,8.10699463 C12.49318,8.27993522 12.1606151,8.73206693 12.14057,9.24848308 C12.1205249,9.76489922 12.4170422,10.2414493 12.8891817,10.45162 L12.1503162,13.4055395 C12.1167152,13.532198 12.1439916,13.6672801 12.2241068,13.7709765 C12.3042221,13.8746728 12.4280446,13.9351639 12.5590832,13.9346227 L14.2419689,13.9346227 C14.3716099,13.9346693 14.4940467,13.8750002 14.5738887,13.7728627 C14.6537307,13.6707252 14.6820776,13.537505 14.6507358,13.4117096 L13.9118703,10.45162 C14.3840098,10.2414493 14.6805271,9.76489923 14.660482,9.24848308 C14.6404369,8.73206694 14.4009507,8.30569205 13.9139404,8.13275146 L13.9968872,6.0661396 L15.7077744,5.4510498 C15.8785779,5.39304395 15.9934669,5.12712526 15.9934669,4.94674092 C15.9934669,4.76635658 15.8785779,4.60600621 15.7077744,4.54800036 L8.12938988,2.02135799 Z M13.3997547,8.87671046 C13.6323258,8.87671046 13.8208618,9.06524651 13.8208618,9.29781752 C13.8208618,9.53038852 13.6323258,9.71892458 13.3997547,9.71892458 C13.1671837,9.71892458 12.9786477,9.53038852 12.9786477,9.29781752 C12.9786477,9.06524651 13.1671837,8.87671046 13.3997547,8.87671046 Z M13.3997547,11.8753629 L13.7082581,13.0862385 L13.095879,13.0862385 L13.3997547,11.8753629 Z M8.53491211,4.3772583 C8.31118819,4.34984265 8.03267252,4.52445684 7.9954834,4.74676514 C7.95829428,4.96907343 8.06429793,5.26482508 8.28476385,5.31171628 L11.4603882,5.96099854 L7.99673344,7.0283672 L1.74267578,4.98956299 L7.99827596,2.97021484 L14.2421265,4.99005127 L13.1246948,5.35223389 L8.53491211,4.3772583 Z" id="学生管理"></path>
                </g>
            </g>
        </g>
    </g>
</svg>