<?xml version="1.0" encoding="UTF-8"?>
<svg width="16px" height="16px" viewBox="0 0 16 16" version="1.1" xmlns="http://www.w3.org/2000/svg" xmlns:xlink="http://www.w3.org/1999/xlink">
    <!-- Generator: Sketch 52.5 (67469) - http://www.bohemiancoding.com/sketch -->
    <title>系统设置</title>
    <desc>Created with Sketch.</desc>
    <g id="Page-1" stroke="none" stroke-width="1" fill="none" fill-rule="evenodd">
        <g id="iocn-样式" transform="translate(-1029.000000, -327.000000)" fill-rule="nonzero">
            <g id="系统设置_export" transform="translate(1029.000000, 327.000000)">
                <g id="系统设置">
                    <rect id="矩形" fill="#D8D8D8" opacity="0" x="0" y="0" width="16" height="16"></rect>
                    <path d="M1.98828125,5.5 L3.02276611,5.5 L3.02276611,14.5 C3.02276611,14.7761424 2.79890849,15 2.52276611,15 L2.48828125,15 C2.21213888,15 1.98828125,14.7761424 1.98828125,14.5 L1.98828125,5.5 Z M8.02441406,7.01208496 L8.02441406,2.5 C8.02441406,2.22385763 7.80055644,2 7.52441406,2 L7.50939941,2 C7.23325704,2 7.00939941,2.22385763 7.00939941,2.5 L7.00939941,7.01208496 L8.02441406,7.01208496 Z M8.01025391,10.5555556 L8.01025391,14.5 C8.01025391,14.7761424 7.78639628,15 7.51025391,15 L7.49938965,15 C7.22324727,15 6.99938965,14.7761424 6.99938965,14.5 L6.99938965,10.5555556 L8.01025391,10.5555556 Z M12.5007935,2 L12.5194092,2 C12.7955516,2 13.0194092,2.22385763 13.0194092,2.5 L13.0194092,11.4755554 C13.0194092,11.7568384 12.7913843,11.9848633 12.5101013,11.9848633 L12.5101013,11.9848633 C12.2288184,11.9848633 12.0007935,11.7568384 12.0007935,11.4755554 L12.0007935,2.5 C12.0007935,2.22385763 12.2246511,2 12.5007935,2 Z" id="Shape" fill="#666666"></path>
                    <path d="M2.51219513,5.99512195 C1.619857,5.99519025 0.795273338,5.51917276 0.349084555,4.74639665 C-0.0971042293,3.97362055 -0.0971042293,3.0215014 0.349084555,2.24872529 C0.795273338,1.47594919 1.619857,0.999931695 2.51219513,1 C3.8914853,1.00010558 5.00956493,2.11827079 5.00956493,3.49756097 C5.00956493,4.87685115 3.8914853,5.99501637 2.51219513,5.99512195 Z M2.51453854,4.99980881 C3.05040278,4.99980882 3.54556176,4.71392865 3.81349388,4.24985661 C4.081426,3.78578457 4.081426,3.21402424 3.81349388,2.7499522 C3.54556176,2.28588015 3.05040278,1.99999999 2.51453854,2 C1.68616422,2.00000001 1.01463416,2.67153008 1.01463416,3.4999044 C1.01463416,4.32827872 1.68616422,4.9998088 2.51453854,4.99980881 Z M7.50731707,10.9902439 C6.12795223,10.9902439 5.00975609,9.87204777 5.00975609,8.49268293 C5.00975609,7.11331809 6.12795223,5.99512195 7.50731707,5.99512195 C8.8866819,5.99512197 10.004878,7.1133181 10.004878,8.49268293 C10.004878,9.87204775 8.8866819,10.9902439 7.50731707,10.9902439 Z M8.81349387,9.24985661 C9.081426,8.78578457 9.081426,8.21402423 8.81349387,7.74995219 C8.54556175,7.28588014 8.05040276,6.99999998 7.51453852,7 C6.68616422,7.00000003 6.01463419,7.6715301 6.01463419,8.4999044 C6.01463419,9.3282787 6.68616422,9.99980876 7.51453852,9.9998088 C8.05040276,9.99980882 8.54556175,9.71392866 8.81349387,9.24985661 Z M12.502439,15.9853659 C11.6101009,15.9854342 10.7855172,15.5094167 10.3393284,14.7366406 C9.89313966,13.9638645 9.89313966,13.0117453 10.3393284,12.2389692 C10.7855172,11.4661931 11.6101009,10.9901756 12.502439,10.9902439 C13.8817292,10.9903495 14.9998088,12.1085147 14.9998088,13.4878049 C14.9998088,14.8670951 13.8817292,15.9852603 12.502439,15.9853659 Z M12.514443,15 C13.3428701,15 14.014443,14.3284271 14.014443,13.5 C14.014443,12.6715729 13.3428701,12 12.514443,12 C11.6860158,12 11.014443,12.6715729 11.014443,13.5 C11.014443,14.3284271 11.6860158,15 12.514443,15 Z" id="Shape" fill="#666666"></path>
                </g>
            </g>
        </g>
    </g>
</svg>