<?xml version="1.0" encoding="UTF-8"?>
<svg width="16px" height="16px" viewBox="0 0 16 16" version="1.1" xmlns="http://www.w3.org/2000/svg" xmlns:xlink="http://www.w3.org/1999/xlink">
    <!-- Generator: Sketch 49.3 (51167) - http://www.bohemiancoding.com/sketch -->
    <title>系统设置</title>
    <desc>Created with Sketch.</desc>
    <defs></defs>
    <g id="Page-1" stroke="none" stroke-width="1" fill="none" fill-rule="evenodd">
        <g id="概况" transform="translate(-30.000000, -1056.000000)" fill="#666666" fill-rule="nonzero">
            <g id="左侧导航" transform="translate(0.000000, 80.000000)">
                <g id="认证信息" transform="translate(30.000000, 976.000000)">
                    <g id="系统设置_export">
                        <path d="M1.98828125,4.5 L3.02276611,4.5 L3.02276611,13.5 C3.02276611,13.7761424 2.79890849,14 2.52276611,14 L2.48828125,14 C2.21213888,14 1.98828125,13.7761424 1.98828125,13.5 L1.98828125,4.5 Z M8.02441406,6.01208496 L8.02441406,1.5 C8.02441406,1.22385763 7.80055644,1 7.52441406,1 L7.50939941,1 C7.23325704,1 7.00939941,1.22385763 7.00939941,1.5 L7.00939941,6.01208496 L8.02441406,6.01208496 Z M8.01025391,9.55555556 L8.01025391,13.5 C8.01025391,13.7761424 7.78639628,14 7.51025391,14 L7.49938965,14 C7.22324727,14 6.99938965,13.7761424 6.99938965,13.5 L6.99938965,9.55555556 L8.01025391,9.55555556 Z M13.0194092,10.0438538 C14.1506194,10.2820365 14.9998088,11.2857575 14.9998088,12.4878049 C14.9998088,13.8670951 13.8817292,14.9852603 12.502439,14.9853659 C11.6101009,14.9854342 10.7855172,14.5094167 10.3393284,13.7366406 C9.89313966,12.9638645 9.89313966,12.0117453 10.3393284,11.2389692 C10.7003099,10.6137679 11.3089637,10.1828053 12.0007935,10.0410422 L12.0007935,1.5 C12.0007935,1.22385763 12.2246511,1 12.5007935,1 L12.5194092,1 C12.7955516,1 13.0194092,1.22385763 13.0194092,1.5 L13.0194092,10.0438538 Z M2.51219513,4.99512195 C1.619857,4.99519025 0.795273338,4.51917276 0.349084555,3.74639665 C-0.0971042293,2.97362055 -0.0971042293,2.0215014 0.349084555,1.24872529 C0.795273338,0.475949188 1.619857,-6.83054091e-05 2.51219513,0 C3.8914853,0.000105579911 5.00956493,1.11827079 5.00956493,2.49756097 C5.00956493,3.87685115 3.8914853,4.99501637 2.51219513,4.99512195 Z M2.51453854,3.99980881 C3.05040278,3.99980882 3.54556176,3.71392865 3.81349388,3.24985661 C4.081426,2.78578457 4.081426,2.21402424 3.81349388,1.7499522 C3.54556176,1.28588015 3.05040278,0.999999992 2.51453854,1 C1.68616422,1.00000001 1.01463416,1.67153008 1.01463416,2.4999044 C1.01463416,3.32827872 1.68616422,3.9998088 2.51453854,3.99980881 Z M7.50731707,9.99024391 C6.12795223,9.99024391 5.00975609,8.87204777 5.00975609,7.49268293 C5.00975609,6.11331809 6.12795223,4.99512195 7.50731707,4.99512195 C8.8866819,4.99512197 10.004878,6.1133181 10.004878,7.49268293 C10.004878,8.87204775 8.8866819,9.99024389 7.50731707,9.99024391 Z M8.81349387,8.24985661 C9.081426,7.78578457 9.081426,7.21402423 8.81349387,6.74995219 C8.54556175,6.28588014 8.05040276,5.99999998 7.51453852,6 C6.68616422,6.00000003 6.01463419,6.6715301 6.01463419,7.4999044 C6.01463419,8.3282787 6.68616422,8.99980876 7.51453852,8.9998088 C8.05040276,8.99980882 8.54556175,8.71392866 8.81349387,8.24985661 Z M12.514443,14 C13.3428701,14 14.014443,13.3284271 14.014443,12.5 C14.014443,11.6715729 13.3428701,11 12.514443,11 C11.6860158,11 11.014443,11.6715729 11.014443,12.5 C11.014443,13.3284271 11.6860158,14 12.514443,14 Z" id="系统设置"></path>
                    </g>
                </g>
            </g>
        </g>
    </g>
</svg>