<?xml version="1.0" encoding="UTF-8"?>
<svg width="16px" height="16px" viewBox="0 0 16 16" version="1.1" xmlns="http://www.w3.org/2000/svg" xmlns:xlink="http://www.w3.org/1999/xlink">
    <!-- Generator: Sketch 49.3 (51167) - http://www.bohemiancoding.com/sketch -->
    <title>用户管理</title>
    <desc>Created with Sketch.</desc>
    <defs></defs>
    <g id="Page-1" stroke="none" stroke-width="1" fill="none" fill-rule="evenodd">
        <g id="概况" transform="translate(-32.000000, -379.000000)" fill="#666666">
            <g id="左侧导航" transform="translate(0.000000, 80.000000)">
                <g id="用户管理_export" transform="translate(32.000000, 299.000000)">
                    <g id="用户管理" transform="translate(0.000000, 1.000000)">
                        <path d="M9.58395631,12 C9.42797515,11.6429972 9.23151089,11.3077296 9.00036619,11 L12.8739825,11 C12.4299397,9.27477279 10.8638394,8 9,8 C8.81073174,8 8.62453374,8.01314533 8.44226918,8.03857279 C8.63269937,7.71771063 8.77954379,7.36794286 8.87464348,6.99742842 C8.9162163,6.99913722 8.95800739,7 9,7 C10.6568542,7 12,5.65685425 12,4 C12,2.34314575 10.6568542,1 9,1 C7.97357874,1 7.06755262,1.51547286 6.5266723,2.30166792 C6.20845683,2.17016389 5.86957183,2.07853421 5.51624472,2.03300632 C6.20304342,0.819225157 7.50585157,0 9,0 C11.209139,0 13,1.790861 13,4 C13,5.46092658 12.2168002,6.73892704 11.0473678,7.43703415 C12.7879341,8.21921927 14,9.96806305 14,12 L13,12 L9.58395631,12 Z" id="Combined-Shape"></path>
                        <path d="M1,14 L0,14 C0,11.9680631 1.21206591,10.2192193 2.95263221,9.43703415 C1.78319981,8.73892704 1,7.46092658 1,6 C1,3.790861 2.790861,2 5,2 C7.209139,2 9,3.790861 9,6 C9,7.46092658 8.21680019,8.73892704 7.04736779,9.43703415 C8.78793409,10.2192193 10,11.9680631 10,14 L9,14 L1,14 Z M1.12601749,13 L8.87398251,13 C8.42993972,11.2747728 6.86383943,10 5,10 C3.13616057,10 1.57006028,11.2747728 1.12601749,13 Z M5,9 C6.65685425,9 8,7.65685425 8,6 C8,4.34314575 6.65685425,3 5,3 C3.34314575,3 2,4.34314575 2,6 C2,7.65685425 3.34314575,9 5,9 Z M3,6 C3.08097331,5.78611247 3.24595133,5.6791687 3.49493408,5.6791687 C3.71767171,5.6791687 3.88602702,5.78611247 4,6 C4,6.55228475 4.44771525,7 5,7 C5.55228475,7 6,6.55228475 6,6 C6.06825765,5.78611247 6.22906494,5.6791687 6.48242188,5.6791687 C6.77166748,5.6791687 6.94419352,5.78611247 7,6 C7,7.1045695 6.1045695,8 5,8 C3.8954305,8 3,7.1045695 3,6 Z" id="Combined-Shape"></path>
                    </g>
                </g>
            </g>
        </g>
    </g>
</svg>